<?php xml version="1.0" standalone="no"?>
<!DOCTYPE svg PUBLIC "-//W3C//DTD SVG 1.1//EN" "http://www.w3.org/Graphics/SVG/1.1/DTD/svg11.dtd" >
<svg>
<metadata>
Created by FontForge 20120731 at Thu Apr 17 13:54:39 2014
 By World Wide Web Server
Font software Copyright (c) 2012 Intel Corporation. Licensed under the Apache License, Version 2.0.  http://www.apache.org/licenses/LICENSE-2.0
</metadata>
<defs>
<font id="ClearSans-Light" horiz-adv-x="1450" >
  <font-face 
    font-family="Clear Sans Light"
    font-weight="300"
    font-stretch="normal"
    units-per-em="2048"
    panose-1="2 11 3 3 3 2 2 2 3 4"
    ascent="1489"
    descent="-559"
    x-height="1049"
    cap-height="1384"
    bbox="-362 -629 2566 2058"
    underline-thickness="102"
    underline-position="-103"
    unicode-range="U+000D-FEFF"
  />
<missing-glyph horiz-adv-x="1024" 
d="M25 1362h972v-1362h-972v1362zM512 768l330 498h-662zM123 186l14 21t37.5 55.5t53 79t60.5 91.5q72 109 165 249l-330 496v-992zM569 682l332 -498v994zM512 594l-332 -496h662z" />
    <glyph glyph-name="f_f" unicode="ff" horiz-adv-x="1239" 
d="M1282 1364q-14 8 -33.5 16t-41 14t-44 9.5t-43.5 3.5q-46 0 -77 -13t-50 -42t-27 -76t-8 -115v-112h244v-111h-244v-938h-129v938h-164v111h164v116q0 91 15 158t49.5 111t90 65t136.5 21q60 0 114.5 -14.5t90.5 -32.5zM664 1364q-14 8 -33.5 16t-41 14t-44 9.5
t-43.5 3.5q-46 0 -77 -13t-50 -42t-27 -76t-8 -115v-112h244v-111h-244v-938h-129v938h-164v111h164v116q0 91 15 158t49.5 111t90 65t136.5 21q60 0 114.5 -14.5t90.5 -32.5z" />
    <glyph glyph-name="fi" unicode="fi" horiz-adv-x="1110" 
d="M664 1364q-14 8 -33.5 16t-41 14t-44 9.5t-43.5 3.5q-46 0 -77 -13t-50 -42t-27 -76t-8 -115v-112h244v-111h-244v-938h-129v938h-164v111h164v116q0 91 15 158t49.5 111t90 65t136.5 21q60 0 114.5 -14.5t90.5 -32.5zM954 1305q0 -51 -21.5 -69.5t-70.5 -18.5
q-51 0 -70.5 23t-19.5 65q0 45 20 65.5t70 20.5q51 0 71.5 -20t20.5 -66zM798 0v1049h129v-1049h-129z" />
    <glyph glyph-name="fl" unicode="fl" horiz-adv-x="1135" 
d="M664 1364q-14 8 -33.5 16t-41 14t-44 9.5t-43.5 3.5q-46 0 -77 -13t-50 -42t-27 -76t-8 -115v-112h244v-111h-244v-938h-129v938h-164v111h164v116q0 91 15 158t49.5 111t90 65t136.5 21q60 0 114.5 -14.5t90.5 -32.5zM811 0v1489h129v-1489h-129z" />
    <glyph glyph-name="f_f_i" unicode="ffi" horiz-adv-x="1729" 
d="M664 1364q-14 8 -33.5 16t-41 14t-44 9.5t-43.5 3.5q-46 0 -77 -13t-50 -42t-27 -76t-8 -115v-112h244v-111h-244v-938h-129v938h-164v111h164v116q0 91 15 158t49.5 111t90 65t136.5 21q60 0 114.5 -14.5t90.5 -32.5zM1282 1364q-14 8 -33.5 16t-41 14t-44 9.5
t-43.5 3.5q-46 0 -77 -13t-50 -42t-27 -76t-8 -115v-112h244v-111h-244v-938h-129v938h-164v111h164v116q0 91 15 158t49.5 111t90 65t136.5 21q60 0 114.5 -14.5t90.5 -32.5zM1573 1305q0 -51 -21.5 -69.5t-70.5 -18.5q-51 0 -70.5 23t-19.5 65q0 45 20 65.5t70 20.5
q51 0 71.5 -20t20.5 -66zM1417 0v1049h129v-1049h-129z" />
    <glyph glyph-name="f_f_l" unicode="ffl" horiz-adv-x="1753" 
d="M664 1364q-14 8 -33.5 16t-41 14t-44 9.5t-43.5 3.5q-46 0 -77 -13t-50 -42t-27 -76t-8 -115v-112h244v-111h-244v-938h-129v938h-164v111h164v116q0 91 15 158t49.5 111t90 65t136.5 21q60 0 114.5 -14.5t90.5 -32.5zM1282 1364q-14 8 -33.5 16t-41 14t-44 9.5
t-43.5 3.5q-46 0 -77 -13t-50 -42t-27 -76t-8 -115v-112h244v-111h-244v-938h-129v938h-164v111h164v116q0 91 15 158t49.5 111t90 65t136.5 21q60 0 114.5 -14.5t90.5 -32.5zM1430 0v1489h129v-1489h-129z" />
    <glyph glyph-name=".notdef" horiz-adv-x="1024" 
d="M25 1362h972v-1362h-972v1362zM512 768l330 498h-662zM123 186l14 21t37.5 55.5t53 79t60.5 91.5q72 109 165 249l-330 496v-992zM569 682l332 -498v994zM512 594l-332 -496h662z" />
    <glyph glyph-name="NULL" horiz-adv-x="0" 
 />
    <glyph glyph-name="NULL" horiz-adv-x="0" 
 />
    <glyph glyph-name="nonmarkingreturn" unicode="&#xd;" horiz-adv-x="539" 
 />
    <glyph glyph-name="space" unicode=" " horiz-adv-x="539" 
 />
    <glyph glyph-name="exclam" unicode="!" horiz-adv-x="541" 
d="M326 379h-107l-24 1005h149zM371 78q0 -53 -25 -72.5t-78 -19.5q-29 0 -48.5 6t-31 18t-16 29t-4.5 39q0 49 23 70.5t77 21.5q57 0 80 -22t23 -70z" />
    <glyph glyph-name="quotedbl" unicode="&#x22;" horiz-adv-x="892" 
d="M326 932h-94l-35 520h166zM658 932h-94l-35 520h166z" />
    <glyph glyph-name="numbersign" unicode="#" horiz-adv-x="1466" 
d="M1059 891l-107 -399h279v-95h-307l-107 -397h-102l104 397h-336l-106 -397h-101l105 397h-262v95h289l108 399h-280v96h305l104 397h103l-105 -397h336l106 397h103l-105 -397h265v-96h-289zM618 891l-110 -399h340l108 399h-338z" />
    <glyph glyph-name="dollar" unicode="$" horiz-adv-x="1255" 
d="M1077 416q0 -81 -30 -142t-81.5 -102.5t-121.5 -63.5t-150 -26v-215h-102v215q-83 4 -146 28t-110 58.5t-80 75.5t-57 80l106 61q16 -32 40.5 -64t59 -59t81 -46.5t106.5 -25.5v476q-100 21 -169.5 50.5t-113 69t-63 89.5t-19.5 112t21 118.5t65.5 100.5t113.5 71.5
t165 31.5v104h102v-104q72 -4 129.5 -21t103 -46t80.5 -69.5t64 -91.5l-108 -59q-19 37 -43.5 68t-57 55t-74.5 38.5t-94 18.5v-438q78 -18 148 -43t122 -65t82.5 -98t30.5 -142zM592 1202q-66 -4 -111 -21t-73 -44.5t-40 -65t-12 -82.5q0 -48 20 -81t53 -56t75.5 -38
t87.5 -26v414zM948 414q0 88 -61 142.5t-193 86.5v-453q48 3 93.5 17t81 40.5t57.5 67.5t22 99z" />
    <glyph glyph-name="percent" unicode="%" horiz-adv-x="2052" 
d="M1573 -31q-94 0 -161 27.5t-110 82t-63 137t-20 192.5q0 224 90 331t264 107q181 0 267.5 -112.5t86.5 -325.5q0 -439 -354 -439zM565 -51l799 1487h125l-801 -1487h-123zM477 537q-185 0 -269.5 107.5t-84.5 330.5q0 224 90.5 331t263.5 107q181 0 269 -114t88 -324
q0 -218 -88.5 -328t-268.5 -110zM1573 72q63 0 105.5 20.5t69 62.5t37.5 105t11 148q0 67 -8 127t-32 106t-68 73t-115 27q-65 0 -108 -21t-68.5 -63t-36 -104.5t-10.5 -144.5q0 -85 10.5 -148t36 -105t68.5 -62.5t108 -20.5zM477 639q64 0 107 21t69 63t37.5 105t11.5 147
q0 66 -8.5 126.5t-32.5 106.5t-68 73.5t-116 27.5q-65 0 -108 -21.5t-68 -63.5t-35 -104.5t-10 -144.5q0 -86 10.5 -149.5t35.5 -105t67.5 -61.5t107.5 -20z" />
    <glyph glyph-name="ampersand" unicode="&#x26;" horiz-adv-x="1430" 
d="M1155 0l-104 123q-39 -32 -82.5 -59.5t-93.5 -48t-109.5 -32.5t-130.5 -12q-117 0 -205.5 28.5t-148.5 79t-90.5 120.5t-30.5 153q0 72 18.5 126.5t59 102.5t105.5 94.5t157 100.5q-44 51 -76.5 95.5t-54.5 85t-32.5 77.5t-10.5 74q0 152 89.5 228.5t262.5 76.5
q81 0 141.5 -20.5t101 -56t60.5 -83.5t20 -102q0 -62 -21 -116.5t-60.5 -103.5t-97.5 -93.5t-132 -87.5l371 -439q42 53 79 127t62 170l121 -30q-28 -116 -77 -210t-103 -153l184 -215h-172zM868 1149q0 34 -12 63t-36.5 50t-61.5 33t-86 12q-69 0 -111 -19t-64.5 -48
t-30 -63t-7.5 -65q0 -60 40 -123.5t115 -148.5q72 40 121 79.5t78.5 78t42 76t12.5 75.5zM578 686q-91 -54 -146 -95t-85 -78t-40 -75t-10 -86q0 -65 26.5 -114.5t72.5 -84t108.5 -52t134.5 -17.5q108 0 191.5 37.5t142.5 93.5z" />
    <glyph glyph-name="quotesingle" unicode="'" horiz-adv-x="561" 
d="M328 932h-95l-36 520h165z" />
    <glyph glyph-name="parenleft" unicode="(" horiz-adv-x="766" 
d="M518 -395q-91 111 -156.5 220.5t-108 225t-63 241t-20.5 269.5t21.5 273.5t64.5 247t108.5 226t153.5 210.5h146q-95 -94 -164.5 -204t-115.5 -232t-68.5 -253.5t-22.5 -267.5q0 -135 22 -260.5t67.5 -243.5t115.5 -230.5t166 -221.5h-146z" />
    <glyph glyph-name="parenright" unicode=")" horiz-adv-x="797" 
d="M131 -395q193 213 282 449.5t89 506.5q0 275 -90.5 517t-280.5 440h145q88 -102 154 -210.5t110 -226t65.5 -247t21.5 -273.5q0 -147 -22 -274.5t-66 -243t-109.5 -223.5t-153.5 -215h-145z" />
    <glyph glyph-name="asterisk" unicode="*" horiz-adv-x="967" 
d="M799 938l-275 160l4 -273h-92l4 273l-272 -160l-45 78l285 155l-285 156l45 78l272 -158l-4 273h92l-4 -273l275 158l45 -78l-287 -156l287 -155z" />
    <glyph glyph-name="plus" unicode="+" horiz-adv-x="1427" 
d="M766 528v-477h-111v477h-477v111h477v481h111v-481h481v-111h-481z" />
    <glyph glyph-name="comma" unicode="," horiz-adv-x="541" 
d="M186 -272q20 22 35.5 54t26 67t15.5 71t5 66q-55 0 -75.5 22t-20.5 70q0 46 22 69t74 23q101 0 101 -115q0 -56 -10.5 -107.5t-26 -95t-34.5 -75.5t-36 -49h-76z" />
    <glyph glyph-name="hyphen" unicode="-" horiz-adv-x="848" 
d="M113 463v127h622v-127h-622z" />
    <glyph glyph-name="period" unicode="." horiz-adv-x="541" 
d="M369 78q0 -53 -25 -72.5t-76 -19.5q-55 0 -75.5 23.5t-20.5 68.5q0 48 22 70t74 22q54 0 77.5 -21.5t23.5 -70.5z" />
    <glyph glyph-name="slash" unicode="/" horiz-adv-x="952" 
d="M139 -299h-121l727 1819h123z" />
    <glyph glyph-name="zero" unicode="0" horiz-adv-x="1255" 
d="M1118 688q0 -368 -119.5 -543.5t-371.5 -175.5q-126 0 -218.5 42.5t-152.5 131t-89.5 223.5t-29.5 320t29.5 320.5t89.5 223.5t152.5 130.5t218.5 42.5t218.5 -42.5t153 -130.5t90 -223t29.5 -319zM973 688q0 157 -21 269.5t-64 185t-108 107t-153 34.5q-91 0 -156.5 -35
t-107.5 -108.5t-62 -186.5t-20 -268q0 -156 21 -269t63.5 -186t107.5 -108t154 -35q88 0 153 35t108 108.5t64 186.5t21 270z" />
    <glyph glyph-name="one" unicode="1" horiz-adv-x="1255" 
d="M631 0v1128q-28 -30 -66 -53.5t-82 -39t-91.5 -23.5t-94.5 -8v112q80 4 142 27t107.5 59.5t75 83.5t44.5 98h98v-1384h-133z" />
    <glyph glyph-name="two" unicode="2" horiz-adv-x="1180" 
d="M156 0v143q76 64 160.5 141.5t165.5 157t152.5 155.5t119.5 138q46 62 76 130.5t30 156.5q0 67 -21.5 118t-59.5 84.5t-90.5 50.5t-113.5 17q-112 0 -187 -48.5t-122 -133.5l-114 68q18 35 49.5 76t83 76.5t124.5 59t173 23.5q85 0 162 -21t135 -67.5t92.5 -120
t34.5 -178.5q0 -59 -12 -111t-34.5 -99.5t-54 -93t-71.5 -91.5q-43 -48 -92 -100.5t-111 -113.5t-141 -133.5t-181 -160.5h742v-123h-895z" />
    <glyph glyph-name="three" unicode="3" horiz-adv-x="1180" 
d="M1008 397q0 -106 -32 -185.5t-93.5 -133t-150.5 -80.5t-204 -27q-61 0 -122.5 13t-116 38t-98.5 61t-70 81l106 72q21 -31 52.5 -57.5t70 -46t83 -31t91.5 -11.5q87 0 151 18t106 56.5t62.5 98.5t20.5 143q0 136 -84 206t-268 70h-92v119h76q77 0 140.5 17t108.5 50
t70 82t25 113q0 117 -74.5 173t-206.5 56q-111 0 -187.5 -43.5t-127.5 -124.5l-113 72q25 42 62.5 81t90 69t122.5 48.5t161 18.5q110 0 188.5 -26t129 -71t74.5 -105.5t24 -129.5q0 -137 -70 -216.5t-204 -114.5q64 -6 118.5 -31.5t94.5 -69.5t63 -107t23 -145z" />
    <glyph glyph-name="four" unicode="4" horiz-adv-x="1255" 
d="M920 346v-346h-132v346h-722v133l743 905h111v-919h200v-119h-200zM788 1171l-585 -706h585v706z" />
    <glyph glyph-name="five" unicode="5" horiz-adv-x="1180" 
d="M1016 436q0 -108 -30.5 -194.5t-90 -146.5t-147 -92t-201.5 -32q-75 0 -139 15.5t-115.5 42t-89.5 61t-60 72.5l111 76q18 -29 47 -56t66 -47.5t81.5 -32.5t94.5 -12q87 0 149 26t102 71.5t59 108t19 136.5q0 80 -24.5 136.5t-67 92.5t-101 53t-126.5 17q-74 0 -138 -19
t-118 -55h-72l74 727h682v-122h-571l-48 -465q22 11 50.5 20.5t58.5 16t59.5 10.5t55.5 4q99 0 178.5 -26.5t135.5 -78t86 -128.5t30 -179z" />
    <glyph glyph-name="six" unicode="6" horiz-adv-x="1180" 
d="M606 -29q-128 -1 -217.5 44t-146.5 133.5t-83 219.5t-26 302q0 153 30 288t93.5 236t163 160t239.5 59q110 0 193.5 -34.5t153.5 -108.5l-88 -101q-28 30 -56 53.5t-59.5 39t-67.5 24t-80 8.5q-90 0 -157.5 -39t-113 -109.5t-71 -168.5t-32.5 -215q28 19 66 38.5t84 35.5
t98 26t108 10q94 0 171.5 -24t132 -75.5t84.5 -131.5t30 -192q0 -114 -30 -203t-87 -150t-140.5 -93t-191.5 -32zM608 90q79 0 137 25t95.5 70.5t56 110.5t18.5 146q0 89 -22.5 149t-63 96t-98 51.5t-127.5 15.5q-39 0 -82 -8t-85.5 -21.5t-82.5 -32t-73 -39.5
q0 -163 22 -271t64 -173t102.5 -92t138.5 -27z" />
    <glyph glyph-name="seven" unicode="7" horiz-adv-x="1255" 
d="M551 0h-150l543 1262h-792v122h929v-129z" />
    <glyph glyph-name="eight" unicode="8" horiz-adv-x="1180" 
d="M1061 346q0 -94 -32 -164t-92.5 -117t-147.5 -70.5t-197 -23.5q-236 0 -353.5 96t-117.5 279q0 140 82.5 234.5t245.5 156.5q-65 31 -119 61.5t-92.5 68.5t-60 86.5t-21.5 115.5q0 76 26.5 139.5t80.5 109t136 70.5t193 25q213 0 323.5 -87.5t110.5 -254.5
q0 -73 -26.5 -126.5t-68.5 -93t-93.5 -67.5t-100.5 -49q72 -34 132 -69t102.5 -79.5t66 -102.5t23.5 -138zM889 1067q0 52 -17.5 95t-54 73.5t-92.5 47.5t-133 17q-78 0 -134.5 -16.5t-93 -46.5t-54 -71.5t-17.5 -92.5q0 -39 13 -72t47 -65t93.5 -65.5t151.5 -73.5
q73 27 127.5 55t91 60t54.5 69.5t18 85.5zM924 346q0 58 -19.5 103t-60 83t-103 72.5t-147.5 73.5q-83 -30 -146 -63t-105 -73t-63.5 -88.5t-21.5 -109.5q0 -120 82.5 -190t251.5 -70q170 0 251 70t81 192z" />
    <glyph glyph-name="nine" unicode="9" horiz-adv-x="1180" 
d="M244 221q27 -30 56 -54t62 -41.5t71.5 -26.5t84.5 -9q94 0 162.5 39t114.5 109t70.5 168t31.5 217q-29 -20 -67 -40t-83.5 -36t-97 -26.5t-106.5 -10.5q-95 0 -172.5 24.5t-132.5 76.5t-85 132.5t-30 192.5q0 114 30.5 202.5t88 149.5t141 93t190.5 32q129 0 219 -45
t146 -132.5t81 -216t25 -294.5q0 -104 -12.5 -200.5t-39.5 -180.5t-69 -152.5t-100.5 -117.5t-135.5 -76t-173 -27q-119 0 -206 40.5t-152 111.5zM573 631q39 0 82.5 8t86 21.5t83 31t74.5 37.5q0 135 -16.5 240.5t-55 177.5t-101.5 109.5t-155 37.5q-79 0 -137 -25
t-96.5 -71t-57 -111t-18.5 -145q0 -90 22.5 -150t64 -95.5t98.5 -50.5t126 -15z" />
    <glyph glyph-name="colon" unicode=":" horiz-adv-x="541" 
d="M369 956q0 -52 -25 -72t-76 -20q-55 0 -75.5 24.5t-20.5 67.5q0 50 22 71.5t74 21.5q54 0 77.5 -21.5t23.5 -71.5zM369 78q0 -53 -25 -72.5t-76 -19.5q-55 0 -75.5 23.5t-20.5 68.5q0 48 22 70t74 22q54 0 77.5 -21.5t23.5 -70.5z" />
    <glyph glyph-name="semicolon" unicode=";" horiz-adv-x="541" 
d="M369 956q0 -52 -25 -72t-76 -20q-55 0 -75.5 24.5t-20.5 67.5q0 50 22 71.5t74 21.5q54 0 77.5 -21.5t23.5 -71.5zM369 55q0 -56 -10.5 -107.5t-26 -95t-34.5 -75.5t-36 -49h-76q20 22 35.5 54t26 67t15.5 71t5 66q-55 0 -75.5 22t-20.5 70q0 46 22 69t74 23q53 0 77 -28
t24 -87z" />
    <glyph glyph-name="less" unicode="&#x3c;" horiz-adv-x="1427" 
d="M180 543v88l1067 454v-120l-897 -379l897 -377v-121z" />
    <glyph glyph-name="equal" unicode="=" horiz-adv-x="1427" 
d="M178 756v110h1069v-110h-1069zM178 305v111h1069v-111h-1069z" />
    <glyph glyph-name="greater" unicode="&#x3e;" horiz-adv-x="1427" 
d="M180 88v121l897 377l-897 379v120l1067 -454v-88z" />
    <glyph glyph-name="question" unicode="?" horiz-adv-x="1036" 
d="M367 352v271q106 54 181.5 102.5t124 97.5t71 103.5t22.5 120.5q0 56 -18.5 101t-55.5 77t-91 49.5t-126 17.5q-59 0 -104 -11.5t-79 -31t-58 -44.5t-39 -52l-109 72q21 39 56.5 73t84 59.5t110 40.5t136.5 15q93 0 172.5 -22t138 -66.5t92 -111t33.5 -156.5
q0 -85 -29 -152.5t-83 -125t-131 -109.5t-172 -105v-213h-127zM532 78q0 -53 -24.5 -72.5t-77.5 -19.5q-29 0 -48.5 6t-31 18t-16 29t-4.5 39q0 49 23 70.5t77 21.5q57 0 79.5 -21.5t22.5 -70.5z" />
    <glyph glyph-name="at" unicode="@" horiz-adv-x="1927" 
d="M1815 580q0 -105 -19 -206t-63 -180.5t-115.5 -128.5t-175.5 -49q-53 0 -92.5 9t-67 28t-44 49.5t-24.5 73.5q-74 -60 -152.5 -96.5t-156.5 -36.5q-103 0 -172.5 41t-112 108t-61 151t-18.5 171q0 114 25 207.5t76 160t127.5 102.5t180.5 36q42 0 80.5 -10t72.5 -24.5
t60.5 -31t44.5 -30.5v67h129v-739q0 -37 6.5 -61.5t20 -39.5t34.5 -21.5t50 -6.5q65 0 111.5 38t76.5 101t44 144.5t14 168.5q0 168 -43 303.5t-131 230t-220.5 145.5t-312.5 51q-110 0 -207.5 -26t-179.5 -74t-146.5 -116t-110 -151.5t-69.5 -181.5t-24 -205
q0 -178 52 -318t148 -237t231 -148t302 -51q119 0 222 11t194 32l26 -110q-45 -10 -98 -17.5t-110 -12t-117 -7t-119 -2.5q-188 0 -345 58t-269.5 168t-175 270.5t-62.5 365.5q0 123 29 235t83 207.5t131 172.5t172 131.5t206.5 84t234.5 29.5q201 0 356 -57.5t260.5 -165.5
t159.5 -262.5t54 -347.5zM1206 811q-24 17 -53.5 33.5t-61.5 30t-64.5 22t-61.5 8.5q-81 0 -137 -26t-90.5 -76t-50 -122t-15.5 -163q0 -65 11 -128.5t39.5 -114t77.5 -82t126 -31.5q37 0 74.5 11.5t73.5 30t69.5 40.5t62.5 43v524z" />
    <glyph glyph-name="A" unicode="A" horiz-adv-x="1264" 
d="M63 0l480 1384h174l483 -1384h-147l-135 399h-578l-135 -399h-142zM381 522h493l-247 731z" />
    <glyph glyph-name="B" unicode="B" horiz-adv-x="1257" 
d="M1130 408q0 -107 -34 -184t-99.5 -127t-162 -73.5t-220.5 -23.5h-415v1384h395q125 0 210 -19.5t137 -58.5t74.5 -97t22.5 -136q0 -67 -14 -118.5t-41.5 -90t-67 -65t-90.5 -43.5q65 -9 121 -33.5t97 -67t64 -103.5t23 -144zM897 1042q0 63 -17 105.5t-56 68.5t-103 37
t-158 11h-229v-473h221q177 0 259.5 59.5t82.5 191.5zM987 408q0 86 -28 137.5t-80 79.5t-124.5 36.5t-162.5 8.5h-258v-547h219q102 0 182.5 11t136.5 41.5t85.5 86.5t29.5 146z" />
    <glyph glyph-name="C" unicode="C" horiz-adv-x="1315" 
d="M1225 246q-33 -59 -75 -109t-100 -87t-135.5 -58t-181.5 -21q-302 0 -445 181t-143 540q0 174 34 308.5t105 226t180.5 139t260.5 47.5q97 0 173 -19t133.5 -54t100 -84t74.5 -109l-116 -74q-26 48 -58 87.5t-75.5 68.5t-100 45t-131.5 16q-118 0 -201 -39.5t-135 -116
t-76 -187.5t-24 -255t24 -255t77 -187.5t137 -116t204 -39.5q84 0 145.5 20t105.5 52t74.5 71.5t53.5 79.5z" />
    <glyph glyph-name="D" unicode="D" horiz-adv-x="1282" 
d="M1147 692q0 -203 -41.5 -336.5t-122 -212.5t-199 -111t-272.5 -32h-326v1384h324q163 0 282.5 -35t198.5 -116t117.5 -213.5t38.5 -327.5zM1001 694q0 157 -26.5 265.5t-86 176t-155.5 97t-235 29.5h-176v-1139h176q136 0 232 28.5t156 95.5t87.5 176.5t27.5 270.5z" />
    <glyph glyph-name="E" unicode="E" horiz-adv-x="1155" 
d="M199 0v1384h819v-122h-684v-467h588v-123h-588v-549h684v-123h-819z" />
    <glyph glyph-name="F" unicode="F" horiz-adv-x="1110" 
d="M334 1262v-461h577v-123h-577v-678h-135v1384h811v-122h-676z" />
    <glyph glyph-name="G" unicode="G" horiz-adv-x="1378" 
d="M1081 1073q-27 53 -60.5 93.5t-77.5 68t-100 41.5t-126 14q-113 0 -194 -37.5t-133 -112.5t-76.5 -187t-24.5 -261q0 -140 23 -251t76 -188t139.5 -118t213.5 -41q42 0 81 4.5t77 14t77.5 24t82.5 33.5v389h-369v123h504v-588q-58 -30 -109.5 -53t-104.5 -38.5
t-112 -23.5t-131 -8q-164 0 -276.5 50.5t-183 144.5t-101.5 227.5t-31 300.5t31 300t100 226t179 143t268 50q98 0 173 -19.5t131 -55t97 -84.5t72 -107z" />
    <glyph glyph-name="H" unicode="H" horiz-adv-x="1341" 
d="M1008 0v655h-674v-655h-135v1384h135v-606h674v606h135v-1384h-135z" />
    <glyph glyph-name="I" unicode="I" horiz-adv-x="719" 
d="M616 0h-514v119h189v1147h-189v118h514v-118h-190v-1147h190v-119z" />
    <glyph glyph-name="J" unicode="J" horiz-adv-x="864" 
d="M666 395q0 -104 -18 -183.5t-59.5 -133.5t-110 -81.5t-169.5 -27.5q-31 0 -64.5 4t-65.5 10.5t-61.5 15.5t-51.5 19l51 119q17 -9 40.5 -17t49.5 -14.5t52.5 -10t49.5 -3.5q70 0 113.5 21.5t67.5 66t32 112.5t8 161v931h136v-989z" />
    <glyph glyph-name="K" unicode="K" horiz-adv-x="1255" 
d="M1014 0l-527 639l-153 -164v-475h-135v1384h135v-739l661 739h170l-587 -649l612 -735h-176z" />
    <glyph glyph-name="L" unicode="L" horiz-adv-x="1038" 
d="M199 0v1384h135v-1261h649v-123h-784z" />
    <glyph glyph-name="M" unicode="M" horiz-adv-x="1556" 
d="M1227 0v1219l-406 -828h-90l-401 828v-1219h-131v1384h190l391 -806l389 806h189v-1384h-131z" />
    <glyph glyph-name="N" unicode="N" horiz-adv-x="1374" 
d="M1016 0l-686 1235v-1235h-131v1384h196l647 -1165v1165h134v-1384h-160z" />
    <glyph glyph-name="O" unicode="O" horiz-adv-x="1364" 
d="M1229 692q0 -167 -29 -300.5t-94 -227t-169.5 -143.5t-254.5 -50t-254 50t-169 144t-94.5 227t-29.5 300q0 166 29.5 299.5t94.5 227t169 144t254 50.5t254.5 -50t169.5 -143t94 -226.5t29 -301.5zM1083 692q0 144 -21 255.5t-68 187.5t-124 115.5t-188 39.5
q-112 0 -189 -39t-124.5 -115t-68.5 -187.5t-21 -256.5q0 -144 21 -255t68.5 -187.5t124.5 -116t189 -39.5q111 0 188 39.5t124 115.5t68 187.5t21 255.5z" />
    <glyph glyph-name="P" unicode="P" horiz-adv-x="1153" 
d="M1044 952q0 -126 -29 -214t-88.5 -143.5t-149.5 -80.5t-212 -25h-231v-489h-135v1384h383q238 0 350 -107.5t112 -324.5zM899 948q0 90 -22.5 150.5t-65 96.5t-103.5 51.5t-139 15.5h-235v-650h209q93 0 160 15t110.5 52.5t64.5 102.5t21 166z" />
    <glyph glyph-name="Q" unicode="Q" horiz-adv-x="1364" 
d="M1233 -283q-48 -18 -102.5 -26t-102.5 -8q-87 0 -154.5 19.5t-118 56.5t-85 91t-56.5 123q-121 11 -211 59.5t-149.5 137t-89 218.5t-29.5 304q0 169 30 303t96 227t170.5 142t252.5 49q144 0 247.5 -47.5t169.5 -139.5t97 -226t31 -308q0 -156 -25 -282t-80.5 -218
t-143.5 -148t-214 -71q14 -39 35.5 -70.5t53.5 -53.5t75.5 -34t101.5 -12q17 0 38.5 2t43.5 6t42.5 9t35.5 10zM1083 692q0 144 -21 255.5t-68 187.5t-124 115.5t-188 39.5q-112 0 -189 -39.5t-124.5 -115.5t-68.5 -187.5t-21 -255.5t21 -255t68.5 -187.5t124.5 -116
t189 -39.5t188.5 39.5t124 115.5t68 187.5t20.5 255.5z" />
    <glyph glyph-name="R" unicode="R" horiz-adv-x="1212" 
d="M979 0l-354 586h-291v-586h-135v1384h393q114 0 200.5 -20t145.5 -65.5t89 -119t30 -180.5q0 -92 -19.5 -159.5t-57 -114.5t-92 -75.5t-124.5 -43.5l377 -606h-162zM913 993q0 73 -17 124.5t-55 84t-99.5 47.5t-151.5 15h-256v-557h250q94 0 157 15.5t101 49.5t54.5 88.5
t16.5 132.5z" />
    <glyph glyph-name="S" unicode="S" horiz-adv-x="1225" 
d="M1096 362q0 -107 -38 -181t-103 -121t-153 -68t-188 -21q-105 0 -184 21t-138.5 57.5t-103 87.5t-77.5 111l116 69q20 -40 52 -79.5t78 -71.5t107.5 -52t141.5 -20q73 0 136.5 15t110.5 47t74 81.5t27 118.5q0 64 -21 108.5t-64 77t-109 56.5t-156 47q-120 31 -207 60.5
t-144 71t-84.5 101t-27.5 150.5q0 86 28 157t84.5 121.5t141.5 78.5t199 28q86 0 156 -17.5t126 -50t100 -78.5t79 -104l-113 -76q-26 45 -59 82.5t-75 64.5t-94.5 41.5t-117.5 14.5q-79 0 -138 -18t-98 -51t-58 -80t-19 -105q0 -56 17.5 -93.5t58.5 -65t109 -50t169 -47.5
q107 -27 192 -58t144.5 -77t91 -113.5t31.5 -169.5z" />
    <glyph glyph-name="T" unicode="T" horiz-adv-x="1174" 
d="M653 1262v-1262h-135v1262h-475v122h1085v-122h-475z" />
    <glyph glyph-name="U" unicode="U" horiz-adv-x="1378" 
d="M1184 578q0 -170 -26 -286.5t-84.5 -188t-152.5 -103t-229 -31.5q-141 0 -237 32.5t-154 105t-83 188.5t-25 283v806h135v-786q0 -144 17 -241t59 -156.5t111.5 -85t174.5 -25.5q106 0 175.5 25.5t110 85t57 156t16.5 237.5v790h135v-806z" />
    <glyph glyph-name="V" unicode="V" horiz-adv-x="1214" 
d="M688 0h-170l-455 1384h142l401 -1241l406 1241h139z" />
    <glyph glyph-name="W" unicode="W" horiz-adv-x="1718" 
d="M1313 0h-176l-281 1204l-283 -1204h-170l-323 1384h137l277 -1202l278 1202h168l287 -1212l278 1212h133z" />
    <glyph glyph-name="X" unicode="X" horiz-adv-x="1169" 
d="M66 0l444 694l-432 690h155l357 -585l362 585h152l-440 -686l440 -698h-156l-364 594l-371 -594h-147z" />
    <glyph glyph-name="Y" unicode="Y" horiz-adv-x="1126" 
d="M631 537v-537h-137v530l-443 854h150l362 -720l367 720h145z" />
    <glyph glyph-name="Z" unicode="Z" horiz-adv-x="1171" 
d="M102 0v129l779 1133h-748v122h905v-122l-784 -1139h801v-123h-953z" />
    <glyph glyph-name="bracketleft" unicode="[" horiz-adv-x="825" 
d="M215 -395v1884h457v-107h-338v-1673h338v-104h-457z" />
    <glyph glyph-name="backslash" unicode="\" horiz-adv-x="952" 
d="M811 -299l-729 1819h125l727 -1819h-123z" />
    <glyph glyph-name="bracketright" unicode="]" horiz-adv-x="825" 
d="M154 -395v104h335v1673h-335v107h456v-1884h-456z" />
    <glyph glyph-name="asciicircum" unicode="^" horiz-adv-x="1214" 
d="M940 594l-332 676l-334 -676h-120l389 790h129l389 -790h-121z" />
    <glyph glyph-name="underscore" unicode="_" horiz-adv-x="1024" 
d="M-10 -256v92h1044v-92h-1044z" />
    <glyph glyph-name="grave" unicode="`" horiz-adv-x="1106" 
d="M584 1208l-258 361h176l186 -361h-104z" />
    <glyph glyph-name="a" unicode="a" horiz-adv-x="1079" 
d="M776 0v152q-45 -39 -87 -72.5t-85.5 -58t-90 -38.5t-99.5 -14q-74 0 -129 22.5t-91.5 65t-54.5 103t-18 135.5q0 82 24 143t75 103.5t130.5 67.5t190.5 36l235 23v53q0 66 -15 112.5t-47.5 76.5t-83 43.5t-120.5 13.5q-59 0 -102.5 -10.5t-75 -28t-52.5 -40.5t-36 -48
l-103 63q22 36 52.5 68t75 56t104 38t139.5 14q106 0 180.5 -20t122 -63.5t69 -113t21.5 -169.5v-713h-129zM776 561l-188 -18q-90 -9 -153.5 -25.5t-103.5 -45t-58.5 -71t-18.5 -102.5q0 -114 46 -165.5t144 -51.5q37 0 72.5 11t74.5 33.5t84 58t101 83.5v293z" />
    <glyph glyph-name="b" unicode="b" horiz-adv-x="1151" 
d="M1022 532q0 -123 -24 -226.5t-74 -178.5t-126.5 -116.5t-181.5 -41.5q-78 0 -157.5 36t-147.5 99v-104h-129v1489h129v-555q31 31 67.5 58t77 46t84.5 30t89 11q107 0 182 -42.5t122 -116.5t68 -173.5t21 -214.5zM889 528q0 101 -16 182t-50 137.5t-87 87t-128 30.5
q-78 0 -153.5 -43t-143.5 -111v-586q69 -65 145.5 -104t147.5 -39q62 0 114.5 26t90.5 80.5t59 138.5t21 201z" />
    <glyph glyph-name="c" unicode="c" horiz-adv-x="1016" 
d="M926 168q-25 -47 -58 -84t-77 -62.5t-99.5 -39t-124.5 -13.5q-123 0 -206.5 42t-135 115.5t-74 174.5t-22.5 219q0 128 24.5 231.5t77 176t135 112t199.5 39.5q124 0 207.5 -49t140.5 -151l-106 -64q-21 39 -45 67.5t-53.5 47t-65.5 28t-82 9.5q-157 0 -228 -114
t-71 -337q0 -98 15.5 -178t51 -137.5t94 -89t144.5 -31.5q49 0 86.5 10.5t67.5 30.5t54 48.5t46 63.5z" />
    <glyph glyph-name="d" unicode="d" horiz-adv-x="1151" 
d="M840 0v115q-32 -31 -69.5 -57.5t-78.5 -46t-85 -31t-89 -11.5q-98 0 -171 37t-121.5 107.5t-72.5 172t-24 230.5q0 109 23.5 210.5t73 180t126 125.5t183.5 47q90 0 163 -33.5t142 -87.5v531h129v-1489h-129zM840 838q-75 60 -148 93.5t-145 33.5q-65 0 -118 -30.5
t-90 -87.5t-57 -139.5t-20 -187.5q0 -99 15 -180t47.5 -138t83.5 -88.5t124 -31.5q43 0 84.5 12.5t80.5 34t75 49.5t68 60v600z" />
    <glyph glyph-name="e" unicode="e" horiz-adv-x="1051" 
d="M262 524q0 -115 14.5 -199t49 -138.5t91.5 -80.5t142 -26q42 0 77 7.5t65.5 25t58.5 45t55 67.5l103 -67q-28 -45 -61.5 -80t-77 -59t-99 -37t-127.5 -13q-104 0 -183 30t-132.5 95.5t-81 169.5t-27.5 252q0 133 23 237.5t73.5 177t131 110.5t196.5 38q102 0 175 -32
t119.5 -92.5t68.5 -148t22 -198.5v-84h-676zM811 629q-3 177 -66 259.5t-196 82.5q-69 0 -119.5 -20t-85 -62t-54 -106.5t-26.5 -153.5h547z" />
    <glyph glyph-name="f" unicode="f" horiz-adv-x="618" 
d="M664 1364q-14 8 -33.5 16t-41 14t-44 9.5t-43.5 3.5q-46 0 -77 -13t-50 -42t-27 -76t-8 -115v-112h244v-111h-244v-938h-129v938h-164v111h164v116q0 91 15 158t49.5 111t90 65t136.5 21q60 0 114.5 -14.5t90.5 -32.5z" />
    <glyph glyph-name="g" unicode="g" horiz-adv-x="1151" 
d="M969 23q0 -111 -24 -190.5t-73.5 -130t-125.5 -74t-181 -23.5q-127 0 -220 29.5t-148 72.5l55 100q51 -42 128 -68t185 -26q75 0 127 17t85 53.5t48 94t15 138.5v127q-30 -29 -66.5 -55t-78 -45.5t-86.5 -31t-93 -11.5q-101 0 -174 36t-120 104.5t-70 168t-23 226.5
q0 114 24 213t74.5 172.5t128 116t185.5 42.5q83 0 158 -32.5t141 -88.5v91h129v-1026zM840 840q-73 57 -143.5 91t-145.5 34q-76 0 -130.5 -31t-90 -87.5t-52 -135t-16.5 -172.5q0 -79 9 -155.5t38 -136.5t83 -97t143 -37q46 0 88.5 13.5t81 35.5t72.5 49.5t63 54.5v574z
" />
    <glyph glyph-name="h" unicode="h" horiz-adv-x="1137" 
d="M834 0v651q0 89 -8 148t-28 94t-54.5 49t-86.5 14q-69 0 -160 -51.5t-186 -142.5v-762h-129v1489h129v-606q44 41 89 77t91.5 62.5t93.5 41.5t95 15q84 0 139 -25t87 -73.5t44.5 -119t12.5 -161.5v-700h-129z" />
    <glyph glyph-name="i" unicode="i" horiz-adv-x="494" 
d="M338 1305q0 -51 -21.5 -69.5t-70.5 -18.5q-51 0 -70.5 23t-19.5 65q0 45 20 65.5t70 20.5q51 0 71.5 -20t20.5 -66zM182 0v1049h129v-1049h-129z" />
    <glyph glyph-name="j" unicode="j" horiz-adv-x="508" 
d="M350 1305q0 -51 -22 -69.5t-70 -18.5q-53 0 -72.5 23t-19.5 65q0 45 21.5 65.5t70.5 20.5q51 0 71.5 -20t20.5 -66zM322 -55q0 -86 -13.5 -149.5t-46 -106t-87.5 -63.5t-138 -21q-40 0 -86 7.5t-92 22.5l32 107q36 -14 73 -21.5t79 -7.5q43 0 72 14t46 44t24.5 76.5
t7.5 111.5v1090h129v-1104z" />
    <glyph glyph-name="k" unicode="k" horiz-adv-x="1022" 
d="M801 0l-371 489l-119 -131v-358h-129v1489h129v-973l469 533h160l-426 -471l449 -578h-162z" />
    <glyph glyph-name="l" unicode="l" horiz-adv-x="518" 
d="M195 0v1489h129v-1489h-129z" />
    <glyph glyph-name="m" unicode="m" horiz-adv-x="1673" 
d="M1370 0v645q0 94 -6 154.5t-23 95.5t-46.5 48t-75.5 13q-40 0 -77.5 -14t-75.5 -39.5t-77.5 -61t-83.5 -79.5v-762h-129v651q0 93 -7 152.5t-24 93t-47.5 46.5t-76.5 13q-38 0 -77 -16t-78 -43t-78 -62t-77 -73v-762h-129v1049h129v-166q39 42 80 78t82.5 62t84.5 41
t87 15q106 0 167.5 -50.5t80.5 -160.5q44 48 85 87t83.5 66.5t87.5 42.5t96 15q80 0 129.5 -28t77.5 -78.5t37.5 -120t9.5 -152.5v-700h-129z" />
    <glyph glyph-name="n" unicode="n" horiz-adv-x="1137" 
d="M834 0v651q0 88 -8 147t-28 94t-54.5 49.5t-86.5 14.5q-69 0 -160 -51.5t-186 -142.5v-762h-129v1049h129v-166q45 43 90.5 79t92 62t93.5 40.5t95 14.5q84 0 138 -25t86 -73.5t44.5 -119t12.5 -161.5v-700h-129z" />
    <glyph glyph-name="o" unicode="o" horiz-adv-x="1141" 
d="M1012 522q0 -125 -24 -226.5t-77 -174.5t-137 -112.5t-203 -39.5t-203 39.5t-137 112.5t-77.5 174.5t-24.5 226.5q0 122 24 224.5t77 176.5t137 115t204 41q117 0 200.5 -39.5t137 -112.5t78.5 -175.5t25 -229.5zM877 522q0 106 -16 189t-52 140t-94.5 86.5t-143.5 29.5
q-86 0 -145 -30.5t-95.5 -88t-52.5 -140t-16 -186.5t16.5 -186t53 -139t95.5 -87t144 -30q83 0 141.5 29.5t95 86.5t53 139t16.5 187z" />
    <glyph glyph-name="p" unicode="p" horiz-adv-x="1151" 
d="M1022 532q0 -123 -25 -226.5t-76 -178.5t-128.5 -116.5t-182.5 -41.5q-77 0 -153.5 34.5t-145.5 100.5v-499h-129v1444h129v-115q31 31 67.5 58t77 46t84.5 30t89 11q106 0 180.5 -42.5t121.5 -116.5t69 -173.5t22 -214.5zM889 528q0 101 -16.5 182t-51 137.5t-87.5 87
t-126 30.5q-80 0 -154.5 -42.5t-142.5 -111.5v-586q69 -65 143.5 -104t145.5 -39q62 0 115 26t91.5 80.5t60.5 138.5t22 201z" />
    <glyph glyph-name="q" unicode="q" horiz-adv-x="1151" 
d="M840 -395v510q-32 -31 -69.5 -57.5t-78.5 -46t-85 -31t-89 -11.5q-100 0 -173 37t-121 107.5t-71.5 172t-23.5 230.5q0 109 22.5 210.5t71 180t124.5 125.5t183 47q90 0 166 -35t144 -86v91h129v-1444h-129zM840 838q-75 60 -150 93.5t-147 33.5q-65 0 -117 -30.5
t-88.5 -87.5t-56 -139.5t-19.5 -187.5q0 -98 14.5 -179t46.5 -138.5t83.5 -89t125.5 -31.5q43 0 84 12.5t80 33.5t75 49.5t69 60.5v600z" />
    <glyph glyph-name="r" unicode="r" horiz-adv-x="797" 
d="M717 922q-35 14 -76 14q-48 0 -87.5 -12t-77.5 -36t-77.5 -59.5t-87.5 -83.5v-745h-129v1049h129v-181q45 45 85.5 81.5t81 62t82 39.5t87.5 14q29 0 53 -5t45 -16z" />
    <glyph glyph-name="s" unicode="s" horiz-adv-x="973" 
d="M856 268q0 -74 -25.5 -130t-74 -93.5t-118 -56.5t-157.5 -19q-81 0 -142 17.5t-105.5 44.5t-73 59.5t-43.5 63.5l104 65q35 -63 98.5 -101t163.5 -38q52 0 97 8.5t78 29.5t52 56.5t19 89.5q0 42 -12 72.5t-42.5 54t-82.5 42.5t-133 40q-84 22 -144.5 47t-100 60.5
t-58.5 85t-19 120.5q0 58 21.5 111.5t66 93.5t111.5 64t158 24q69 0 123.5 -15t96.5 -40.5t72 -59.5t50 -71l-105 -62q-15 28 -36.5 53t-50 43.5t-65.5 29t-85 10.5q-107 0 -168.5 -47t-61.5 -132q0 -41 11 -70t37 -50.5t70.5 -38.5t111.5 -35q101 -27 170.5 -55t112 -65
t61 -86.5t18.5 -119.5z" />
    <glyph glyph-name="t" unicode="t" horiz-adv-x="723" 
d="M678 2q-40 -14 -89 -23.5t-100 -9.5q-78 0 -131 19.5t-85 61.5t-46 108t-14 159v621h-158v111h158v292h129v-292h276v-111h-276v-606q0 -73 7 -122t24.5 -78t47.5 -41.5t77 -12.5q35 0 76.5 8.5t70.5 19.5z" />
    <glyph glyph-name="u" unicode="u" horiz-adv-x="1137" 
d="M825 0v166q-44 -42 -89.5 -78.5t-92 -62.5t-93 -41t-93.5 -15q-85 0 -139.5 25t-86.5 73.5t-44.5 119t-12.5 161.5v701h129v-654q0 -88 7.5 -146.5t27 -94t53.5 -50t86 -14.5q71 0 161 52t187 145v762h129v-1049h-129z" />
    <glyph glyph-name="v" unicode="v" horiz-adv-x="991" 
d="M563 0h-137l-369 1049h138l303 -891l301 891h133z" />
    <glyph glyph-name="w" unicode="w" horiz-adv-x="1430" 
d="M1104 0h-125l-264 870l-264 -870h-125l-244 1049h133l186 -861l258 861h117l262 -861l181 861h129z" />
    <glyph glyph-name="x" unicode="x" horiz-adv-x="965" 
d="M748 0l-269 432l-276 -432h-144l351 522l-344 527h151l270 -431l273 431h143l-344 -519l344 -530h-155z" />
    <glyph glyph-name="y" unicode="y" horiz-adv-x="1018" 
d="M41 -256q25 -14 61 -21.5t70 -7.5q75 0 129 59.5t98 176.5l41 104l-383 994h140l311 -832l315 832h138l-453 -1147q-32 -81 -67.5 -138t-76.5 -92t-89 -51t-105 -16q-21 0 -44.5 2t-46 6t-42 9.5t-33.5 12.5z" />
    <glyph glyph-name="z" unicode="z" horiz-adv-x="936" 
d="M94 0v98l576 840h-564v111h719v-97l-577 -841h594v-111h-748z" />
    <glyph glyph-name="braceleft" unicode="{" horiz-adv-x="975" 
d="M815 -395q-91 0 -162.5 23.5t-121 70t-75.5 115.5t-26 159v170q0 88 -16 156.5t-52 114.5t-95 70t-146 24h-19v110h19q85 0 144 22.5t95.5 68t53 113.5t16.5 159v170q0 87 27.5 155.5t78 116t121.5 72.5t158 25h59v-105h-47q-137 0 -206.5 -71t-69.5 -211v-175
q0 -173 -70.5 -267.5t-199.5 -129.5q129 -32 199.5 -127t70.5 -268v-176q0 -142 64.5 -212.5t211.5 -70.5h47v-102h-59z" />
    <glyph glyph-name="bar" unicode="|" horiz-adv-x="850" 
d="M367 -395v1915h116v-1915h-116z" />
    <glyph glyph-name="braceright" unicode="}" horiz-adv-x="975" 
d="M100 -395v102h45q148 0 213.5 70.5t65.5 212.5v176q0 173 69.5 268t200.5 127q-129 35 -199.5 129.5t-70.5 267.5v175q0 140 -69.5 211t-209.5 71h-45v105h60q90 0 161 -25.5t120.5 -73.5t75.5 -116.5t26 -153.5v-170q0 -91 16.5 -159t53 -113.5t96 -68t145.5 -22.5h18
v-110h-18q-87 0 -146.5 -24t-96 -70t-52.5 -114.5t-16 -156.5v-170q0 -90 -26 -159t-75 -115.5t-120.5 -70t-161.5 -23.5h-60z" />
    <glyph glyph-name="asciitilde" unicode="~" horiz-adv-x="1427" 
d="M164 756q85 68 159 98.5t136 30.5q61 0 127.5 -24.5t134 -54.5t132.5 -54.5t122 -24.5q39 0 75.5 11t72 29.5t70.5 44.5t71 56v-129q-29 -22 -60.5 -44t-67 -39.5t-75 -28.5t-84.5 -11q-40 0 -84.5 11.5t-91 29.5t-93.5 38t-91.5 38t-84.5 29.5t-73 11.5q-41 0 -78.5 -11
t-73.5 -30.5t-71 -45.5t-72 -56v125z" />
    <glyph glyph-name="uni00A0" unicode="&#xa0;" horiz-adv-x="539" 
 />
    <glyph glyph-name="exclamdown" unicode="&#xa1;" horiz-adv-x="541" 
d="M215 698h107l22 -1093h-149zM168 987q0 51 25.5 71.5t76.5 20.5q30 0 49.5 -6.5t31 -18.5t16 -29t4.5 -38q0 -49 -22.5 -70.5t-78.5 -21.5q-55 0 -78.5 21.5t-23.5 70.5z" />
    <glyph glyph-name="cent" unicode="&#xa2;" horiz-adv-x="1016" 
d="M350 -260l53 254q-76 24 -128 73.5t-84.5 118t-47 153.5t-14.5 181q0 128 24.5 231.5t77 176t135 112t199.5 39.5q33 0 68 -6l45 215h98l-51 -237q60 -22 106.5 -64.5t81.5 -107.5l-106 -64q-23 42 -49 71t-58 48l-180 -852q11 0 23 -1t24 -1q49 0 86.5 10.5t67.5 30.5
t54 48.5t46 63.5l105 -65q-25 -47 -58 -84t-77 -62.5t-99.5 -39t-124.5 -13.5q-18 0 -36 1t-35 3l-50 -233h-96zM262 516q0 -152 37.5 -257t128.5 -150l180 854q-12 3 -24.5 3.5t-24.5 0.5q-155 0 -226 -114t-71 -337z" />
    <glyph glyph-name="sterling" unicode="&#xa3;" horiz-adv-x="1255" 
d="M119 0v117q54 11 91 55.5t60.5 109.5t34 144.5t10.5 161.5h-172v104h168q-2 32 -12.5 68.5t-22 79t-21 92t-9.5 106.5q0 94 35 164t96.5 117t143.5 70.5t177 23.5q63 0 121.5 -11.5t111 -36.5t97.5 -65t82 -98l-111 -72q-47 74 -122.5 121t-178.5 47q-77 0 -135.5 -19.5
t-98 -55.5t-59.5 -86t-20 -111q0 -46 8.5 -91t20 -87t22 -81.5t13.5 -74.5h378v-104h-374q0 -164 -40.5 -286t-127.5 -185h850v-117h-1016z" />
    <glyph glyph-name="currency" unicode="&#xa4;" horiz-adv-x="1255" 
d="M211 98l-72 70l189 190q-39 50 -58.5 108t-19.5 120t18.5 120.5t57.5 106.5l-189 191l72 71l188 -188q51 40 109.5 60t120.5 20t120 -19t109 -59l188 186l72 -71l-186 -189q40 -51 59 -109t19 -120t-21 -119.5t-59 -108.5l186 -190l-70 -70l-190 187q-53 -41 -109 -58.5
t-118 -17.5t-119.5 19.5t-108.5 56.5zM897 586q0 55 -20.5 104.5t-56.5 86.5t-85.5 59t-107.5 22q-57 0 -105.5 -21.5t-84 -58.5t-55.5 -86.5t-20 -105.5t20.5 -104.5t56 -85.5t84 -58t104.5 -21q57 0 106 21t85.5 58t57.5 85.5t21 104.5z" />
    <glyph glyph-name="yen" unicode="&#xa5;" horiz-adv-x="1255" 
d="M768 717h352v-99h-407l-19 -28v-135h426v-97h-426v-358h-135v358h-422v97h422v131l-20 32h-402v99h348l-409 667h151l404 -667l401 667h148z" />
    <glyph glyph-name="brokenbar" unicode="&#xa6;" horiz-adv-x="850" 
d="M367 903v617h116v-617h-116zM367 -395v616h116v-616h-116z" />
    <glyph glyph-name="section" unicode="&#xa7;" horiz-adv-x="1067" 
d="M950 498q0 -49 -14 -90t-44.5 -79t-79.5 -75.5t-118 -79.5q55 -36 92.5 -68.5t60.5 -64t32.5 -63.5t9.5 -66q0 -71 -27 -123t-76.5 -87t-119 -52t-154.5 -17q-127 0 -220.5 39t-144.5 105l97 76q32 -35 66.5 -56.5t69 -33.5t67 -16.5t61.5 -4.5q67 0 113.5 11t76 32
t43 52t13.5 71q0 32 -13 59t-46.5 56.5t-92 66t-149.5 88.5q-75 42 -137 84t-106.5 86.5t-68.5 92.5t-24 104q0 52 19 97t53.5 85t82 75.5t103.5 69.5q-51 34 -86.5 65t-58.5 62.5t-33.5 64.5t-10.5 71q0 60 23 111t69 88t116 58t165 21q67 0 122.5 -10t100.5 -29
t80.5 -45.5t63.5 -60.5l-99 -76q-17 22 -42 42t-58 35.5t-74 24.5t-90 9q-118 0 -179.5 -39.5t-61.5 -124.5q0 -31 11 -57t43.5 -55.5t90.5 -67t151 -91.5q82 -47 144 -89t104 -85.5t63 -91t21 -104.5zM819 489q0 41 -18 75.5t-58.5 71.5t-106.5 79t-163 98
q-47 -29 -88.5 -59t-72 -61.5t-48.5 -66.5t-18 -75t21.5 -75.5t65 -72t109 -77t154.5 -90.5q62 38 104.5 69t69 60t38 58.5t11.5 65.5z" />
    <glyph glyph-name="dieresis" unicode="&#xa8;" horiz-adv-x="1106" 
d="M829 1300q0 -48 -19.5 -69t-70.5 -21q-53 0 -70.5 25t-17.5 65q0 45 18.5 67t69.5 22q54 0 72 -21t18 -68zM459 1300q0 -48 -19.5 -69t-70.5 -21q-27 0 -44 6.5t-27 18.5t-13.5 28.5t-3.5 36.5q0 45 18.5 67t69.5 22q53 0 71.5 -21.5t18.5 -67.5z" />
    <glyph glyph-name="copyright" unicode="&#xa9;" horiz-adv-x="1882" 
d="M940 -197q-115 0 -219.5 29t-194 81.5t-162 126t-123.5 163t-78.5 192.5t-27.5 215q0 115 29 219.5t81 193.5t126 161t163 123t192 78.5t214 27.5q116 0 220.5 -28.5t193.5 -81t161 -126t122.5 -162.5t78 -191.5t27.5 -213.5q0 -116 -28.5 -220.5t-81 -194.5
t-125.5 -162.5t-162.5 -123.5t-192 -78.5t-213.5 -27.5zM940 -96q97 0 186.5 25.5t167 71.5t141 110.5t109 143t70 168.5t24.5 187q0 145 -54.5 273t-149 223.5t-221.5 151t-273 55.5q-97 0 -186.5 -25t-167 -70.5t-141 -109.5t-109 -142t-70 -168t-24.5 -188t24.5 -188
t70 -168.5t109 -143t141 -110.5t167 -71t186.5 -25zM956 170q-188 0 -280 109t-92 333q0 214 92 329.5t280 115.5q61 0 110.5 -15t88 -39.5t65.5 -57t44 -66.5l-95 -58q-13 26 -31 51t-43.5 44t-60 30.5t-80.5 11.5q-70 0 -118.5 -22.5t-79 -66.5t-44.5 -108.5t-14 -148.5
q0 -86 14 -150.5t44.5 -107.5t79 -64.5t116.5 -21.5q45 0 81 11.5t64 32t49 47.5t36 59l94 -53q-18 -38 -45.5 -73t-66 -62t-90 -43.5t-118.5 -16.5z" />
    <glyph glyph-name="ordfeminine" unicode="&#xaa;" horiz-adv-x="754" 
d="M524 711v88q-25 -21 -51.5 -40.5t-55 -34t-59 -23.5t-63.5 -9q-52 0 -90.5 15.5t-63.5 44t-37 67.5t-12 86q0 66 21.5 109t57 69t81.5 38.5t94 17.5l178 12v31q0 76 -40 107.5t-132 31.5q-36 0 -63.5 -7.5t-48 -19.5t-35 -27.5t-23.5 -31.5l-84 51q16 26 38.5 49
t53.5 40.5t71.5 27.5t92.5 10q73 0 125 -12.5t85.5 -41t49 -75t15.5 -113.5v-460h-105zM524 1065l-139 -12q-91 -7 -137.5 -39.5t-46.5 -106.5q0 -62 25 -92.5t91 -30.5q28 0 55.5 11t53.5 28t51 36.5t47 37.5v168z" />
    <glyph glyph-name="guillemotleft" unicode="&#xab;" horiz-adv-x="1118" 
d="M903 53l-379 471l379 471h146l-379 -471l379 -471h-146zM457 53l-381 471l381 471h145l-381 -471l381 -471h-145z" />
    <glyph glyph-name="logicalnot" unicode="&#xac;" horiz-adv-x="1427" 
d="M1139 360v455h-961v111h1069v-566h-108z" />
    <glyph glyph-name="uni00AD" unicode="&#xad;" horiz-adv-x="848" 
d="M113 463v127h622v-127h-622z" />
    <glyph glyph-name="registered" unicode="&#xae;" horiz-adv-x="1882" 
d="M940 -197q-115 0 -219.5 29t-194 81.5t-162 126t-123.5 163t-78.5 192.5t-27.5 215q0 115 29 219.5t81 193.5t126 161t163 123t192 78.5t214 27.5q116 0 220.5 -28.5t193.5 -81t161 -126t122.5 -162.5t78 -191.5t27.5 -213.5q0 -116 -28.5 -220.5t-81 -194.5
t-125.5 -162.5t-162.5 -123.5t-192 -78.5t-213.5 -27.5zM940 -96q97 0 186.5 25.5t167 71.5t141 110.5t109 143t70 168.5t24.5 187q0 145 -54.5 273t-149 223.5t-221.5 151t-273 55.5q-97 0 -186.5 -25t-167 -70.5t-141 -109.5t-109 -142t-70 -168t-24.5 -188t24.5 -188
t70 -168.5t109 -143t141 -110.5t167 -71t186.5 -25zM668 201v850h264q74 0 130 -13t93.5 -42t56.5 -75t19 -112q0 -57 -13.5 -99t-37.5 -71.5t-58 -48t-75 -27.5l231 -362h-131l-219 350h-150v-350h-110zM778 647h156q49 0 83.5 8.5t56 27t31 49t9.5 75.5q0 81 -44 114
t-142 33h-150v-307z" />
    <glyph glyph-name="macron" unicode="&#xaf;" horiz-adv-x="1106" 
d="M262 1255v111h580v-111h-580z" />
    <glyph glyph-name="degree" unicode="&#xb0;" horiz-adv-x="862" 
d="M696 1241q0 -56 -21.5 -105t-57.5 -85t-84 -57t-101 -21q-54 0 -102.5 21t-85 57t-57.5 85t-21 105q0 54 21 102t57 83.5t84 56t102 20.5q56 0 104.5 -21t84.5 -56.5t56.5 -83t20.5 -101.5zM598 1239q0 34 -12.5 64.5t-35 53t-53 35.5t-65.5 13q-36 0 -67 -13.5
t-53.5 -36t-35 -52.5t-12.5 -62q0 -35 13 -66t35.5 -54t53.5 -36.5t66 -13.5t65.5 13.5t53 36t35 53t12.5 65.5z" />
    <glyph glyph-name="plusminus" unicode="&#xb1;" horiz-adv-x="1427" 
d="M766 799v-482h-111v482h-477v110h477v477h111v-477h481v-110h-481zM178 0v111h1069v-111h-1069z" />
    <glyph glyph-name="twosuperior" unicode="&#xb2;" horiz-adv-x="883" 
d="M125 670v106q42 31 88 66.5t90.5 70.5t84 68t67.5 59q47 37 77.5 67t48 57.5t24.5 55.5t7 62q0 66 -44 101.5t-138 35.5q-78 0 -127.5 -32.5t-83.5 -88.5l-98 62q17 28 42 57t62.5 52.5t88.5 38t120 14.5q66 0 122 -13.5t97.5 -42t64.5 -73.5t23 -109q0 -46 -12 -85
t-30.5 -71t-41 -57t-43.5 -43q-71 -60 -151 -122.5t-180 -133.5h491v-102h-649z" />
    <glyph glyph-name="threesuperior" unicode="&#xb3;" horiz-adv-x="883" 
d="M739 907q0 -129 -87.5 -196.5t-243.5 -67.5q-43 0 -87.5 8.5t-85 25.5t-75 43.5t-58.5 61.5l97 62q35 -47 90.5 -74t113.5 -27q106 0 156.5 43.5t50.5 124.5q0 75 -46.5 112.5t-155.5 37.5h-93v100h80q105 0 154 38t49 97q0 57 -43.5 91t-134.5 34q-72 0 -123 -25
t-92 -83l-96 57q19 31 47 58.5t66.5 48.5t88.5 33t113 12q80 0 137.5 -17t94 -46t54 -68.5t17.5 -85.5q0 -65 -38 -114.5t-114 -72.5q75 -21 119.5 -75t44.5 -136z" />
    <glyph glyph-name="acute" unicode="&#xb4;" horiz-adv-x="1106" 
d="M559 1208h-104l186 361h178z" />
    <glyph glyph-name="mu" unicode="&#xb5;" horiz-adv-x="1141" 
d="M967 0h-121l-10 123q-28 -35 -57.5 -63t-63.5 -48.5t-72.5 -31.5t-83.5 -11q-40 0 -74.5 5t-66 16.5t-61 30t-60.5 45.5v-461h-131v1444h131v-832q51 -59 117.5 -92t146.5 -33q76 0 146 42t129 120v795h131v-1049z" />
    <glyph glyph-name="paragraph" unicode="&#xb6;" horiz-adv-x="1225" 
d="M958 1382v-1777h-122v1777h-211v-1777h-123v1059q-75 0 -152 23t-139.5 72.5t-102.5 128.5t-40 191q0 94 35 169.5t97 129t146.5 82.5t183.5 29h623v-107h-195z" />
    <glyph glyph-name="periodcentered" unicode="&#xb7;" horiz-adv-x="541" 
d="M369 745q0 -52 -25 -72t-76 -20q-55 0 -75.5 24.5t-20.5 67.5q0 50 22 71.5t74 21.5q54 0 77.5 -21.5t23.5 -71.5z" />
    <glyph glyph-name="cedilla" unicode="&#xb8;" horiz-adv-x="1106" 
d="M737 -213q0 -45 -18.5 -79.5t-51.5 -57t-77.5 -34t-95.5 -11.5q-32 0 -66 4.5t-65.5 11t-57 15t-39.5 16.5l39 80q18 -7 40.5 -13.5t47.5 -12t51 -8.5t52 -3q68 0 102.5 25t34.5 71q0 29 -14 50t-39 35.5t-59.5 22t-76.5 9.5l56 106h86l-25 -49q90 -18 133 -63.5
t43 -114.5z" />
    <glyph glyph-name="onesuperior" unicode="&#xb9;" horiz-adv-x="883" 
d="M424 670v649q-42 -34 -104.5 -52t-137.5 -18v88q61 2 106.5 15t78.5 35.5t53.5 52.5t30.5 67h92v-837h-119z" />
    <glyph glyph-name="ordmasculine" unicode="&#xba;" horiz-adv-x="817" 
d="M709 1051q0 -77 -16 -142.5t-51.5 -113.5t-92.5 -75.5t-139 -27.5q-83 0 -141 27.5t-94 75.5t-52.5 113.5t-16.5 142.5q0 78 16 144.5t52 115t94 75.5t142 27q82 0 139 -28t92.5 -76.5t51.5 -115t16 -142.5zM600 1051q0 54 -7.5 102.5t-28.5 86t-58.5 59.5t-97.5 22
q-62 0 -99.5 -22t-57.5 -59.5t-27 -86t-7 -102.5t7 -102.5t27.5 -85t58 -58t98.5 -21.5q60 0 97.5 21.5t58.5 58t28.5 85t7.5 102.5z" />
    <glyph glyph-name="guillemotright" unicode="&#xbb;" horiz-adv-x="1118" 
d="M662 53h-146l381 471l-381 471h146l380 -471zM215 53h-145l379 471l-379 471h145l379 -471z" />
    <glyph glyph-name="onequarter" unicode="&#xbc;" horiz-adv-x="1870" 
d="M576 -51h-119l801 1487h122zM413 554v649q-42 -34 -104.5 -52t-137.5 -18v88q61 2 106.5 15t78.5 35.5t53.5 52.5t30.5 67h92v-837h-119zM1618 185v-190h-119v190h-471v96l495 549h95v-547h133v-98h-133zM1499 654l-334 -371h334v371z" />
    <glyph glyph-name="onehalf" unicode="&#xbd;" horiz-adv-x="1870" 
d="M492 -51h-119l801 1487h122zM339 554v649q-42 -34 -104.5 -52t-137.5 -18v88q61 2 106.5 15t78.5 35.5t53.5 52.5t30.5 67h92v-837h-119zM1098 -7v106q42 31 88 66.5t90.5 70.5t84 68t67.5 59q47 37 77.5 67t48 57.5t24.5 55.5t7 62q0 66 -44 101.5t-138 35.5
q-78 0 -127.5 -32.5t-83.5 -88.5l-98 62q17 28 42 57t62.5 52.5t88.5 38t120 14.5q66 0 122 -13.5t97.5 -42t64.5 -73.5t23 -109q0 -46 -12 -85t-30.5 -71t-41 -57t-43.5 -43q-71 -60 -151 -122.5t-180 -133.5h491v-102h-649z" />
    <glyph glyph-name="threequarters" unicode="&#xbe;" horiz-adv-x="1870" 
d="M680 -51h-119l801 1487h122zM1678 183v-190h-119v190h-471v96l495 549h95v-547h133v-98h-133zM1559 652l-334 -371h334v371zM770 791q0 -129 -87.5 -196.5t-243.5 -67.5q-43 0 -87.5 8.5t-85 25.5t-75 43.5t-58.5 61.5l97 62q35 -47 90.5 -74t113.5 -27q106 0 156.5 43.5
t50.5 124.5q0 75 -46.5 112.5t-155.5 37.5h-93v100h80q105 0 154 38t49 97q0 57 -43.5 91t-134.5 34q-72 0 -123 -25t-92 -83l-96 57q19 31 47 58.5t66.5 48.5t88.5 33t113 12q80 0 137.5 -17t94 -46t54 -68.5t17.5 -85.5q0 -65 -38 -114.5t-114 -72.5q75 -21 119.5 -75
t44.5 -136z" />
    <glyph glyph-name="questiondown" unicode="&#xbf;" horiz-adv-x="1036" 
d="M707 983q0 -49 -23.5 -70.5t-77.5 -21.5q-57 0 -79.5 21.5t-22.5 70.5q0 53 25 72.5t77 19.5q58 0 79.5 -24.5t21.5 -67.5zM950 -209q-21 -38 -56.5 -72t-84 -59.5t-110 -40t-136.5 -14.5q-93 0 -173 22t-138.5 67.5t-91.5 114.5t-33 164q0 89 29 160t83 132t130.5 115
t171.5 109v218h131v-275q-115 -65 -192.5 -118.5t-124 -105t-66 -105.5t-19.5 -121q0 -121 74 -188.5t217 -67.5q58 0 103.5 11.5t80 30.5t58.5 44t39 51z" />
    <glyph glyph-name="Agrave" unicode="&#xc0;" horiz-adv-x="1264" 
d="M63 0l480 1384h174l483 -1384h-147l-135 399h-578l-135 -399h-142zM381 522h493l-247 731zM629 1544l-258 361h176l186 -361h-104z" />
    <glyph glyph-name="Aacute" unicode="&#xc1;" horiz-adv-x="1264" 
d="M63 0l480 1384h174l483 -1384h-147l-135 399h-578l-135 -399h-142zM381 522h493l-247 731zM639 1544h-104l186 361h178z" />
    <glyph glyph-name="Acircumflex" unicode="&#xc2;" horiz-adv-x="1264" 
d="M63 0l480 1384h174l483 -1384h-147l-135 399h-578l-135 -399h-142zM381 522h493l-247 731zM830 1544l-203 265l-203 -265h-110l229 361h168l229 -361h-110z" />
    <glyph glyph-name="Atilde" unicode="&#xc3;" horiz-adv-x="1264" 
d="M63 0l480 1384h174l483 -1384h-147l-135 399h-578l-135 -399h-142zM381 522h493l-247 731zM266 1550q5 118 60 177t149 59q37 0 68 -10.5t57 -26.5t49 -34.5t45 -34.5t44.5 -26.5t48.5 -10.5q51 0 77 32t31 101h94q-3 -115 -58.5 -174.5t-149.5 -59.5q-43 0 -74.5 11
t-56.5 27t-45.5 35t-41.5 35t-44.5 27t-53.5 11q-51 0 -75 -34t-29 -104h-95z" />
    <glyph glyph-name="Adieresis" unicode="&#xc4;" horiz-adv-x="1264" 
d="M63 0l480 1384h174l483 -1384h-147l-135 399h-578l-135 -399h-142zM381 522h493l-247 731zM905 1636q0 -48 -19.5 -69t-70.5 -21q-53 0 -70.5 25t-17.5 65q0 45 18.5 67t69.5 22q54 0 72 -21t18 -68zM535 1636q0 -48 -19.5 -69t-70.5 -21q-27 0 -44 6.5t-27 18.5
t-13.5 28.5t-3.5 36.5q0 45 18.5 67t69.5 22q53 0 71.5 -21.5t18.5 -67.5z" />
    <glyph glyph-name="Aring" unicode="&#xc5;" horiz-adv-x="1264" 
d="M63 0l480 1384h174l483 -1384h-147l-135 399h-578l-135 -399h-142zM381 522h493l-247 731zM811 1677q0 -40 -11 -73t-33.5 -57t-56.5 -37t-81 -13q-49 0 -83.5 14t-56 38.5t-31 57t-9.5 70.5q0 39 10.5 72.5t32.5 57.5t56 37.5t81 13.5q94 0 138 -49.5t44 -131.5z
M729 1677q0 103 -100 103q-48 0 -74 -26.5t-26 -76.5q0 -46 22 -75t78 -29q54 0 77 27.5t23 76.5z" />
    <glyph glyph-name="AE" unicode="&#xc6;" horiz-adv-x="1714" 
d="M819 0v393h-477l-145 -393h-140l521 1384h999v-122h-623v-467h555v-123h-555v-549h623v-123h-758zM819 1262h-157l-275 -746h432v746z" />
    <glyph glyph-name="Ccedilla" unicode="&#xc7;" horiz-adv-x="1315" 
d="M930 -209q0 -45 -19 -79.5t-52 -57t-77.5 -34t-95.5 -11.5q-32 0 -65.5 4.5t-64.5 11t-56.5 15t-40.5 16.5l39 80q37 -14 88 -25.5t102 -11.5q69 0 103 25t34 71q0 29 -13.5 50t-38.5 35.5t-59 22t-75 9.5l31 61q-271 19 -398 199.5t-127 519.5q0 176 34 310.5t105 226
t180.5 138t260.5 46.5q97 0 173 -19t133.5 -54t100 -84t74.5 -109l-116 -74q-26 48 -58 87.5t-75.5 68.5t-100 45t-131.5 16q-118 0 -201 -39.5t-135 -116t-76 -187.5t-24 -255t24 -255t77 -187.5t137 -116t204 -39.5q84 0 145.5 20t105.5 52t74.5 71.5t53.5 79.5l115 -71
q-32 -58 -73 -107t-96.5 -86t-129.5 -58.5t-172 -23.5v-2q89 -18 132.5 -63.5t43.5 -114.5z" />
    <glyph glyph-name="Egrave" unicode="&#xc8;" horiz-adv-x="1155" 
d="M199 0v1384h819v-122h-684v-467h588v-123h-588v-549h684v-123h-819zM615 1544l-258 361h176l186 -361h-104z" />
    <glyph glyph-name="Eacute" unicode="&#xc9;" horiz-adv-x="1155" 
d="M199 0v1384h819v-122h-684v-467h588v-123h-588v-549h684v-123h-819zM602 1544h-104l186 361h178z" />
    <glyph glyph-name="Ecircumflex" unicode="&#xca;" horiz-adv-x="1155" 
d="M199 0v1384h819v-122h-684v-467h588v-123h-588v-549h684v-123h-819zM807 1544l-203 265l-203 -265h-110l229 361h168l229 -361h-110z" />
    <glyph glyph-name="Edieresis" unicode="&#xcb;" horiz-adv-x="1155" 
d="M199 0v1384h819v-122h-684v-467h588v-123h-588v-549h684v-123h-819zM878 1636q0 -48 -19.5 -69t-70.5 -21q-53 0 -70.5 25t-17.5 65q0 45 18.5 67t69.5 22q54 0 72 -21t18 -68zM508 1636q0 -48 -19.5 -69t-70.5 -21q-27 0 -44 6.5t-27 18.5t-13.5 28.5t-3.5 36.5
q0 45 18.5 67t69.5 22q53 0 71.5 -21.5t18.5 -67.5z" />
    <glyph glyph-name="Igrave" unicode="&#xcc;" horiz-adv-x="719" 
d="M616 0h-514v119h189v1147h-189v118h514v-118h-190v-1147h190v-119zM349 1544l-258 361h176l186 -361h-104z" />
    <glyph glyph-name="Iacute" unicode="&#xcd;" horiz-adv-x="719" 
d="M616 0h-514v119h189v1147h-189v118h514v-118h-190v-1147h190v-119zM384 1544h-104l186 361h178z" />
    <glyph glyph-name="Icircumflex" unicode="&#xce;" horiz-adv-x="719" 
d="M616 0h-514v119h189v1147h-189v118h514v-118h-190v-1147h190v-119zM564 1544l-203 265l-203 -265h-110l229 361h168l229 -361h-110z" />
    <glyph glyph-name="Idieresis" unicode="&#xcf;" horiz-adv-x="719" 
d="M616 0h-514v119h189v1147h-189v118h514v-118h-190v-1147h190v-119zM640 1636q0 -48 -19.5 -69t-70.5 -21q-53 0 -70.5 25t-17.5 65q0 45 18.5 67t69.5 22q54 0 72 -21t18 -68zM270 1636q0 -48 -19.5 -69t-70.5 -21q-27 0 -44 6.5t-27 18.5t-13.5 28.5t-3.5 36.5
q0 45 18.5 67t69.5 22q53 0 71.5 -21.5t18.5 -67.5z" />
    <glyph glyph-name="Eth" unicode="&#xd0;" horiz-adv-x="1325" 
d="M1184 692q0 -203 -43 -336.5t-127 -212.5t-207 -111t-283 -32h-331v641h-130v109h130v634h331q169 0 293.5 -35t206 -116t121 -213.5t39.5 -327.5zM1040 694q0 157 -28 265.5t-91 176t-163.5 97t-245.5 29.5h-184v-512h338v-109h-338v-518h184q142 0 242.5 28.5t164 95.5
t92.5 176.5t29 270.5z" />
    <glyph glyph-name="Ntilde" unicode="&#xd1;" horiz-adv-x="1374" 
d="M1016 0l-686 1235v-1235h-131v1384h196l647 -1165v1165h134v-1384h-160zM315 1570q5 118 60 177t149 59q37 0 68 -10.5t57 -26.5t49 -34.5t45 -34.5t44.5 -26.5t48.5 -10.5q51 0 77 32t31 101h94q-3 -115 -58.5 -174.5t-149.5 -59.5q-43 0 -74.5 11t-56.5 27t-45.5 35
t-41.5 35t-44.5 27t-53.5 11q-51 0 -75 -34t-29 -104h-95z" />
    <glyph glyph-name="Ograve" unicode="&#xd2;" horiz-adv-x="1364" 
d="M1229 692q0 -167 -29 -300.5t-94 -227t-169.5 -143.5t-254.5 -50t-254 50t-169 144t-94.5 227t-29.5 300q0 166 29.5 299.5t94.5 227t169 144t254 50.5t254.5 -50t169.5 -143t94 -226.5t29 -301.5zM1083 692q0 144 -21 255.5t-68 187.5t-124 115.5t-188 39.5
q-112 0 -189 -39t-124.5 -115t-68.5 -187.5t-21 -256.5q0 -144 21 -255t68.5 -187.5t124.5 -116t189 -39.5q111 0 188 39.5t124 115.5t68 187.5t21 255.5zM719 1544l-258 361h176l186 -361h-104z" />
    <glyph glyph-name="Oacute" unicode="&#xd3;" horiz-adv-x="1364" 
d="M1229 692q0 -167 -29 -300.5t-94 -227t-169.5 -143.5t-254.5 -50t-254 50t-169 144t-94.5 227t-29.5 300q0 166 29.5 299.5t94.5 227t169 144t254 50.5t254.5 -50t169.5 -143t94 -226.5t29 -301.5zM1083 692q0 144 -21 255.5t-68 187.5t-124 115.5t-188 39.5
q-112 0 -189 -39t-124.5 -115t-68.5 -187.5t-21 -256.5q0 -144 21 -255t68.5 -187.5t124.5 -116t189 -39.5q111 0 188 39.5t124 115.5t68 187.5t21 255.5zM690 1544h-104l186 361h178z" />
    <glyph glyph-name="Ocircumflex" unicode="&#xd4;" horiz-adv-x="1364" 
d="M1229 692q0 -167 -29 -300.5t-94 -227t-169.5 -143.5t-254.5 -50t-254 50t-169 144t-94.5 227t-29.5 300q0 166 29.5 299.5t94.5 227t169 144t254 50.5t254.5 -50t169.5 -143t94 -226.5t29 -301.5zM1083 692q0 144 -21 255.5t-68 187.5t-124 115.5t-188 39.5
q-112 0 -189 -39t-124.5 -115t-68.5 -187.5t-21 -256.5q0 -144 21 -255t68.5 -187.5t124.5 -116t189 -39.5q111 0 188 39.5t124 115.5t68 187.5t21 255.5zM885 1544l-203 265l-203 -265h-110l229 361h168l229 -361h-110z" />
    <glyph glyph-name="Otilde" unicode="&#xd5;" horiz-adv-x="1364" 
d="M1229 692q0 -167 -29 -300.5t-94 -227t-169.5 -143.5t-254.5 -50t-254 50t-169 144t-94.5 227t-29.5 300q0 166 29.5 299.5t94.5 227t169 144t254 50.5t254.5 -50t169.5 -143t94 -226.5t29 -301.5zM1083 692q0 144 -21 255.5t-68 187.5t-124 115.5t-188 39.5
q-112 0 -189 -39t-124.5 -115t-68.5 -187.5t-21 -256.5q0 -144 21 -255t68.5 -187.5t124.5 -116t189 -39.5q111 0 188 39.5t124 115.5t68 187.5t21 255.5zM321 1550q5 118 60 177t149 59q37 0 68 -10.5t57 -26.5t49 -34.5t45 -34.5t44.5 -26.5t48.5 -10.5q51 0 77 32t31 101
h94q-3 -115 -58.5 -174.5t-149.5 -59.5q-43 0 -74.5 11t-56.5 27t-45.5 35t-41.5 35t-44.5 27t-53.5 11q-51 0 -75 -34t-29 -104h-95z" />
    <glyph glyph-name="Odieresis" unicode="&#xd6;" horiz-adv-x="1364" 
d="M1229 692q0 -167 -29 -300.5t-94 -227t-169.5 -143.5t-254.5 -50t-254 50t-169 144t-94.5 227t-29.5 300q0 166 29.5 299.5t94.5 227t169 144t254 50.5t254.5 -50t169.5 -143t94 -226.5t29 -301.5zM1083 692q0 144 -21 255.5t-68 187.5t-124 115.5t-188 39.5
q-112 0 -189 -39t-124.5 -115t-68.5 -187.5t-21 -256.5q0 -144 21 -255t68.5 -187.5t124.5 -116t189 -39.5q111 0 188 39.5t124 115.5t68 187.5t21 255.5zM960 1636q0 -48 -19.5 -69t-70.5 -21q-53 0 -70.5 25t-17.5 65q0 45 18.5 67t69.5 22q54 0 72 -21t18 -68zM590 1636
q0 -48 -19.5 -69t-70.5 -21q-27 0 -44 6.5t-27 18.5t-13.5 28.5t-3.5 36.5q0 45 18.5 67t69.5 22q53 0 71.5 -21.5t18.5 -67.5z" />
    <glyph glyph-name="multiply" unicode="&#xd7;" horiz-adv-x="1427" 
d="M1102 119l-391 391l-389 -391l-80 78l391 391l-391 393l80 78l389 -393l391 393l78 -78l-392 -393l392 -391z" />
    <glyph glyph-name="Oslash" unicode="&#xd8;" horiz-adv-x="1364" 
d="M63 -115l195 281q-66 93 -94.5 225.5t-28.5 300.5q0 166 29.5 299.5t94.5 227t169 144t254 50.5q118 0 206.5 -31t151.5 -90l140 197h116l-190 -272q65 -94 94 -226t29 -299t-29 -300.5t-94 -227t-169.5 -143.5t-254.5 -50q-118 0 -206.5 30.5t-151.5 90.5l-144 -207
h-117zM1083 692q0 124 -16 222.5t-51 172.5l-615 -882q51 -56 118 -83.5t163 -27.5q111 0 188 39.5t124 115.5t68 187.5t21 255.5zM279 692q0 -127 16 -226.5t51 -174.5l617 887q-48 55 -117.5 83.5t-163.5 28.5q-112 0 -189 -39t-124.5 -115t-68.5 -187.5t-21 -256.5z" />
    <glyph glyph-name="Ugrave" unicode="&#xd9;" horiz-adv-x="1378" 
d="M1184 578q0 -170 -26 -286.5t-84.5 -188t-152.5 -103t-229 -31.5q-141 0 -237 32.5t-154 105t-83 188.5t-25 283v806h135v-786q0 -144 17 -241t59 -156.5t111.5 -85t174.5 -25.5q106 0 175.5 25.5t110 85t57 156t16.5 237.5v790h135v-806zM703 1544l-258 361h176
l186 -361h-104z" />
    <glyph glyph-name="Uacute" unicode="&#xda;" horiz-adv-x="1378" 
d="M1184 578q0 -170 -26 -286.5t-84.5 -188t-152.5 -103t-229 -31.5q-141 0 -237 32.5t-154 105t-83 188.5t-25 283v806h135v-786q0 -144 17 -241t59 -156.5t111.5 -85t174.5 -25.5q106 0 175.5 25.5t110 85t57 156t16.5 237.5v790h135v-806zM711 1544h-104l186 361h178z
" />
    <glyph glyph-name="Ucircumflex" unicode="&#xdb;" horiz-adv-x="1378" 
d="M1184 578q0 -170 -26 -286.5t-84.5 -188t-152.5 -103t-229 -31.5q-141 0 -237 32.5t-154 105t-83 188.5t-25 283v806h135v-786q0 -144 17 -241t59 -156.5t111.5 -85t174.5 -25.5q106 0 175.5 25.5t110 85t57 156t16.5 237.5v790h135v-806zM895 1544l-203 265l-203 -265
h-110l229 361h168l229 -361h-110z" />
    <glyph glyph-name="Udieresis" unicode="&#xdc;" horiz-adv-x="1378" 
d="M1184 578q0 -170 -26 -286.5t-84.5 -188t-152.5 -103t-229 -31.5q-141 0 -237 32.5t-154 105t-83 188.5t-25 283v806h135v-786q0 -144 17 -241t59 -156.5t111.5 -85t174.5 -25.5q106 0 175.5 25.5t110 85t57 156t16.5 237.5v790h135v-806zM968 1636q0 -48 -19.5 -69
t-70.5 -21q-53 0 -70.5 25t-17.5 65q0 45 18.5 67t69.5 22q54 0 72 -21t18 -68zM598 1636q0 -48 -19.5 -69t-70.5 -21q-27 0 -44 6.5t-27 18.5t-13.5 28.5t-3.5 36.5q0 45 18.5 67t69.5 22q53 0 71.5 -21.5t18.5 -67.5z" />
    <glyph glyph-name="Yacute" unicode="&#xdd;" horiz-adv-x="1126" 
d="M631 537v-537h-137v530l-443 854h150l362 -720l367 720h145zM584 1544h-104l186 361h178z" />
    <glyph glyph-name="Thorn" unicode="&#xde;" horiz-adv-x="1153" 
d="M1044 731q0 -127 -29 -215.5t-88.5 -144t-149.5 -80.5t-212 -25h-231v-266h-135v1384h135v-223h248q238 0 350 -107.5t112 -322.5zM897 725q0 91 -22 151t-64 96t-103 51t-139 15h-235v-649h209q93 0 160 15t110 53t63.5 103t20.5 165z" />
    <glyph glyph-name="germandbls" unicode="&#xdf;" horiz-adv-x="1149" 
d="M182 0v1040q0 103 14.5 191t56 152t115 100.5t191.5 36.5q81 0 147 -18.5t112.5 -58t71.5 -100.5t25 -145t-20 -143.5t-56 -99.5t-85.5 -60.5t-108.5 -26.5q186 -15 280.5 -121.5t94.5 -295.5q0 -102 -20.5 -190.5t-67 -153t-122 -101.5t-185.5 -37q-50 0 -102.5 9.5
t-100.5 23.5v123q46 -20 100.5 -31.5t98.5 -11.5q73 0 123 26t81.5 74.5t45.5 118.5t14 158q0 96 -27 161t-82 105t-137 57t-193 17v114q85 0 149 14t106.5 46t63.5 84.5t21 130.5q0 111 -55 165t-176 54q-71 0 -118 -22t-75 -66.5t-39.5 -112t-11.5 -157.5v-1049h-129z" />
    <glyph glyph-name="agrave" unicode="&#xe0;" horiz-adv-x="1079" 
d="M776 0v152q-45 -39 -87 -72.5t-85.5 -58t-90 -38.5t-99.5 -14q-74 0 -129 22.5t-91.5 65t-54.5 103t-18 135.5q0 82 24 143t75 103.5t130.5 67.5t190.5 36l235 23v53q0 66 -15 112.5t-47.5 76.5t-83 43.5t-120.5 13.5q-59 0 -102.5 -10.5t-75 -28t-52.5 -40.5t-36 -48
l-103 63q22 36 52.5 68t75 56t104 38t139.5 14q106 0 180.5 -20t122 -63.5t69 -113t21.5 -169.5v-713h-129zM776 561l-188 -18q-90 -9 -153.5 -25.5t-103.5 -45t-58.5 -71t-18.5 -102.5q0 -114 46 -165.5t144 -51.5q37 0 72.5 11t74.5 33.5t84 58t101 83.5v293zM546 1208
l-258 361h176l186 -361h-104z" />
    <glyph glyph-name="aacute" unicode="&#xe1;" horiz-adv-x="1079" 
d="M776 0v152q-45 -39 -87 -72.5t-85.5 -58t-90 -38.5t-99.5 -14q-74 0 -129 22.5t-91.5 65t-54.5 103t-18 135.5q0 82 24 143t75 103.5t130.5 67.5t190.5 36l235 23v53q0 66 -15 112.5t-47.5 76.5t-83 43.5t-120.5 13.5q-59 0 -102.5 -10.5t-75 -28t-52.5 -40.5t-36 -48
l-103 63q22 36 52.5 68t75 56t104 38t139.5 14q106 0 180.5 -20t122 -63.5t69 -113t21.5 -169.5v-713h-129zM776 561l-188 -18q-90 -9 -153.5 -25.5t-103.5 -45t-58.5 -71t-18.5 -102.5q0 -114 46 -165.5t144 -51.5q37 0 72.5 11t74.5 33.5t84 58t101 83.5v293zM523 1208
h-104l186 361h178z" />
    <glyph glyph-name="acircumflex" unicode="&#xe2;" horiz-adv-x="1079" 
d="M776 0v152q-45 -39 -87 -72.5t-85.5 -58t-90 -38.5t-99.5 -14q-74 0 -129 22.5t-91.5 65t-54.5 103t-18 135.5q0 82 24 143t75 103.5t130.5 67.5t190.5 36l235 23v53q0 66 -15 112.5t-47.5 76.5t-83 43.5t-120.5 13.5q-59 0 -102.5 -10.5t-75 -28t-52.5 -40.5t-36 -48
l-103 63q22 36 52.5 68t75 56t104 38t139.5 14q106 0 180.5 -20t122 -63.5t69 -113t21.5 -169.5v-713h-129zM776 561l-188 -18q-90 -9 -153.5 -25.5t-103.5 -45t-58.5 -71t-18.5 -102.5q0 -114 46 -165.5t144 -51.5q37 0 72.5 11t74.5 33.5t84 58t101 83.5v293zM720 1208
l-203 265l-203 -265h-110l229 361h168l229 -361h-110z" />
    <glyph glyph-name="atilde" unicode="&#xe3;" horiz-adv-x="1079" 
d="M776 0v152q-45 -39 -87 -72.5t-85.5 -58t-90 -38.5t-99.5 -14q-74 0 -129 22.5t-91.5 65t-54.5 103t-18 135.5q0 82 24 143t75 103.5t130.5 67.5t190.5 36l235 23v53q0 66 -15 112.5t-47.5 76.5t-83 43.5t-120.5 13.5q-59 0 -102.5 -10.5t-75 -28t-52.5 -40.5t-36 -48
l-103 63q22 36 52.5 68t75 56t104 38t139.5 14q106 0 180.5 -20t122 -63.5t69 -113t21.5 -169.5v-713h-129zM776 561l-188 -18q-90 -9 -153.5 -25.5t-103.5 -45t-58.5 -71t-18.5 -102.5q0 -114 46 -165.5t144 -51.5q37 0 72.5 11t74.5 33.5t84 58t101 83.5v293zM162 1214
q5 118 60 177t149 59q37 0 68 -10.5t57 -26.5t49 -34.5t45 -34.5t44.5 -26.5t48.5 -10.5q51 0 77 32t31 101h94q-3 -115 -58.5 -174.5t-149.5 -59.5q-43 0 -74.5 11t-56.5 27t-45.5 35t-41.5 35t-44.5 27t-53.5 11q-51 0 -75 -34t-29 -104h-95z" />
    <glyph glyph-name="adieresis" unicode="&#xe4;" horiz-adv-x="1079" 
d="M776 0v152q-45 -39 -87 -72.5t-85.5 -58t-90 -38.5t-99.5 -14q-74 0 -129 22.5t-91.5 65t-54.5 103t-18 135.5q0 82 24 143t75 103.5t130.5 67.5t190.5 36l235 23v53q0 66 -15 112.5t-47.5 76.5t-83 43.5t-120.5 13.5q-59 0 -102.5 -10.5t-75 -28t-52.5 -40.5t-36 -48
l-103 63q22 36 52.5 68t75 56t104 38t139.5 14q106 0 180.5 -20t122 -63.5t69 -113t21.5 -169.5v-713h-129zM776 561l-188 -18q-90 -9 -153.5 -25.5t-103.5 -45t-58.5 -71t-18.5 -102.5q0 -114 46 -165.5t144 -51.5q37 0 72.5 11t74.5 33.5t84 58t101 83.5v293zM789 1300
q0 -48 -19.5 -69t-70.5 -21q-53 0 -70.5 25t-17.5 65q0 45 18.5 67t69.5 22q54 0 72 -21t18 -68zM419 1300q0 -48 -19.5 -69t-70.5 -21q-27 0 -44 6.5t-27 18.5t-13.5 28.5t-3.5 36.5q0 45 18.5 67t69.5 22q53 0 71.5 -21.5t18.5 -67.5z" />
    <glyph glyph-name="aring" unicode="&#xe5;" horiz-adv-x="1079" 
d="M776 0v152q-45 -39 -87 -72.5t-85.5 -58t-90 -38.5t-99.5 -14q-74 0 -129 22.5t-91.5 65t-54.5 103t-18 135.5q0 82 24 143t75 103.5t130.5 67.5t190.5 36l235 23v53q0 66 -15 112.5t-47.5 76.5t-83 43.5t-120.5 13.5q-59 0 -102.5 -10.5t-75 -28t-52.5 -40.5t-36 -48
l-103 63q22 36 52.5 68t75 56t104 38t139.5 14q106 0 180.5 -20t122 -63.5t69 -113t21.5 -169.5v-713h-129zM776 561l-188 -18q-90 -9 -153.5 -25.5t-103.5 -45t-58.5 -71t-18.5 -102.5q0 -114 46 -165.5t144 -51.5q37 0 72.5 11t74.5 33.5t84 58t101 83.5v293zM691 1339
q0 -40 -11 -73t-33.5 -57t-56.5 -37t-81 -13q-49 0 -83.5 14t-56 38.5t-31 57t-9.5 70.5q0 39 10.5 72.5t32.5 57.5t56 37.5t81 13.5q94 0 138 -49.5t44 -131.5zM609 1339q0 103 -100 103q-48 0 -74 -26.5t-26 -76.5q0 -46 22 -75t78 -29q54 0 77 27.5t23 76.5z" />
    <glyph glyph-name="ae" unicode="&#xe6;" horiz-adv-x="1694" 
d="M403 -31q-68 0 -120.5 24t-88.5 67.5t-54.5 104.5t-18.5 134q0 84 25.5 144t77.5 101t130.5 64.5t184.5 32.5l237 21v59q0 69 -18 116t-53 76t-86 41.5t-117 12.5q-101 0 -163.5 -36.5t-94.5 -92.5l-103 63q25 40 56.5 73t75 56t102 36t137.5 13q63 0 118 -9.5t100 -30.5
t79 -54.5t55 -81.5q47 81 130 128.5t198 47.5q108 0 182.5 -32.5t120.5 -93t66 -148t20 -197.5v-84h-676q0 -95 12.5 -176t46 -140.5t91.5 -93.5t149 -34q45 0 81 9.5t66 28t56 45.5t51 62l103 -67q-28 -45 -60.5 -80t-74.5 -59t-96 -37t-124 -13q-127 0 -220 48.5
t-142 142.5q-45 -37 -96 -71.5t-106.5 -61t-115 -42.5t-123.5 -16zM438 82q48 0 94 13.5t91 37t90.5 55t91.5 68.5q-16 48 -22.5 125.5t-6.5 173.5l-188 -16q-86 -7 -149 -21.5t-104 -42.5t-61 -71.5t-20 -108.5q0 -109 49.5 -161t134.5 -52zM1454 629q-3 175 -65.5 258.5
t-198.5 83.5q-62 0 -112 -20.5t-87 -62.5t-58.5 -106.5t-25.5 -152.5h547z" />
    <glyph glyph-name="ccedilla" unicode="&#xe7;" horiz-adv-x="1016" 
d="M766 -209q0 -45 -19 -79.5t-52 -58t-77.5 -35t-95.5 -11.5q-32 0 -65.5 4.5t-64.5 11.5t-56.5 15.5t-40.5 17.5l39 78q37 -14 88 -25.5t102 -11.5q69 0 103.5 26t34.5 72q0 28 -14 49t-38.5 34.5t-59 20.5t-75.5 9l31 65q-105 10 -177.5 55t-116.5 117t-63.5 168
t-19.5 207q0 128 24.5 231.5t77 176t135 112t199.5 39.5q124 0 207.5 -49t140.5 -151l-106 -64q-21 37 -44.5 65t-53 47.5t-66.5 29.5t-84 10q-155 0 -226 -114t-71 -337q0 -98 15.5 -178t51 -137.5t94 -89t144.5 -31.5q49 0 86.5 10.5t67.5 30.5t54 48.5t46 63.5l105 -65
q-48 -89 -128 -142t-206 -57l-2 -4q90 -17 133 -61t43 -113z" />
    <glyph glyph-name="egrave" unicode="&#xe8;" horiz-adv-x="1051" 
d="M262 524q0 -115 14.5 -199t49 -138.5t91.5 -80.5t142 -26q42 0 77 7.5t65.5 25t58.5 45t55 67.5l103 -67q-28 -45 -61.5 -80t-77 -59t-99 -37t-127.5 -13q-104 0 -183 30t-132.5 95.5t-81 169.5t-27.5 252q0 133 23 237.5t73.5 177t131 110.5t196.5 38q102 0 175 -32
t119.5 -92.5t68.5 -148t22 -198.5v-84h-676zM811 629q-3 177 -66 259.5t-196 82.5q-69 0 -119.5 -20t-85 -62t-54 -106.5t-26.5 -153.5h547zM550 1208l-258 361h176l186 -361h-104z" />
    <glyph glyph-name="eacute" unicode="&#xe9;" horiz-adv-x="1051" 
d="M262 524q0 -115 14.5 -199t49 -138.5t91.5 -80.5t142 -26q42 0 77 7.5t65.5 25t58.5 45t55 67.5l103 -67q-28 -45 -61.5 -80t-77 -59t-99 -37t-127.5 -13q-104 0 -183 30t-132.5 95.5t-81 169.5t-27.5 252q0 133 23 237.5t73.5 177t131 110.5t196.5 38q102 0 175 -32
t119.5 -92.5t68.5 -148t22 -198.5v-84h-676zM811 629q-3 177 -66 259.5t-196 82.5q-69 0 -119.5 -20t-85 -62t-54 -106.5t-26.5 -153.5h547zM558 1208h-104l186 361h178z" />
    <glyph glyph-name="ecircumflex" unicode="&#xea;" horiz-adv-x="1051" 
d="M262 524q0 -115 14.5 -199t49 -138.5t91.5 -80.5t142 -26q42 0 77 7.5t65.5 25t58.5 45t55 67.5l103 -67q-28 -45 -61.5 -80t-77 -59t-99 -37t-127.5 -13q-104 0 -183 30t-132.5 95.5t-81 169.5t-27.5 252q0 133 23 237.5t73.5 177t131 110.5t196.5 38q102 0 175 -32
t119.5 -92.5t68.5 -148t22 -198.5v-84h-676zM811 629q-3 177 -66 259.5t-196 82.5q-69 0 -119.5 -20t-85 -62t-54 -106.5t-26.5 -153.5h547zM747 1208l-203 265l-203 -265h-110l229 361h168l229 -361h-110z" />
    <glyph glyph-name="edieresis" unicode="&#xeb;" horiz-adv-x="1051" 
d="M262 524q0 -115 14.5 -199t49 -138.5t91.5 -80.5t142 -26q42 0 77 7.5t65.5 25t58.5 45t55 67.5l103 -67q-28 -45 -61.5 -80t-77 -59t-99 -37t-127.5 -13q-104 0 -183 30t-132.5 95.5t-81 169.5t-27.5 252q0 133 23 237.5t73.5 177t131 110.5t196.5 38q102 0 175 -32
t119.5 -92.5t68.5 -148t22 -198.5v-84h-676zM811 629q-3 177 -66 259.5t-196 82.5q-69 0 -119.5 -20t-85 -62t-54 -106.5t-26.5 -153.5h547zM820 1300q0 -48 -19.5 -69t-70.5 -21q-53 0 -70.5 25t-17.5 65q0 45 18.5 67t69.5 22q54 0 72 -21t18 -68zM450 1300
q0 -48 -19.5 -69t-70.5 -21q-27 0 -44 6.5t-27 18.5t-13.5 28.5t-3.5 36.5q0 45 18.5 67t69.5 22q53 0 71.5 -21.5t18.5 -67.5z" />
    <glyph glyph-name="igrave" unicode="&#xec;" horiz-adv-x="494" 
d="M182 0v1049h129v-1049h-129zM235 1208l-258 361h176l186 -361h-104z" />
    <glyph glyph-name="iacute" unicode="&#xed;" horiz-adv-x="494" 
d="M182 0v1049h129v-1049h-129zM261 1208h-104l186 361h178z" />
    <glyph glyph-name="icircumflex" unicode="&#xee;" horiz-adv-x="494" 
d="M182 0v1049h129v-1049h-129zM450 1208l-203 265l-203 -265h-110l229 361h168l229 -361h-110z" />
    <glyph glyph-name="idieresis" unicode="&#xef;" horiz-adv-x="494" 
d="M182 0v1049h129v-1049h-129zM513 1300q0 -48 -19.5 -69t-70.5 -21q-53 0 -70.5 25t-17.5 65q0 45 18.5 67t69.5 22q54 0 72 -21t18 -68zM143 1300q0 -48 -19.5 -69t-70.5 -21q-27 0 -44 6.5t-27 18.5t-13.5 28.5t-3.5 36.5q0 45 18.5 67t69.5 22q53 0 71.5 -21.5
t18.5 -67.5z" />
    <glyph glyph-name="eth" unicode="&#xf0;" horiz-adv-x="1141" 
d="M1012 508q0 -128 -26.5 -228t-80.5 -169t-137 -105.5t-197 -36.5q-117 0 -200.5 37.5t-137 107.5t-79 169.5t-25.5 224.5q0 137 30 239t85.5 169t133.5 100t173 33q62 0 128.5 -21t123.5 -72q-28 85 -86.5 176.5t-143.5 172.5l-200 -131l-49 71l188 123q-50 50 -103.5 88
t-97.5 64h144q15 -8 34 -19.5t38.5 -24.5t38 -27t32.5 -26l145 93l52 -70l-127 -84q81 -77 144.5 -169t108 -198.5t68 -228.5t23.5 -258zM877 508q0 94 -14 173t-49 135.5t-94.5 88t-150.5 31.5q-87 0 -145.5 -29.5t-94.5 -85t-51.5 -134.5t-15.5 -179q0 -89 13.5 -167
t48.5 -136t94.5 -91.5t152.5 -33.5q91 0 150 33t93.5 91t48.5 136t14 168z" />
    <glyph glyph-name="ntilde" unicode="&#xf1;" horiz-adv-x="1137" 
d="M834 0v651q0 88 -8 147t-28 94t-54.5 49.5t-86.5 14.5q-69 0 -160 -51.5t-186 -142.5v-762h-129v1049h129v-166q45 43 90.5 79t92 62t93.5 40.5t95 14.5q84 0 138 -25t86 -73.5t44.5 -119t12.5 -161.5v-700h-129zM213 1214q5 118 60 177t149 59q37 0 68 -10.5t57 -26.5
t49 -34.5t45 -34.5t44.5 -26.5t48.5 -10.5q51 0 77 32t31 101h94q-3 -115 -58.5 -174.5t-149.5 -59.5q-43 0 -74.5 11t-56.5 27t-45.5 35t-41.5 35t-44.5 27t-53.5 11q-51 0 -75 -34t-29 -104h-95z" />
    <glyph glyph-name="ograve" unicode="&#xf2;" horiz-adv-x="1141" 
d="M1012 522q0 -125 -24 -226.5t-77 -174.5t-137 -112.5t-203 -39.5t-203 39.5t-137 112.5t-77.5 174.5t-24.5 226.5q0 122 24 224.5t77 176.5t137 115t204 41q117 0 200.5 -39.5t137 -112.5t78.5 -175.5t25 -229.5zM877 522q0 106 -16 189t-52 140t-94.5 86.5t-143.5 29.5
q-86 0 -145 -30.5t-95.5 -88t-52.5 -140t-16 -186.5t16.5 -186t53 -139t95.5 -87t144 -30q83 0 141.5 29.5t95 86.5t53 139t16.5 187zM562 1208l-258 361h176l186 -361h-104z" />
    <glyph glyph-name="oacute" unicode="&#xf3;" horiz-adv-x="1141" 
d="M1012 522q0 -125 -24 -226.5t-77 -174.5t-137 -112.5t-203 -39.5t-203 39.5t-137 112.5t-77.5 174.5t-24.5 226.5q0 122 24 224.5t77 176.5t137 115t204 41q117 0 200.5 -39.5t137 -112.5t78.5 -175.5t25 -229.5zM877 522q0 106 -16 189t-52 140t-94.5 86.5t-143.5 29.5
q-86 0 -145 -30.5t-95.5 -88t-52.5 -140t-16 -186.5t16.5 -186t53 -139t95.5 -87t144 -30q83 0 141.5 29.5t95 86.5t53 139t16.5 187zM565 1208h-104l186 361h178z" />
    <glyph glyph-name="ocircumflex" unicode="&#xf4;" horiz-adv-x="1141" 
d="M1012 522q0 -125 -24 -226.5t-77 -174.5t-137 -112.5t-203 -39.5t-203 39.5t-137 112.5t-77.5 174.5t-24.5 226.5q0 122 24 224.5t77 176.5t137 115t204 41q117 0 200.5 -39.5t137 -112.5t78.5 -175.5t25 -229.5zM877 522q0 106 -16 189t-52 140t-94.5 86.5t-143.5 29.5
q-86 0 -145 -30.5t-95.5 -88t-52.5 -140t-16 -186.5t16.5 -186t53 -139t95.5 -87t144 -30q83 0 141.5 29.5t95 86.5t53 139t16.5 187zM774 1208l-203 265l-203 -265h-110l229 361h168l229 -361h-110z" />
    <glyph glyph-name="otilde" unicode="&#xf5;" horiz-adv-x="1141" 
d="M1012 522q0 -125 -24 -226.5t-77 -174.5t-137 -112.5t-203 -39.5t-203 39.5t-137 112.5t-77.5 174.5t-24.5 226.5q0 122 24 224.5t77 176.5t137 115t204 41q117 0 200.5 -39.5t137 -112.5t78.5 -175.5t25 -229.5zM877 522q0 106 -16 189t-52 140t-94.5 86.5t-143.5 29.5
q-86 0 -145 -30.5t-95.5 -88t-52.5 -140t-16 -186.5t16.5 -186t53 -139t95.5 -87t144 -30q83 0 141.5 29.5t95 86.5t53 139t16.5 187zM208 1214q5 118 60 177t149 59q37 0 68 -10.5t57 -26.5t49 -34.5t45 -34.5t44.5 -26.5t48.5 -10.5q51 0 77 32t31 101h94
q-3 -115 -58.5 -174.5t-149.5 -59.5q-43 0 -74.5 11t-56.5 27t-45.5 35t-41.5 35t-44.5 27t-53.5 11q-51 0 -75 -34t-29 -104h-95z" />
    <glyph glyph-name="odieresis" unicode="&#xf6;" horiz-adv-x="1141" 
d="M1012 522q0 -125 -24 -226.5t-77 -174.5t-137 -112.5t-203 -39.5t-203 39.5t-137 112.5t-77.5 174.5t-24.5 226.5q0 122 24 224.5t77 176.5t137 115t204 41q117 0 200.5 -39.5t137 -112.5t78.5 -175.5t25 -229.5zM877 522q0 106 -16 189t-52 140t-94.5 86.5t-143.5 29.5
q-86 0 -145 -30.5t-95.5 -88t-52.5 -140t-16 -186.5t16.5 -186t53 -139t95.5 -87t144 -30q83 0 141.5 29.5t95 86.5t53 139t16.5 187zM847 1300q0 -48 -19.5 -69t-70.5 -21q-53 0 -70.5 25t-17.5 65q0 45 18.5 67t69.5 22q54 0 72 -21t18 -68zM477 1300q0 -48 -19.5 -69
t-70.5 -21q-27 0 -44 6.5t-27 18.5t-13.5 28.5t-3.5 36.5q0 45 18.5 67t69.5 22q53 0 71.5 -21.5t18.5 -67.5z" />
    <glyph glyph-name="divide" unicode="&#xf7;" horiz-adv-x="1427" 
d="M637 967v143h147v-143h-147zM178 532v111h1069v-111h-1069zM637 63v144h147v-144h-147z" />
    <glyph glyph-name="oslash" unicode="&#xf8;" horiz-adv-x="1141" 
d="M96 -76l137 195q-55 72 -79.5 174t-24.5 229q0 122 24 224.5t77 176.5t137 115t204 41q173 0 277 -92l96 137h113l-146 -204q51 -73 76 -173.5t25 -224.5q0 -125 -24 -226.5t-77 -174.5t-137 -112.5t-203 -39.5q-88 0 -155 21t-117 63l-92 -129h-111zM262 522
q0 -91 11.5 -164t37.5 -129l467 658q-38 42 -89.5 61t-117.5 19q-86 0 -145 -30.5t-95.5 -88t-52.5 -140t-16 -186.5zM877 522q0 87 -10.5 158t-35.5 125l-462 -653q38 -39 87.5 -55.5t114.5 -16.5q83 0 141.5 29.5t95 86.5t53 139t16.5 187z" />
    <glyph glyph-name="ugrave" unicode="&#xf9;" horiz-adv-x="1137" 
d="M825 0v166q-44 -42 -89.5 -78.5t-92 -62.5t-93 -41t-93.5 -15q-85 0 -139.5 25t-86.5 73.5t-44.5 119t-12.5 161.5v701h129v-654q0 -88 7.5 -146.5t27 -94t53.5 -50t86 -14.5q71 0 161 52t187 145v762h129v-1049h-129zM562 1208l-258 361h176l186 -361h-104z" />
    <glyph glyph-name="uacute" unicode="&#xfa;" horiz-adv-x="1137" 
d="M825 0v166q-44 -42 -89.5 -78.5t-92 -62.5t-93 -41t-93.5 -15q-85 0 -139.5 25t-86.5 73.5t-44.5 119t-12.5 161.5v701h129v-654q0 -88 7.5 -146.5t27 -94t53.5 -50t86 -14.5q71 0 161 52t187 145v762h129v-1049h-129zM586 1208h-104l186 361h178z" />
    <glyph glyph-name="ucircumflex" unicode="&#xfb;" horiz-adv-x="1137" 
d="M825 0v166q-44 -42 -89.5 -78.5t-92 -62.5t-93 -41t-93.5 -15q-85 0 -139.5 25t-86.5 73.5t-44.5 119t-12.5 161.5v701h129v-654q0 -88 7.5 -146.5t27 -94t53.5 -50t86 -14.5q71 0 161 52t187 145v762h129v-1049h-129zM772 1208l-203 265l-203 -265h-110l229 361h168
l229 -361h-110z" />
    <glyph glyph-name="udieresis" unicode="&#xfc;" horiz-adv-x="1137" 
d="M825 0v166q-44 -42 -89.5 -78.5t-92 -62.5t-93 -41t-93.5 -15q-85 0 -139.5 25t-86.5 73.5t-44.5 119t-12.5 161.5v701h129v-654q0 -88 7.5 -146.5t27 -94t53.5 -50t86 -14.5q71 0 161 52t187 145v762h129v-1049h-129zM841 1300q0 -48 -19.5 -69t-70.5 -21
q-53 0 -70.5 25t-17.5 65q0 45 18.5 67t69.5 22q54 0 72 -21t18 -68zM471 1300q0 -48 -19.5 -69t-70.5 -21q-27 0 -44 6.5t-27 18.5t-13.5 28.5t-3.5 36.5q0 45 18.5 67t69.5 22q53 0 71.5 -21.5t18.5 -67.5z" />
    <glyph glyph-name="yacute" unicode="&#xfd;" horiz-adv-x="1018" 
d="M41 -256q25 -14 61 -21.5t70 -7.5q75 0 129 59.5t98 176.5l41 104l-383 994h140l311 -832l315 832h138l-453 -1147q-32 -81 -67.5 -138t-76.5 -92t-89 -51t-105 -16q-21 0 -44.5 2t-46 6t-42 9.5t-33.5 12.5zM519 1208h-104l186 361h178z" />
    <glyph glyph-name="thorn" unicode="&#xfe;" horiz-adv-x="1151" 
d="M1022 532q0 -123 -25 -226.5t-76 -178.5t-128.5 -116.5t-182.5 -41.5q-77 0 -153.5 34.5t-145.5 100.5v-499h-129v1884h129v-555q31 31 67.5 58t77 46t84.5 30t89 11q106 0 180.5 -42.5t121.5 -116.5t69 -173.5t22 -214.5zM889 528q0 101 -16.5 182t-51 137.5t-87.5 87
t-126 30.5q-80 0 -154.5 -42.5t-142.5 -111.5v-586q69 -65 143.5 -104t145.5 -39q62 0 115 26t91.5 80.5t60.5 138.5t22 201z" />
    <glyph glyph-name="ydieresis" unicode="&#xff;" horiz-adv-x="1018" 
d="M41 -256q25 -14 61 -21.5t70 -7.5q75 0 129 59.5t98 176.5l41 104l-383 994h140l311 -832l315 832h138l-453 -1147q-32 -81 -67.5 -138t-76.5 -92t-89 -51t-105 -16q-21 0 -44.5 2t-46 6t-42 9.5t-33.5 12.5zM785 1300q0 -48 -19.5 -69t-70.5 -21q-53 0 -70.5 25
t-17.5 65q0 45 18.5 67t69.5 22q54 0 72 -21t18 -68zM415 1300q0 -48 -19.5 -69t-70.5 -21q-27 0 -44 6.5t-27 18.5t-13.5 28.5t-3.5 36.5q0 45 18.5 67t69.5 22q53 0 71.5 -21.5t18.5 -67.5z" />
    <glyph glyph-name="Amacron" unicode="&#x100;" horiz-adv-x="1264" 
d="M63 0l480 1384h174l483 -1384h-147l-135 399h-578l-135 -399h-142zM381 522h493l-247 731zM338 1591v111h580v-111h-580z" />
    <glyph glyph-name="amacron" unicode="&#x101;" horiz-adv-x="1079" 
d="M776 0v152q-45 -39 -87 -72.5t-85.5 -58t-90 -38.5t-99.5 -14q-74 0 -129 22.5t-91.5 65t-54.5 103t-18 135.5q0 82 24 143t75 103.5t130.5 67.5t190.5 36l235 23v53q0 66 -15 112.5t-47.5 76.5t-83 43.5t-120.5 13.5q-59 0 -102.5 -10.5t-75 -28t-52.5 -40.5t-36 -48
l-103 63q22 36 52.5 68t75 56t104 38t139.5 14q106 0 180.5 -20t122 -63.5t69 -113t21.5 -169.5v-713h-129zM776 561l-188 -18q-90 -9 -153.5 -25.5t-103.5 -45t-58.5 -71t-18.5 -102.5q0 -114 46 -165.5t144 -51.5q37 0 72.5 11t74.5 33.5t84 58t101 83.5v293zM228 1255
v111h580v-111h-580z" />
    <glyph glyph-name="Abreve" unicode="&#x102;" horiz-adv-x="1264" 
d="M63 0l480 1384h174l483 -1384h-147l-135 399h-578l-135 -399h-142zM381 522h493l-247 731zM942 1794q-1 -51 -17.5 -98t-54 -83.5t-98 -58.5t-147.5 -22q-78 0 -135.5 22t-95 58.5t-55.5 83.5t-19 98h98q12 -69 65 -106t140 -37q54 0 93.5 8.5t65.5 25.5t41 44t21 65h98z
" />
    <glyph glyph-name="abreve" unicode="&#x103;" horiz-adv-x="1079" 
d="M776 0v152q-45 -39 -87 -72.5t-85.5 -58t-90 -38.5t-99.5 -14q-74 0 -129 22.5t-91.5 65t-54.5 103t-18 135.5q0 82 24 143t75 103.5t130.5 67.5t190.5 36l235 23v53q0 66 -15 112.5t-47.5 76.5t-83 43.5t-120.5 13.5q-59 0 -102.5 -10.5t-75 -28t-52.5 -40.5t-36 -48
l-103 63q22 36 52.5 68t75 56t104 38t139.5 14q106 0 180.5 -20t122 -63.5t69 -113t21.5 -169.5v-713h-129zM776 561l-188 -18q-90 -9 -153.5 -25.5t-103.5 -45t-58.5 -71t-18.5 -102.5q0 -114 46 -165.5t144 -51.5q37 0 72.5 11t74.5 33.5t84 58t101 83.5v293zM828 1468
q-1 -51 -17.5 -98t-54 -83.5t-98 -58.5t-147.5 -22q-78 0 -135.5 22t-95 58.5t-55.5 83.5t-19 98h98q12 -69 65 -106t140 -37q54 0 93.5 8.5t65.5 25.5t41 44t21 65h98z" />
    <glyph glyph-name="Aogonek" unicode="&#x104;" horiz-adv-x="1264" 
d="M1200 -322q-43 -32 -93 -48.5t-95 -16.5q-82 0 -129 43t-47 131q0 30 9 61t32 61t63 59.5t102 56.5l-124 374h-578l-135 -399h-142l480 1384h174l483 -1384q-82 -27 -132.5 -53t-78 -51t-36.5 -49t-9 -46q0 -43 22 -63.5t60 -20.5q34 0 68 12.5t65 30.5zM381 522h493
l-247 731z" />
    <glyph glyph-name="aogonek" unicode="&#x105;" horiz-adv-x="1079" 
d="M907 -322q-43 -32 -93 -48.5t-95 -16.5q-82 0 -129 43t-47 131q0 32 10 64.5t36.5 64t71.5 61.5t115 58v117q-45 -39 -87 -72.5t-85.5 -58t-90 -38.5t-99.5 -14q-74 0 -129 22.5t-91.5 65t-54.5 103t-18 135.5q0 82 24 143t75 103.5t130.5 67.5t190.5 36l235 23v53
q0 66 -15 112.5t-47.5 76.5t-83 43.5t-120.5 13.5q-59 0 -102.5 -10.5t-75 -28t-52.5 -40.5t-36 -48l-103 63q22 36 52.5 68t75 56t104 38t139.5 14q106 0 180.5 -20t122 -63.5t69 -113t21.5 -169.5v-713q-81 -28 -131 -53.5t-77.5 -50.5t-36.5 -48.5t-9 -46.5
q0 -43 22 -63.5t60 -20.5q34 0 68 12.5t65 30.5zM776 561l-188 -18q-90 -9 -153.5 -25.5t-103.5 -45t-58.5 -71t-18.5 -102.5q0 -114 46 -165.5t144 -51.5q37 0 72.5 11t74.5 33.5t84 58t101 83.5v293z" />
    <glyph glyph-name="Cacute" unicode="&#x106;" horiz-adv-x="1315" 
d="M1225 246q-33 -59 -75 -109t-100 -87t-135.5 -58t-181.5 -21q-302 0 -445 181t-143 540q0 174 34 308.5t105 226t180.5 139t260.5 47.5q97 0 173 -19t133.5 -54t100 -84t74.5 -109l-116 -74q-26 48 -58 87.5t-75.5 68.5t-100 45t-131.5 16q-118 0 -201 -39.5t-135 -116
t-76 -187.5t-24 -255t24 -255t77 -187.5t137 -116t204 -39.5q84 0 145.5 20t105.5 52t74.5 71.5t53.5 79.5zM713 1544h-104l186 361h178z" />
    <glyph glyph-name="cacute" unicode="&#x107;" horiz-adv-x="1016" 
d="M926 168q-25 -47 -58 -84t-77 -62.5t-99.5 -39t-124.5 -13.5q-123 0 -206.5 42t-135 115.5t-74 174.5t-22.5 219q0 128 24.5 231.5t77 176t135 112t199.5 39.5q124 0 207.5 -49t140.5 -151l-106 -64q-21 39 -45 67.5t-53.5 47t-65.5 28t-82 9.5q-157 0 -228 -114
t-71 -337q0 -98 15.5 -178t51 -137.5t94 -89t144.5 -31.5q49 0 86.5 10.5t67.5 30.5t54 48.5t46 63.5zM561 1208h-104l186 361h178z" />
    <glyph glyph-name="Ccircumflex" unicode="&#x108;" horiz-adv-x="1315" 
d="M1225 246q-33 -59 -75 -109t-100 -87t-135.5 -58t-181.5 -21q-302 0 -445 181t-143 540q0 174 34 308.5t105 226t180.5 139t260.5 47.5q97 0 173 -19t133.5 -54t100 -84t74.5 -109l-116 -74q-26 48 -58 87.5t-75.5 68.5t-100 45t-131.5 16q-118 0 -201 -39.5t-135 -116
t-76 -187.5t-24 -255t24 -255t77 -187.5t137 -116t204 -39.5q84 0 145.5 20t105.5 52t74.5 71.5t53.5 79.5zM924 1544l-203 265l-203 -265h-110l229 361h168l229 -361h-110z" />
    <glyph glyph-name="ccircumflex" unicode="&#x109;" horiz-adv-x="1016" 
d="M926 168q-25 -47 -58 -84t-77 -62.5t-99.5 -39t-124.5 -13.5q-123 0 -206.5 42t-135 115.5t-74 174.5t-22.5 219q0 128 24.5 231.5t77 176t135 112t199.5 39.5q124 0 207.5 -49t140.5 -151l-106 -64q-21 39 -45 67.5t-53.5 47t-65.5 28t-82 9.5q-157 0 -228 -114
t-71 -337q0 -98 15.5 -178t51 -137.5t94 -89t144.5 -31.5q49 0 86.5 10.5t67.5 30.5t54 48.5t46 63.5zM766 1208l-203 265l-203 -265h-110l229 361h168l229 -361h-110z" />
    <glyph glyph-name="Cdotaccent" unicode="&#x10a;" horiz-adv-x="1315" 
d="M1225 246q-33 -59 -75 -109t-100 -87t-135.5 -58t-181.5 -21q-302 0 -445 181t-143 540q0 174 34 308.5t105 226t180.5 139t260.5 47.5q97 0 173 -19t133.5 -54t100 -84t74.5 -109l-116 -74q-26 48 -58 87.5t-75.5 68.5t-100 45t-131.5 16q-118 0 -201 -39.5t-135 -116
t-76 -187.5t-24 -255t24 -255t77 -187.5t137 -116t204 -39.5q84 0 145.5 20t105.5 52t74.5 71.5t53.5 79.5zM807 1641q0 -53 -21.5 -74t-74.5 -21q-29 0 -48 6.5t-29.5 19t-14.5 30t-4 39.5q0 48 21 72t75 24q56 0 76 -23.5t20 -72.5z" />
    <glyph glyph-name="cdotaccent" unicode="&#x10b;" horiz-adv-x="1016" 
d="M926 168q-25 -47 -58 -84t-77 -62.5t-99.5 -39t-124.5 -13.5q-123 0 -206.5 42t-135 115.5t-74 174.5t-22.5 219q0 128 24.5 231.5t77 176t135 112t199.5 39.5q124 0 207.5 -49t140.5 -151l-106 -64q-21 39 -45 67.5t-53.5 47t-65.5 28t-82 9.5q-157 0 -228 -114
t-71 -337q0 -98 15.5 -178t51 -137.5t94 -89t144.5 -31.5q49 0 86.5 10.5t67.5 30.5t54 48.5t46 63.5zM657 1305q0 -53 -21.5 -74t-74.5 -21q-29 0 -48 6.5t-29.5 19t-14.5 30t-4 39.5q0 48 21 72t75 24q56 0 76 -23.5t20 -72.5z" />
    <glyph glyph-name="Ccaron" unicode="&#x10c;" horiz-adv-x="1315" 
d="M1225 246q-33 -59 -75 -109t-100 -87t-135.5 -58t-181.5 -21q-302 0 -445 181t-143 540q0 174 34 308.5t105 226t180.5 139t260.5 47.5q97 0 173 -19t133.5 -54t100 -84t74.5 -109l-116 -74q-26 48 -58 87.5t-75.5 68.5t-100 45t-131.5 16q-118 0 -201 -39.5t-135 -116
t-76 -187.5t-24 -255t24 -255t77 -187.5t137 -116t204 -39.5q84 0 145.5 20t105.5 52t74.5 71.5t53.5 79.5zM791 1544h-168l-229 361h110l203 -264l203 264h110z" />
    <glyph glyph-name="ccaron" unicode="&#x10d;" horiz-adv-x="1016" 
d="M926 168q-25 -47 -58 -84t-77 -62.5t-99.5 -39t-124.5 -13.5q-123 0 -206.5 42t-135 115.5t-74 174.5t-22.5 219q0 128 24.5 231.5t77 176t135 112t199.5 39.5q124 0 207.5 -49t140.5 -151l-106 -64q-21 39 -45 67.5t-53.5 47t-65.5 28t-82 9.5q-157 0 -228 -114
t-71 -337q0 -98 15.5 -178t51 -137.5t94 -89t144.5 -31.5q49 0 86.5 10.5t67.5 30.5t54 48.5t46 63.5zM645 1208h-168l-229 361h110l203 -264l203 264h110z" />
    <glyph glyph-name="Dcaron" unicode="&#x10e;" horiz-adv-x="1282" 
d="M1147 692q0 -203 -41.5 -336.5t-122 -212.5t-199 -111t-272.5 -32h-326v1384h324q163 0 282.5 -35t198.5 -116t117.5 -213.5t38.5 -327.5zM1001 694q0 157 -26.5 265.5t-86 176t-155.5 97t-235 29.5h-176v-1139h176q136 0 232 28.5t156 95.5t87.5 176.5t27.5 270.5z
M690 1544h-168l-229 361h110l203 -264l203 264h110z" />
    <glyph glyph-name="dcaron" unicode="&#x10f;" horiz-adv-x="1204" 
d="M840 0v115q-32 -31 -69.5 -57.5t-78.5 -46t-85 -31t-89 -11.5q-98 0 -171 37t-121.5 107.5t-72.5 172t-24 230.5q0 109 23.5 210.5t73 180t126 125.5t183.5 47q90 0 163 -33.5t142 -87.5v531h129v-1489h-129zM840 838q-75 60 -148 93.5t-145 33.5q-65 0 -118 -30.5
t-90 -87.5t-57 -139.5t-20 -187.5q0 -99 15 -180t47.5 -138t83.5 -88.5t124 -31.5q43 0 84.5 12.5t80.5 34t75 49.5t68 60v600zM1155 1128h-92l80 361h162z" />
    <glyph glyph-name="Dcroat" unicode="&#x110;" horiz-adv-x="1325" 
d="M1184 692q0 -203 -43 -336.5t-127 -212.5t-207 -111t-283 -32h-331v641h-130v109h130v634h331q169 0 293.5 -35t206 -116t121 -213.5t39.5 -327.5zM1040 694q0 157 -28 265.5t-91 176t-163.5 97t-245.5 29.5h-184v-512h338v-109h-338v-518h184q142 0 242.5 28.5t164 95.5
t92.5 176.5t29 270.5z" />
    <glyph glyph-name="dcroat" unicode="&#x111;" horiz-adv-x="1151" 
d="M840 0v115q-32 -31 -69.5 -57.5t-78.5 -46t-85 -31t-89 -11.5q-98 0 -171 37t-121.5 107.5t-72.5 172t-24 230.5q0 109 23.5 210.5t73 180t126 125.5t183.5 47q90 0 163 -33.5t142 -87.5v248h-297v109h297v174h129v-174h153v-109h-153v-1206h-129zM840 838
q-75 60 -148 93.5t-145 33.5q-65 0 -118 -30.5t-90 -87.5t-57 -139.5t-20 -187.5q0 -99 15 -180t47.5 -138t83.5 -88.5t124 -31.5q43 0 84.5 12.5t80.5 34t75 49.5t68 60v600z" />
    <glyph glyph-name="Emacron" unicode="&#x112;" horiz-adv-x="1155" 
d="M199 0v1384h819v-122h-684v-467h588v-123h-588v-549h684v-123h-819zM321 1591v111h580v-111h-580z" />
    <glyph glyph-name="emacron" unicode="&#x113;" horiz-adv-x="1051" 
d="M262 524q0 -115 14.5 -199t49 -138.5t91.5 -80.5t142 -26q42 0 77 7.5t65.5 25t58.5 45t55 67.5l103 -67q-28 -45 -61.5 -80t-77 -59t-99 -37t-127.5 -13q-104 0 -183 30t-132.5 95.5t-81 169.5t-27.5 252q0 133 23 237.5t73.5 177t131 110.5t196.5 38q102 0 175 -32
t119.5 -92.5t68.5 -148t22 -198.5v-84h-676zM811 629q-3 177 -66 259.5t-196 82.5q-69 0 -119.5 -20t-85 -62t-54 -106.5t-26.5 -153.5h547zM270 1255v111h580v-111h-580z" />
    <glyph glyph-name="Ebreve" unicode="&#x114;" horiz-adv-x="1155" 
d="M199 0v1384h819v-122h-684v-467h588v-123h-588v-549h684v-123h-819zM940 1804q-1 -51 -17.5 -98t-54 -83.5t-98 -58.5t-147.5 -22q-78 0 -135.5 22t-95 58.5t-55.5 83.5t-19 98h98q12 -69 65 -106t140 -37q54 0 93.5 8.5t65.5 25.5t41 44t21 65h98z" />
    <glyph glyph-name="ebreve" unicode="&#x115;" horiz-adv-x="1051" 
d="M262 524q0 -115 14.5 -199t49 -138.5t91.5 -80.5t142 -26q42 0 77 7.5t65.5 25t58.5 45t55 67.5l103 -67q-28 -45 -61.5 -80t-77 -59t-99 -37t-127.5 -13q-104 0 -183 30t-132.5 95.5t-81 169.5t-27.5 252q0 133 23 237.5t73.5 177t131 110.5t196.5 38q102 0 175 -32
t119.5 -92.5t68.5 -148t22 -198.5v-84h-676zM811 629q-3 177 -66 259.5t-196 82.5q-69 0 -119.5 -20t-85 -62t-54 -106.5t-26.5 -153.5h547zM868 1468q-1 -51 -17.5 -98t-54 -83.5t-98 -58.5t-147.5 -22q-78 0 -135.5 22t-95 58.5t-55.5 83.5t-19 98h98q12 -69 65 -106
t140 -37q54 0 93.5 8.5t65.5 25.5t41 44t21 65h98z" />
    <glyph glyph-name="Edotaccent" unicode="&#x116;" horiz-adv-x="1155" 
d="M199 0v1384h819v-122h-684v-467h588v-123h-588v-549h684v-123h-819zM694 1641q0 -53 -21.5 -74t-74.5 -21q-29 0 -48 6.5t-29.5 19t-14.5 30t-4 39.5q0 48 21 72t75 24q56 0 76 -23.5t20 -72.5z" />
    <glyph glyph-name="edotaccent" unicode="&#x117;" horiz-adv-x="1051" 
d="M262 524q0 -115 14.5 -199t49 -138.5t91.5 -80.5t142 -26q42 0 77 7.5t65.5 25t58.5 45t55 67.5l103 -67q-28 -45 -61.5 -80t-77 -59t-99 -37t-127.5 -13q-104 0 -183 30t-132.5 95.5t-81 169.5t-27.5 252q0 133 23 237.5t73.5 177t131 110.5t196.5 38q102 0 175 -32
t119.5 -92.5t68.5 -148t22 -198.5v-84h-676zM811 629q-3 177 -66 259.5t-196 82.5q-69 0 -119.5 -20t-85 -62t-54 -106.5t-26.5 -153.5h547zM644 1305q0 -53 -21.5 -74t-74.5 -21q-29 0 -48 6.5t-29.5 19t-14.5 30t-4 39.5q0 48 21 72t75 24q56 0 76 -23.5t20 -72.5z" />
    <glyph glyph-name="Eogonek" unicode="&#x118;" horiz-adv-x="1155" 
d="M1020 -322q-45 -32 -94.5 -48.5t-96.5 -16.5q-80 0 -128 43t-48 131q0 27 7 54t25 54t49 53t79 52h-614v1384h819v-122h-684v-467h588v-123h-588v-549h684v-123q-82 -28 -132 -53.5t-77 -50.5t-36 -48.5t-9 -46.5q0 -43 21 -63.5t59 -20.5q34 0 68.5 12.5t66.5 30.5z" />
    <glyph glyph-name="eogonek" unicode="&#x119;" horiz-adv-x="1051" 
d="M938 524h-676q0 -115 14.5 -199t49 -138.5t91.5 -80.5t142 -26q42 0 77 7.5t65.5 25t58.5 45t55 67.5l103 -67q-14 -22 -29.5 -42.5t-34.5 -37.5q-34 -36 -65.5 -70t-56 -68.5t-39.5 -69.5t-15 -73q0 -43 21 -61.5t61 -18.5q34 0 68 12.5t65 30.5l41 -82
q-43 -32 -93.5 -48.5t-95.5 -16.5q-81 0 -128.5 42t-47.5 124q0 24 4 47.5t14.5 47t28.5 49t46 54.5q-23 -3 -48 -5.5t-53 -2.5q-107 0 -188 30t-135 95.5t-81.5 169.5t-27.5 252q0 121 20 224.5t68.5 178.5t130 117.5t205.5 42.5q102 0 175 -32t119.5 -92.5t68.5 -148
t22 -198.5v-84zM811 629q-3 177 -66 259.5t-196 82.5q-69 0 -119.5 -20t-85 -62t-54 -106.5t-26.5 -153.5h547z" />
    <glyph glyph-name="Ecaron" unicode="&#x11a;" horiz-adv-x="1155" 
d="M199 0v1384h819v-122h-684v-467h588v-123h-588v-549h684v-123h-819zM676 1544h-168l-229 361h110l203 -264l203 264h110z" />
    <glyph glyph-name="ecaron" unicode="&#x11b;" horiz-adv-x="1051" 
d="M262 524q0 -115 14.5 -199t49 -138.5t91.5 -80.5t142 -26q42 0 77 7.5t65.5 25t58.5 45t55 67.5l103 -67q-28 -45 -61.5 -80t-77 -59t-99 -37t-127.5 -13q-104 0 -183 30t-132.5 95.5t-81 169.5t-27.5 252q0 133 23 237.5t73.5 177t131 110.5t196.5 38q102 0 175 -32
t119.5 -92.5t68.5 -148t22 -198.5v-84h-676zM811 629q-3 177 -66 259.5t-196 82.5q-69 0 -119.5 -20t-85 -62t-54 -106.5t-26.5 -153.5h547zM630 1208h-168l-229 361h110l203 -264l203 264h110z" />
    <glyph glyph-name="Gcircumflex" unicode="&#x11c;" horiz-adv-x="1378" 
d="M1081 1073q-27 53 -60.5 93.5t-77.5 68t-100 41.5t-126 14q-113 0 -194 -37.5t-133 -112.5t-76.5 -187t-24.5 -261q0 -140 23 -251t76 -188t139.5 -118t213.5 -41q42 0 81 4.5t77 14t77.5 24t82.5 33.5v389h-369v123h504v-588q-58 -30 -109.5 -53t-104.5 -38.5
t-112 -23.5t-131 -8q-164 0 -276.5 50.5t-183 144.5t-101.5 227.5t-31 300.5t31 300t100 226t179 143t268 50q98 0 173 -19.5t131 -55t97 -84.5t72 -107zM918 1544l-203 265l-203 -265h-110l229 361h168l229 -361h-110z" />
    <glyph glyph-name="gcircumflex" unicode="&#x11d;" horiz-adv-x="1151" 
d="M969 23q0 -111 -24 -190.5t-73.5 -130t-125.5 -74t-181 -23.5q-127 0 -220 29.5t-148 72.5l55 100q51 -42 128 -68t185 -26q75 0 127 17t85 53.5t48 94t15 138.5v127q-30 -29 -66.5 -55t-78 -45.5t-86.5 -31t-93 -11.5q-101 0 -174 36t-120 104.5t-70 168t-23 226.5
q0 114 24 213t74.5 172.5t128 116t185.5 42.5q83 0 158 -32.5t141 -88.5v91h129v-1026zM840 840q-73 57 -143.5 91t-145.5 34q-76 0 -130.5 -31t-90 -87.5t-52 -135t-16.5 -172.5q0 -79 9 -155.5t38 -136.5t83 -97t143 -37q46 0 88.5 13.5t81 35.5t72.5 49.5t63 54.5v574z
M791 1208l-203 265l-203 -265h-110l229 361h168l229 -361h-110z" />
    <glyph glyph-name="Gbreve" unicode="&#x11e;" horiz-adv-x="1378" 
d="M1081 1073q-27 53 -60.5 93.5t-77.5 68t-100 41.5t-126 14q-113 0 -194 -37.5t-133 -112.5t-76.5 -187t-24.5 -261q0 -140 23 -251t76 -188t139.5 -118t213.5 -41q42 0 81 4.5t77 14t77.5 24t82.5 33.5v389h-369v123h504v-588q-58 -30 -109.5 -53t-104.5 -38.5
t-112 -23.5t-131 -8q-164 0 -276.5 50.5t-183 144.5t-101.5 227.5t-31 300.5t31 300t100 226t179 143t268 50q98 0 173 -19.5t131 -55t97 -84.5t72 -107zM1026 1804q-1 -51 -17.5 -98t-54 -83.5t-98 -58.5t-147.5 -22q-78 0 -135.5 22t-95 58.5t-55.5 83.5t-19 98h98
q12 -69 65 -106t140 -37q54 0 93.5 8.5t65.5 25.5t41 44t21 65h98z" />
    <glyph glyph-name="gbreve" unicode="&#x11f;" horiz-adv-x="1151" 
d="M969 23q0 -111 -24 -190.5t-73.5 -130t-125.5 -74t-181 -23.5q-127 0 -220 29.5t-148 72.5l55 100q51 -42 128 -68t185 -26q75 0 127 17t85 53.5t48 94t15 138.5v127q-30 -29 -66.5 -55t-78 -45.5t-86.5 -31t-93 -11.5q-101 0 -174 36t-120 104.5t-70 168t-23 226.5
q0 114 24 213t74.5 172.5t128 116t185.5 42.5q83 0 158 -32.5t141 -88.5v91h129v-1026zM840 840q-73 57 -143.5 91t-145.5 34q-76 0 -130.5 -31t-90 -87.5t-52 -135t-16.5 -172.5q0 -79 9 -155.5t38 -136.5t83 -97t143 -37q46 0 88.5 13.5t81 35.5t72.5 49.5t63 54.5v574z
M874 1468q-1 -51 -17.5 -98t-54 -83.5t-98 -58.5t-147.5 -22q-78 0 -135.5 22t-95 58.5t-55.5 83.5t-19 98h98q12 -69 65 -106t140 -37q54 0 93.5 8.5t65.5 25.5t41 44t21 65h98z" />
    <glyph glyph-name="Gdotaccent" unicode="&#x120;" horiz-adv-x="1378" 
d="M1081 1073q-27 53 -60.5 93.5t-77.5 68t-100 41.5t-126 14q-113 0 -194 -37.5t-133 -112.5t-76.5 -187t-24.5 -261q0 -140 23 -251t76 -188t139.5 -118t213.5 -41q42 0 81 4.5t77 14t77.5 24t82.5 33.5v389h-369v123h504v-588q-58 -30 -109.5 -53t-104.5 -38.5
t-112 -23.5t-131 -8q-164 0 -276.5 50.5t-183 144.5t-101.5 227.5t-31 300.5t31 300t100 226t179 143t268 50q98 0 173 -19.5t131 -55t97 -84.5t72 -107zM801 1641q0 -53 -21.5 -74t-74.5 -21q-29 0 -48 6.5t-29.5 19t-14.5 30t-4 39.5q0 48 21 72t75 24q56 0 76 -23.5
t20 -72.5z" />
    <glyph glyph-name="gdotaccent" unicode="&#x121;" horiz-adv-x="1151" 
d="M969 23q0 -111 -24 -190.5t-73.5 -130t-125.5 -74t-181 -23.5q-127 0 -220 29.5t-148 72.5l55 100q51 -42 128 -68t185 -26q75 0 127 17t85 53.5t48 94t15 138.5v127q-30 -29 -66.5 -55t-78 -45.5t-86.5 -31t-93 -11.5q-101 0 -174 36t-120 104.5t-70 168t-23 226.5
q0 114 24 213t74.5 172.5t128 116t185.5 42.5q83 0 158 -32.5t141 -88.5v91h129v-1026zM840 840q-73 57 -143.5 91t-145.5 34q-76 0 -130.5 -31t-90 -87.5t-52 -135t-16.5 -172.5q0 -79 9 -155.5t38 -136.5t83 -97t143 -37q46 0 88.5 13.5t81 35.5t72.5 49.5t63 54.5v574z
M649 1305q0 -53 -21.5 -74t-74.5 -21q-29 0 -48 6.5t-29.5 19t-14.5 30t-4 39.5q0 48 21 72t75 24q56 0 76 -23.5t20 -72.5z" />
    <glyph glyph-name="Gcommaaccent" unicode="&#x122;" horiz-adv-x="1378" 
d="M1081 1073q-27 53 -60.5 93.5t-77.5 68t-100 41.5t-126 14q-113 0 -194 -37.5t-133 -112.5t-76.5 -187t-24.5 -261q0 -140 23 -251t76 -188t139.5 -118t213.5 -41q42 0 81 4.5t77 14t77.5 24t82.5 33.5v389h-369v123h504v-588q-58 -30 -109.5 -53t-104.5 -38.5
t-112 -23.5t-131 -8q-164 0 -276.5 50.5t-183 144.5t-101.5 227.5t-31 300.5t31 300t100 226t179 143t268 50q98 0 173 -19.5t131 -55t97 -84.5t72 -107zM665 -481q28 35 51 74t25 79q-51 0 -73.5 19t-22.5 71q0 47 22 70t76 23q51 0 75 -26.5t24 -80.5q0 -38 -8 -69.5
t-22 -59t-32.5 -52t-40.5 -48.5h-74z" />
    <glyph glyph-name="gcommaaccent" unicode="&#x123;" horiz-adv-x="1151" 
d="M969 23q0 -111 -24 -190.5t-73.5 -130t-125.5 -74t-181 -23.5q-127 0 -220 29.5t-148 72.5l55 100q51 -42 128 -68t185 -26q75 0 127 17t85 53.5t48 94t15 138.5v127q-30 -29 -66.5 -55t-78 -45.5t-86.5 -31t-93 -11.5q-101 0 -174 36t-120 104.5t-70 168t-23 226.5
q0 114 24 213t74.5 172.5t128 116t185.5 42.5q83 0 158 -32.5t141 -88.5v91h129v-1026zM840 840q-73 57 -143.5 91t-145.5 34q-76 0 -130.5 -31t-90 -87.5t-52 -135t-16.5 -172.5q0 -79 9 -155.5t38 -136.5t83 -97t143 -37q46 0 88.5 13.5t81 35.5t72.5 49.5t63 54.5v574z
M630 1501q-28 -35 -52 -74t-26 -79q53 0 75 -19t22 -72q0 -46 -22 -69t-75 -23q-51 0 -75.5 25.5t-24.5 81.5q0 37 8 68.5t22.5 59t33.5 52.5t41 49h73z" />
    <glyph glyph-name="Hcircumflex" unicode="&#x124;" horiz-adv-x="1341" 
d="M1008 0v655h-674v-655h-135v1384h135v-606h674v606h135v-1384h-135zM875 1544l-203 265l-203 -265h-110l229 361h168l229 -361h-110z" />
    <glyph glyph-name="hcircumflex" unicode="&#x125;" horiz-adv-x="1137" 
d="M834 0v651q0 89 -8 148t-28 94t-54.5 49t-86.5 14q-69 0 -160 -51.5t-186 -142.5v-762h-129v1489h129v-606q44 41 89 77t91.5 62.5t93.5 41.5t95 15q84 0 139 -25t87 -73.5t44.5 -119t12.5 -161.5v-700h-129zM815 1544l-203 265l-203 -265h-110l229 361h168l229 -361
h-110z" />
    <glyph glyph-name="Hbar" unicode="&#x126;" horiz-adv-x="1341" 
d="M1008 0v655h-674v-655h-135v1038h-158v111h158v235h135v-235h674v235h135v-235h157v-111h-157v-1038h-135zM1008 778v260h-674v-260h674z" />
    <glyph glyph-name="hbar" unicode="&#x127;" horiz-adv-x="1137" 
d="M834 0v651q0 89 -8 148t-28 94t-54.5 49t-86.5 14q-69 0 -160 -51.5t-186 -142.5v-762h-129v1206h-168v109h168v174h129v-174h283v-109h-283v-323q44 41 89 77t91.5 62.5t93.5 41.5t95 15q84 0 139 -25t87 -73.5t44.5 -119t12.5 -161.5v-700h-129z" />
    <glyph glyph-name="Itilde" unicode="&#x128;" horiz-adv-x="719" 
d="M616 0h-514v119h189v1147h-189v118h514v-118h-190v-1147h190v-119zM-4 1550q5 118 60 177t149 59q37 0 68 -10.5t57 -26.5t49 -34.5t45 -34.5t44.5 -26.5t48.5 -10.5q51 0 77 32t31 101h94q-3 -115 -58.5 -174.5t-149.5 -59.5q-43 0 -74.5 11t-56.5 27t-45.5 35t-41.5 35
t-44.5 27t-53.5 11q-51 0 -75 -34t-29 -104h-95z" />
    <glyph glyph-name="itilde" unicode="&#x129;" horiz-adv-x="494" 
d="M182 0v1049h129v-1049h-129zM-114 1214q5 118 60 177t149 59q37 0 68 -10.5t57 -26.5t49 -34.5t45 -34.5t44.5 -26.5t48.5 -10.5q51 0 77 32t31 101h94q-3 -115 -58.5 -174.5t-149.5 -59.5q-43 0 -74.5 11t-56.5 27t-45.5 35t-41.5 35t-44.5 27t-53.5 11q-51 0 -75 -34
t-29 -104h-95z" />
    <glyph glyph-name="Imacron" unicode="&#x12a;" horiz-adv-x="719" 
d="M616 0h-514v119h189v1147h-189v118h514v-118h-190v-1147h190v-119zM73 1591v111h580v-111h-580z" />
    <glyph glyph-name="imacron" unicode="&#x12b;" horiz-adv-x="494" 
d="M182 0v1049h129v-1049h-129zM-44 1255v111h580v-111h-580z" />
    <glyph glyph-name="Ibreve" unicode="&#x12c;" horiz-adv-x="719" 
d="M616 0h-514v119h189v1147h-189v118h514v-118h-190v-1147h190v-119zM672 1804q-1 -51 -17.5 -98t-54 -83.5t-98 -58.5t-147.5 -22q-78 0 -135.5 22t-95 58.5t-55.5 83.5t-19 98h98q12 -69 65 -106t140 -37q54 0 93.5 8.5t65.5 25.5t41 44t21 65h98z" />
    <glyph glyph-name="ibreve" unicode="&#x12d;" horiz-adv-x="494" 
d="M182 0v1049h129v-1049h-129zM558 1468q-1 -51 -17.5 -98t-54 -83.5t-98 -58.5t-147.5 -22q-78 0 -135.5 22t-95 58.5t-55.5 83.5t-19 98h98q12 -69 65 -106t140 -37q54 0 93.5 8.5t65.5 25.5t41 44t21 65h98z" />
    <glyph glyph-name="Iogonek" unicode="&#x12e;" horiz-adv-x="770" 
d="M618 -322q-45 -32 -94.5 -48.5t-95.5 -16.5q-80 0 -128 43t-48 131q0 27 7 54t25 54t49 53t79 52h-310v119h189v1147h-189v118h514v-118h-190v-1147h190v-119q-82 -28 -132 -53.5t-77 -50.5t-36 -48.5t-9 -46.5q0 -43 21 -63.5t59 -20.5q34 0 69 12.5t67 30.5z" />
    <glyph glyph-name="iogonek" unicode="&#x12f;" horiz-adv-x="512" 
d="M311 0q-106 -35 -152 -88t-46 -111q0 -43 21.5 -63.5t60.5 -20.5q34 0 68 12.5t65 30.5l41 -82q-44 -32 -94 -48.5t-95 -16.5q-81 0 -128.5 43t-47.5 131q0 69 42.5 132.5t135.5 107.5v1022h129v-1049zM338 1305q0 -51 -21.5 -69.5t-70.5 -18.5q-51 0 -70.5 23t-19.5 65
q0 45 20 65.5t70 20.5q51 0 71.5 -20t20.5 -66z" />
    <glyph glyph-name="Idotaccent" unicode="&#x130;" horiz-adv-x="719" 
d="M616 0h-514v119h189v1147h-189v118h514v-118h-190v-1147h190v-119zM449 1641q0 -53 -21.5 -74t-74.5 -21q-29 0 -48 6.5t-29.5 19t-14.5 30t-4 39.5q0 48 21 72t75 24q56 0 76 -23.5t20 -72.5z" />
    <glyph glyph-name="dotlessi" unicode="&#x131;" horiz-adv-x="494" 
d="M182 0v1049h129v-1049h-129z" />
    <glyph glyph-name="IJ" unicode="&#x132;" horiz-adv-x="1495" 
d="M616 0h-514v119h189v1147h-189v118h514v-118h-190v-1147h190v-119zM1297 395q0 -104 -18 -183.5t-59.5 -133.5t-110 -81.5t-169.5 -27.5q-31 0 -64.5 4t-65.5 10.5t-61.5 15.5t-51.5 19l51 119q17 -9 40.5 -17t49.5 -14.5t52.5 -10t49.5 -3.5q70 0 113.5 21.5t67.5 66
t32 112.5t8 161v931h136v-989z" />
    <glyph glyph-name="ij" unicode="&#x133;" horiz-adv-x="1016" 
d="M338 1305q0 -51 -21.5 -69.5t-70.5 -18.5q-51 0 -70.5 23t-19.5 65q0 45 20 65.5t70 20.5q51 0 71.5 -20t20.5 -66zM182 0v1049h129v-1049h-129zM839 1305q0 -51 -22 -69.5t-70 -18.5q-53 0 -72.5 23t-19.5 65q0 45 21.5 65.5t70.5 20.5q51 0 71.5 -20t20.5 -66zM811 -55
q0 -86 -13.5 -149.5t-46 -106t-87.5 -63.5t-138 -21q-40 0 -86 7.5t-92 22.5l32 107q36 -14 73 -21.5t79 -7.5q43 0 72 14t46 44t24.5 76.5t7.5 111.5v1090h129v-1104z" />
    <glyph glyph-name="Jcircumflex" unicode="&#x134;" horiz-adv-x="864" 
d="M666 395q0 -104 -18 -183.5t-59.5 -133.5t-110 -81.5t-169.5 -27.5q-31 0 -64.5 4t-65.5 10.5t-61.5 15.5t-51.5 19l51 119q17 -9 40.5 -17t49.5 -14.5t52.5 -10t49.5 -3.5q70 0 113.5 21.5t67.5 66t32 112.5t8 161v931h136v-989zM799 1544l-203 265l-203 -265h-110
l229 361h168l229 -361h-110z" />
    <glyph glyph-name="jcircumflex" unicode="&#x135;" horiz-adv-x="508" 
d="M322 -55q0 -86 -13.5 -149.5t-46 -106t-87.5 -63.5t-138 -21q-40 0 -86 7.5t-92 22.5l32 107q36 -14 73 -21.5t79 -7.5q43 0 72 14t46 44t24.5 76.5t7.5 111.5v1090h129v-1104zM472 1208l-203 265l-203 -265h-110l229 361h168l229 -361h-110z" />
    <glyph glyph-name="Kcommaaccent" unicode="&#x136;" horiz-adv-x="1255" 
d="M1014 0l-527 639l-153 -164v-475h-135v1384h135v-739l661 739h170l-587 -649l612 -735h-176zM552 -481q28 35 51 74t25 79q-51 0 -73.5 19t-22.5 71q0 47 22 70t76 23q51 0 75 -26.5t24 -80.5q0 -38 -8 -69.5t-22 -59t-32.5 -52t-40.5 -48.5h-74z" />
    <glyph glyph-name="kcommaaccent" unicode="&#x137;" horiz-adv-x="1022" 
d="M801 0l-371 489l-119 -131v-358h-129v1489h129v-973l469 533h160l-426 -471l449 -578h-162zM440 -481q28 35 51 74t25 79q-51 0 -73.5 19t-22.5 71q0 47 22 70t76 23q51 0 75 -26.5t24 -80.5q0 -38 -8 -69.5t-22 -59t-32.5 -52t-40.5 -48.5h-74z" />
    <glyph glyph-name="kgreenlandic" unicode="&#x138;" horiz-adv-x="1022" 
d="M801 0l-371 489l-119 -131v-358h-129v1047h129v-531l414 479q22 26 49 44t74 20q15 0 42 -2t58 -10l-33 -107q-8 3 -18 5.5t-23 2.5q-21 0 -35.5 -9t-31.5 -26l-295 -333l451 -580h-162z" />
    <glyph glyph-name="Lacute" unicode="&#x139;" horiz-adv-x="1038" 
d="M199 0v1384h135v-1261h649v-123h-784zM554 1544h-104l186 361h178z" />
    <glyph glyph-name="lacute" unicode="&#x13a;" horiz-adv-x="518" 
d="M195 0v1489h129v-1489h-129zM259 1587h-104l186 361h178z" />
    <glyph glyph-name="Lcommaaccent" unicode="&#x13b;" horiz-adv-x="1038" 
d="M199 0v1384h135v-1261h649v-123h-784zM516 -481q28 35 51 74t25 79q-51 0 -73.5 19t-22.5 71q0 47 22 70t76 23q51 0 75 -26.5t24 -80.5q0 -38 -8 -69.5t-22 -59t-32.5 -52t-40.5 -48.5h-74z" />
    <glyph glyph-name="lcommaaccent" unicode="&#x13c;" horiz-adv-x="518" 
d="M195 0v1489h129v-1489h-129zM181 -481q28 35 51 74t25 79q-51 0 -73.5 19t-22.5 71q0 47 22 70t76 23q51 0 75 -26.5t24 -80.5q0 -38 -8 -69.5t-22 -59t-32.5 -52t-40.5 -48.5h-74z" />
    <glyph glyph-name="Lcaron" unicode="&#x13d;" horiz-adv-x="1038" 
d="M199 0v1384h135v-1261h649v-123h-784zM608 1025h-92l80 361h162z" />
    <glyph glyph-name="lcaron" unicode="&#x13e;" horiz-adv-x="575" 
d="M195 0v1489h129v-1489h-129zM525 1128h-92l80 361h162z" />
    <glyph glyph-name="Ldot" unicode="&#x13f;" horiz-adv-x="1038" 
d="M199 0v1384h135v-1261h649v-123h-784zM839 731q0 -53 -21.5 -74t-74.5 -21q-29 0 -48 6.5t-29.5 19t-14.5 30t-4 39.5q0 48 21 72t75 24q56 0 76 -23.5t20 -72.5z" />
    <glyph glyph-name="ldot" unicode="&#x140;" horiz-adv-x="659" 
d="M195 0v1489h129v-1489h-129zM680 731q0 -53 -21.5 -74t-74.5 -21q-29 0 -48 6.5t-29.5 19t-14.5 30t-4 39.5q0 48 21 72t75 24q56 0 76 -23.5t20 -72.5z" />
    <glyph glyph-name="Lslash" unicode="&#x141;" horiz-adv-x="1038" 
d="M199 0v518l-158 -129v131l158 129v735h135v-636l262 215v-132l-262 -215v-493h649v-123h-784z" />
    <glyph glyph-name="lslash" unicode="&#x142;" horiz-adv-x="518" 
d="M324 743v-743h-129v651l-154 -121v129l154 121v709h129v-617l153 121v-129z" />
    <glyph glyph-name="Nacute" unicode="&#x143;" horiz-adv-x="1374" 
d="M1016 0l-686 1235v-1235h-131v1384h196l647 -1165v1165h134v-1384h-160zM682 1544h-104l186 361h178z" />
    <glyph glyph-name="nacute" unicode="&#x144;" horiz-adv-x="1137" 
d="M834 0v651q0 88 -8 147t-28 94t-54.5 49.5t-86.5 14.5q-69 0 -160 -51.5t-186 -142.5v-762h-129v1049h129v-166q45 43 90.5 79t92 62t93.5 40.5t95 14.5q84 0 138 -25t86 -73.5t44.5 -119t12.5 -161.5v-700h-129zM569 1208h-104l186 361h178z" />
    <glyph glyph-name="Ncommaaccent" unicode="&#x145;" horiz-adv-x="1374" 
d="M1016 0l-686 1235v-1235h-131v1384h196l647 -1165v1165h134v-1384h-160zM622 -481q28 35 51 74t25 79q-51 0 -73.5 19t-22.5 71q0 47 22 70t76 23q51 0 75 -26.5t24 -80.5q0 -38 -8 -69.5t-22 -59t-32.5 -52t-40.5 -48.5h-74z" />
    <glyph glyph-name="ncommaaccent" unicode="&#x146;" horiz-adv-x="1137" 
d="M834 0v651q0 88 -8 147t-28 94t-54.5 49.5t-86.5 14.5q-69 0 -160 -51.5t-186 -142.5v-762h-129v1049h129v-166q45 43 90.5 79t92 62t93.5 40.5t95 14.5q84 0 138 -25t86 -73.5t44.5 -119t12.5 -161.5v-700h-129zM493 -481q28 35 51 74t25 79q-51 0 -73.5 19t-22.5 71
q0 47 22 70t76 23q51 0 75 -26.5t24 -80.5q0 -38 -8 -69.5t-22 -59t-32.5 -52t-40.5 -48.5h-74z" />
    <glyph glyph-name="Ncaron" unicode="&#x147;" horiz-adv-x="1374" 
d="M1016 0l-686 1235v-1235h-131v1384h196l647 -1165v1165h134v-1384h-160zM766 1544h-168l-229 361h110l203 -264l203 264h110z" />
    <glyph glyph-name="ncaron" unicode="&#x148;" horiz-adv-x="1137" 
d="M834 0v651q0 88 -8 147t-28 94t-54.5 49.5t-86.5 14.5q-69 0 -160 -51.5t-186 -142.5v-762h-129v1049h129v-166q45 43 90.5 79t92 62t93.5 40.5t95 14.5q84 0 138 -25t86 -73.5t44.5 -119t12.5 -161.5v-700h-129zM657 1208h-168l-229 361h110l203 -264l203 264h110z" />
    <glyph glyph-name="napostrophe" unicode="&#x149;" horiz-adv-x="1235" 
d="M932 0v651q0 88 -8 147t-28 94t-54.5 49.5t-86.5 14.5q-69 0 -160 -51.5t-186 -142.5v-762h-129v1049h129v-166q45 43 90.5 79t92 62t93.5 40.5t95 14.5q84 0 138 -25t86 -73.5t44.5 -119t12.5 -161.5v-700h-129zM223 1296q0 -52 -9 -103.5t-24 -97t-34 -83t-38 -62.5
h-76q20 27 35 64.5t25 76.5t15 75t5 61q-54 0 -75 21t-21 71q0 48 22 71t74 23q57 0 79 -30.5t22 -86.5z" />
    <glyph glyph-name="Eng" unicode="&#x14a;" horiz-adv-x="1374" 
d="M686 -246q35 -17 79.5 -27t92.5 -10q55 0 91 17.5t56.5 53t28.5 89.5t8 127l-712 1231v-1235h-131v1384h196l647 -1130v1130h134v-1407q0 -91 -16.5 -160.5t-54 -116.5t-99 -71t-152.5 -24q-25 0 -52.5 3t-55 8t-53 12t-46.5 16z" />
    <glyph glyph-name="eng" unicode="&#x14b;" horiz-adv-x="1137" 
d="M182 0v1049h129v-166q45 43 90.5 79t91.5 62t93 40.5t96 14.5q81 0 135.5 -24t86.5 -71t45.5 -118.5t13.5 -165.5v-745q0 -91 -14.5 -157t-47.5 -109t-87.5 -63.5t-135.5 -20.5q-37 0 -85 7.5t-93 22.5l30 107q32 -14 71 -21.5t81 -7.5q43 0 72 13.5t47 43.5t25.5 77.5
t7.5 115.5v688q0 85 -7 143.5t-26.5 94.5t-54 51.5t-89.5 15.5q-35 0 -75.5 -13t-84.5 -38t-91 -61t-95 -82v-762h-129z" />
    <glyph glyph-name="Omacron" unicode="&#x14c;" horiz-adv-x="1364" 
d="M1229 692q0 -167 -29 -300.5t-94 -227t-169.5 -143.5t-254.5 -50t-254 50t-169 144t-94.5 227t-29.5 300q0 166 29.5 299.5t94.5 227t169 144t254 50.5t254.5 -50t169.5 -143t94 -226.5t29 -301.5zM1083 692q0 144 -21 255.5t-68 187.5t-124 115.5t-188 39.5
q-112 0 -189 -39t-124.5 -115t-68.5 -187.5t-21 -256.5q0 -144 21 -255t68.5 -187.5t124.5 -116t189 -39.5q111 0 188 39.5t124 115.5t68 187.5t21 255.5zM389 1591v111h580v-111h-580z" />
    <glyph glyph-name="omacron" unicode="&#x14d;" horiz-adv-x="1141" 
d="M1012 522q0 -125 -24 -226.5t-77 -174.5t-137 -112.5t-203 -39.5t-203 39.5t-137 112.5t-77.5 174.5t-24.5 226.5q0 122 24 224.5t77 176.5t137 115t204 41q117 0 200.5 -39.5t137 -112.5t78.5 -175.5t25 -229.5zM877 522q0 106 -16 189t-52 140t-94.5 86.5t-143.5 29.5
q-86 0 -145 -30.5t-95.5 -88t-52.5 -140t-16 -186.5t16.5 -186t53 -139t95.5 -87t144 -30q83 0 141.5 29.5t95 86.5t53 139t16.5 187zM278 1255v111h580v-111h-580z" />
    <glyph glyph-name="Obreve" unicode="&#x14e;" horiz-adv-x="1364" 
d="M1229 692q0 -167 -29 -300.5t-94 -227t-169.5 -143.5t-254.5 -50t-254 50t-169 144t-94.5 227t-29.5 300q0 166 29.5 299.5t94.5 227t169 144t254 50.5t254.5 -50t169.5 -143t94 -226.5t29 -301.5zM1083 692q0 144 -21 255.5t-68 187.5t-124 115.5t-188 39.5
q-112 0 -189 -39t-124.5 -115t-68.5 -187.5t-21 -256.5q0 -144 21 -255t68.5 -187.5t124.5 -116t189 -39.5q111 0 188 39.5t124 115.5t68 187.5t21 255.5zM989 1804q-1 -51 -17.5 -98t-54 -83.5t-98 -58.5t-147.5 -22q-78 0 -135.5 22t-95 58.5t-55.5 83.5t-19 98h98
q12 -69 65 -106t140 -37q54 0 93.5 8.5t65.5 25.5t41 44t21 65h98z" />
    <glyph glyph-name="obreve" unicode="&#x14f;" horiz-adv-x="1141" 
d="M1012 522q0 -125 -24 -226.5t-77 -174.5t-137 -112.5t-203 -39.5t-203 39.5t-137 112.5t-77.5 174.5t-24.5 226.5q0 122 24 224.5t77 176.5t137 115t204 41q117 0 200.5 -39.5t137 -112.5t78.5 -175.5t25 -229.5zM877 522q0 106 -16 189t-52 140t-94.5 86.5t-143.5 29.5
q-86 0 -145 -30.5t-95.5 -88t-52.5 -140t-16 -186.5t16.5 -186t53 -139t95.5 -87t144 -30q83 0 141.5 29.5t95 86.5t53 139t16.5 187zM887 1468q-1 -51 -17.5 -98t-54 -83.5t-98 -58.5t-147.5 -22q-78 0 -135.5 22t-95 58.5t-55.5 83.5t-19 98h98q12 -69 65 -106t140 -37
q54 0 93.5 8.5t65.5 25.5t41 44t21 65h98z" />
    <glyph glyph-name="Ohungarumlaut" unicode="&#x150;" horiz-adv-x="1364" 
d="M1229 692q0 -167 -29 -300.5t-94 -227t-169.5 -143.5t-254.5 -50t-254 50t-169 144t-94.5 227t-29.5 300q0 166 29.5 299.5t94.5 227t169 144t254 50.5t254.5 -50t169.5 -143t94 -226.5t29 -301.5zM1083 692q0 144 -21 255.5t-68 187.5t-124 115.5t-188 39.5
q-112 0 -189 -39t-124.5 -115t-68.5 -187.5t-21 -256.5q0 -144 21 -255t68.5 -187.5t124.5 -116t189 -39.5q111 0 188 39.5t124 115.5t68 187.5t21 255.5zM858 1544h-104l192 361h176zM543 1544h-105l195 361h174z" />
    <glyph glyph-name="ohungarumlaut" unicode="&#x151;" horiz-adv-x="1141" 
d="M1012 522q0 -125 -24 -226.5t-77 -174.5t-137 -112.5t-203 -39.5t-203 39.5t-137 112.5t-77.5 174.5t-24.5 226.5q0 122 24 224.5t77 176.5t137 115t204 41q117 0 200.5 -39.5t137 -112.5t78.5 -175.5t25 -229.5zM877 522q0 106 -16 189t-52 140t-94.5 86.5t-143.5 29.5
q-86 0 -145 -30.5t-95.5 -88t-52.5 -140t-16 -186.5t16.5 -186t53 -139t95.5 -87t144 -30q83 0 141.5 29.5t95 86.5t53 139t16.5 187zM756 1208h-104l192 361h176zM441 1208h-105l195 361h174z" />
    <glyph glyph-name="OE" unicode="&#x152;" horiz-adv-x="1835" 
d="M954 0q-51 -14 -108 -21.5t-119 -7.5q-165 0 -277.5 50t-181.5 144t-99 227t-30 300q0 168 29.5 301.5t98.5 226.5t181.5 143t278.5 50q60 0 115.5 -8t109.5 -21h746v-122h-633v-469h545v-123h-545v-547h633v-123h-744zM928 1257q-41 16 -93 25.5t-106 9.5
q-122 0 -207 -36t-137.5 -109.5t-76 -187t-23.5 -267.5q0 -164 26.5 -278.5t81 -186t138.5 -103.5t198 -32q51 0 104.5 8.5t94.5 24.5v1132z" />
    <glyph glyph-name="oe" unicode="&#x153;" horiz-adv-x="1792" 
d="M1006 524q-1 -110 12.5 -193t47.5 -139t91.5 -84t145.5 -28q41 0 76 7.5t66 25t58 45t53 67.5l105 -67q-29 -45 -62.5 -80t-76 -59t-96.5 -37t-123 -13q-134 0 -226 51.5t-139 167.5q-51 -104 -141 -161.5t-226 -57.5q-119 0 -203 39.5t-137 112.5t-77.5 174.5
t-24.5 226.5q0 122 24 224.5t77 176.5t137 115t204 41q135 0 228 -60.5t139 -166.5q45 112 134 169.5t222 57.5q102 0 175 -32t119.5 -92.5t68.5 -148t22 -198.5v-84h-673zM1552 629q-2 177 -64.5 259.5t-195.5 82.5q-71 0 -122.5 -20t-86 -61.5t-53.5 -106t-24 -154.5h546z
M877 518q0 97 -14 179.5t-49 142.5t-94 93.5t-149 33.5q-86 0 -145 -30.5t-95.5 -88t-52.5 -140t-16 -186.5t16.5 -186t53 -139t95.5 -87t144 -30q86 0 144.5 32t94.5 89.5t51.5 138t15.5 178.5z" />
    <glyph glyph-name="Racute" unicode="&#x154;" horiz-adv-x="1212" 
d="M979 0l-354 586h-291v-586h-135v1384h393q114 0 200.5 -20t145.5 -65.5t89 -119t30 -180.5q0 -92 -19.5 -159.5t-57 -114.5t-92 -75.5t-124.5 -43.5l377 -606h-162zM913 993q0 73 -17 124.5t-55 84t-99.5 47.5t-151.5 15h-256v-557h250q94 0 157 15.5t101 49.5t54.5 88.5
t16.5 132.5zM606 1544h-104l186 361h178z" />
    <glyph glyph-name="racute" unicode="&#x155;" horiz-adv-x="797" 
d="M717 922q-35 14 -76 14q-48 0 -87.5 -12t-77.5 -36t-77.5 -59.5t-87.5 -83.5v-745h-129v1049h129v-181q45 45 85.5 81.5t81 62t82 39.5t87.5 14q29 0 53 -5t45 -16zM421 1208h-104l186 361h178z" />
    <glyph glyph-name="Rcommaaccent" unicode="&#x156;" horiz-adv-x="1212" 
d="M979 0l-354 586h-291v-586h-135v1384h393q114 0 200.5 -20t145.5 -65.5t89 -119t30 -180.5q0 -92 -19.5 -159.5t-57 -114.5t-92 -75.5t-124.5 -43.5l377 -606h-162zM913 993q0 73 -17 124.5t-55 84t-99.5 47.5t-151.5 15h-256v-557h250q94 0 157 15.5t101 49.5t54.5 88.5
t16.5 132.5zM540 -481q28 35 51 74t25 79q-51 0 -73.5 19t-22.5 71q0 47 22 70t76 23q51 0 75 -26.5t24 -80.5q0 -38 -8 -69.5t-22 -59t-32.5 -52t-40.5 -48.5h-74z" />
    <glyph glyph-name="rcommaaccent" unicode="&#x157;" horiz-adv-x="797" 
d="M717 922q-35 14 -76 14q-48 0 -87.5 -12t-77.5 -36t-77.5 -59.5t-87.5 -83.5v-745h-129v1049h129v-181q45 45 85.5 81.5t81 62t82 39.5t87.5 14q29 0 53 -5t45 -16zM173 -481q28 35 51 74t25 79q-51 0 -73.5 19t-22.5 71q0 47 22 70t76 23q51 0 75 -26.5t24 -80.5
q0 -38 -8 -69.5t-22 -59t-32.5 -52t-40.5 -48.5h-74z" />
    <glyph glyph-name="Rcaron" unicode="&#x158;" horiz-adv-x="1212" 
d="M979 0l-354 586h-291v-586h-135v1384h393q114 0 200.5 -20t145.5 -65.5t89 -119t30 -180.5q0 -92 -19.5 -159.5t-57 -114.5t-92 -75.5t-124.5 -43.5l377 -606h-162zM913 993q0 73 -17 124.5t-55 84t-99.5 47.5t-151.5 15h-256v-557h250q94 0 157 15.5t101 49.5t54.5 88.5
t16.5 132.5zM686 1544h-168l-229 361h110l203 -264l203 264h110z" />
    <glyph glyph-name="rcaron" unicode="&#x159;" horiz-adv-x="797" 
d="M717 922q-35 14 -76 14q-48 0 -87.5 -12t-77.5 -36t-77.5 -59.5t-87.5 -83.5v-745h-129v1049h129v-181q45 45 85.5 81.5t81 62t82 39.5t87.5 14q29 0 53 -5t45 -16zM534 1208h-168l-229 361h110l203 -264l203 264h110z" />
    <glyph glyph-name="Sacute" unicode="&#x15a;" horiz-adv-x="1225" 
d="M1096 362q0 -107 -38 -181t-103 -121t-153 -68t-188 -21q-105 0 -184 21t-138.5 57.5t-103 87.5t-77.5 111l116 69q20 -40 52 -79.5t78 -71.5t107.5 -52t141.5 -20q73 0 136.5 15t110.5 47t74 81.5t27 118.5q0 64 -21 108.5t-64 77t-109 56.5t-156 47q-120 31 -207 60.5
t-144 71t-84.5 101t-27.5 150.5q0 86 28 157t84.5 121.5t141.5 78.5t199 28q86 0 156 -17.5t126 -50t100 -78.5t79 -104l-113 -76q-26 45 -59 82.5t-75 64.5t-94.5 41.5t-117.5 14.5q-79 0 -138 -18t-98 -51t-58 -80t-19 -105q0 -56 17.5 -93.5t58.5 -65t109 -50t169 -47.5
q107 -27 192 -58t144.5 -77t91 -113.5t31.5 -169.5zM600 1544h-104l186 361h178z" />
    <glyph glyph-name="sacute" unicode="&#x15b;" horiz-adv-x="973" 
d="M856 268q0 -74 -25.5 -130t-74 -93.5t-118 -56.5t-157.5 -19q-81 0 -142 17.5t-105.5 44.5t-73 59.5t-43.5 63.5l104 65q35 -63 98.5 -101t163.5 -38q52 0 97 8.5t78 29.5t52 56.5t19 89.5q0 42 -12 72.5t-42.5 54t-82.5 42.5t-133 40q-84 22 -144.5 47t-100 60.5
t-58.5 85t-19 120.5q0 58 21.5 111.5t66 93.5t111.5 64t158 24q69 0 123.5 -15t96.5 -40.5t72 -59.5t50 -71l-105 -62q-15 28 -36.5 53t-50 43.5t-65.5 29t-85 10.5q-107 0 -168.5 -47t-61.5 -132q0 -41 11 -70t37 -50.5t70.5 -38.5t111.5 -35q101 -27 170.5 -55t112 -65
t61 -86.5t18.5 -119.5zM505 1208h-104l186 361h178z" />
    <glyph glyph-name="Scircumflex" unicode="&#x15c;" horiz-adv-x="1225" 
d="M1096 362q0 -107 -38 -181t-103 -121t-153 -68t-188 -21q-105 0 -184 21t-138.5 57.5t-103 87.5t-77.5 111l116 69q20 -40 52 -79.5t78 -71.5t107.5 -52t141.5 -20q73 0 136.5 15t110.5 47t74 81.5t27 118.5q0 64 -21 108.5t-64 77t-109 56.5t-156 47q-120 31 -207 60.5
t-144 71t-84.5 101t-27.5 150.5q0 86 28 157t84.5 121.5t141.5 78.5t199 28q86 0 156 -17.5t126 -50t100 -78.5t79 -104l-113 -76q-26 45 -59 82.5t-75 64.5t-94.5 41.5t-117.5 14.5q-79 0 -138 -18t-98 -51t-58 -80t-19 -105q0 -56 17.5 -93.5t58.5 -65t109 -50t169 -47.5
q107 -27 192 -58t144.5 -77t91 -113.5t31.5 -169.5zM805 1544l-203 265l-203 -265h-110l229 361h168l229 -361h-110z" />
    <glyph glyph-name="scircumflex" unicode="&#x15d;" horiz-adv-x="973" 
d="M856 268q0 -74 -25.5 -130t-74 -93.5t-118 -56.5t-157.5 -19q-81 0 -142 17.5t-105.5 44.5t-73 59.5t-43.5 63.5l104 65q35 -63 98.5 -101t163.5 -38q52 0 97 8.5t78 29.5t52 56.5t19 89.5q0 42 -12 72.5t-42.5 54t-82.5 42.5t-133 40q-84 22 -144.5 47t-100 60.5
t-58.5 85t-19 120.5q0 58 21.5 111.5t66 93.5t111.5 64t158 24q69 0 123.5 -15t96.5 -40.5t72 -59.5t50 -71l-105 -62q-15 28 -36.5 53t-50 43.5t-65.5 29t-85 10.5q-107 0 -168.5 -47t-61.5 -132q0 -41 11 -70t37 -50.5t70.5 -38.5t111.5 -35q101 -27 170.5 -55t112 -65
t61 -86.5t18.5 -119.5zM698 1208l-203 265l-203 -265h-110l229 361h168l229 -361h-110z" />
    <glyph glyph-name="Scedilla" unicode="&#x15e;" horiz-adv-x="1225" 
d="M823 -213q0 -45 -18.5 -79.5t-51.5 -57t-77.5 -34t-95.5 -11.5q-32 0 -66 4.5t-65.5 11t-57 15t-39.5 16.5l39 80q18 -7 40.5 -13.5t47.5 -12t51 -8.5t52 -3q68 0 102.5 25t34.5 71q0 29 -14 50t-39 35.5t-59.5 22t-76.5 9.5l33 65q-92 5 -162.5 27.5t-124.5 58.5
t-94 84.5t-71 104.5l116 69q20 -40 52 -79.5t78 -71.5t107.5 -52t141.5 -20q73 0 136.5 15t110.5 47t74 81.5t27 118.5q0 64 -21 108.5t-64 77t-109 56.5t-156 47q-120 31 -207 60.5t-144 71t-84.5 101t-27.5 150.5q0 86 28 157t84.5 121.5t141.5 78.5t199 28
q86 0 156 -17.5t126 -50t100 -78.5t79 -104l-113 -76q-26 45 -59 82.5t-75 64.5t-94.5 41.5t-117.5 14.5q-79 0 -138 -18t-98 -51t-58 -80t-19 -105q0 -56 17.5 -93.5t58.5 -65t109 -50t169 -47.5q107 -27 192 -58t144.5 -77t91 -113.5t31.5 -169.5t-34.5 -174.5t-95 -119
t-142 -70t-175.5 -27.5l-2 -6q90 -18 133 -63.5t43 -114.5z" />
    <glyph glyph-name="scedilla" unicode="&#x15f;" horiz-adv-x="973" 
d="M688 -213q0 -45 -18.5 -79.5t-51.5 -57t-77.5 -34t-96.5 -11.5q-32 0 -66 4.5t-65 11t-56.5 15t-39.5 16.5l39 80q18 -7 40.5 -13.5t47 -12t51 -8.5t51.5 -3q69 0 103.5 25t34.5 71q0 29 -14 50t-39 35.5t-59.5 22t-76.5 9.5l33 63q-68 6 -120 24.5t-90 44.5t-62.5 56
t-38.5 58l104 65q35 -63 98.5 -101t163.5 -38q52 0 97 8.5t78 29.5t52 56.5t19 89.5q0 42 -12 72.5t-42.5 54t-82.5 42.5t-133 40q-84 22 -144.5 47t-100 60.5t-58.5 85t-19 120.5q0 58 21.5 111.5t66 93.5t111.5 64t158 24q69 0 123.5 -15t96.5 -40.5t72 -59.5t50 -71
l-105 -62q-15 28 -36.5 53t-50 43.5t-65.5 29t-85 10.5q-107 0 -168.5 -47t-61.5 -132q0 -41 11 -70t37 -50.5t70.5 -38.5t111.5 -35q101 -27 170.5 -55t112 -65t61 -86.5t18.5 -119.5q0 -71 -23 -124.5t-67 -91t-107.5 -58.5t-144.5 -25l-2 -4q90 -18 133 -63.5t43 -114.5z
" />
    <glyph glyph-name="Scaron" unicode="&#x160;" horiz-adv-x="1225" 
d="M1096 362q0 -107 -38 -181t-103 -121t-153 -68t-188 -21q-105 0 -184 21t-138.5 57.5t-103 87.5t-77.5 111l116 69q20 -40 52 -79.5t78 -71.5t107.5 -52t141.5 -20q73 0 136.5 15t110.5 47t74 81.5t27 118.5q0 64 -21 108.5t-64 77t-109 56.5t-156 47q-120 31 -207 60.5
t-144 71t-84.5 101t-27.5 150.5q0 86 28 157t84.5 121.5t141.5 78.5t199 28q86 0 156 -17.5t126 -50t100 -78.5t79 -104l-113 -76q-26 45 -59 82.5t-75 64.5t-94.5 41.5t-117.5 14.5q-79 0 -138 -18t-98 -51t-58 -80t-19 -105q0 -56 17.5 -93.5t58.5 -65t109 -50t169 -47.5
q107 -27 192 -58t144.5 -77t91 -113.5t31.5 -169.5zM680 1544h-168l-229 361h110l203 -264l203 264h110z" />
    <glyph glyph-name="scaron" unicode="&#x161;" horiz-adv-x="973" 
d="M856 268q0 -74 -25.5 -130t-74 -93.5t-118 -56.5t-157.5 -19q-81 0 -142 17.5t-105.5 44.5t-73 59.5t-43.5 63.5l104 65q35 -63 98.5 -101t163.5 -38q52 0 97 8.5t78 29.5t52 56.5t19 89.5q0 42 -12 72.5t-42.5 54t-82.5 42.5t-133 40q-84 22 -144.5 47t-100 60.5
t-58.5 85t-19 120.5q0 58 21.5 111.5t66 93.5t111.5 64t158 24q69 0 123.5 -15t96.5 -40.5t72 -59.5t50 -71l-105 -62q-15 28 -36.5 53t-50 43.5t-65.5 29t-85 10.5q-107 0 -168.5 -47t-61.5 -132q0 -41 11 -70t37 -50.5t70.5 -38.5t111.5 -35q101 -27 170.5 -55t112 -65
t61 -86.5t18.5 -119.5zM575 1208h-168l-229 361h110l203 -264l203 264h110z" />
    <glyph glyph-name="uni0162" unicode="&#x162;" horiz-adv-x="1174" 
d="M793 -213q0 -45 -19 -79.5t-52 -57t-77.5 -34t-95.5 -11.5q-32 0 -66 4.5t-65 11t-56.5 15t-39.5 16.5l38 80q38 -14 89 -25.5t102 -11.5q69 0 103 25t34 71q0 29 -14 50t-38.5 35.5t-59 22t-74.5 9.5l47 92h-31v1262h-475v122h1085v-122h-475v-1262h-20l-17 -35
q90 -18 133.5 -63.5t43.5 -114.5z" />
    <glyph glyph-name="uni0163" unicode="&#x163;" horiz-adv-x="723" 
d="M643 -213q0 -45 -18.5 -79.5t-51.5 -57t-77.5 -34t-96.5 -11.5q-32 0 -65.5 4.5t-64.5 11t-56.5 15t-40.5 16.5l39 80q37 -14 88 -25.5t102 -11.5q56 0 88.5 16.5t40.5 50.5q10 30 -6 58q-12 42 -55.5 62.5t-116.5 23.5l37 74q-49 11 -82.5 36.5t-54.5 66.5t-30 99
t-9 135v621h-158v111h158v292h129v-292h276v-111h-276v-606q0 -73 7 -122t24.5 -78t47.5 -41.5t77 -12.5q35 0 76.5 8.5t70.5 19.5l33 -104q-32 -12 -71 -20.5t-83 -10.5q-14 -2 -27.5 -2h-25.5q-2 -2 -2 -3t-2 -3q90 -18 133 -62.5t43 -113.5z" />
    <glyph glyph-name="Tcaron" unicode="&#x164;" horiz-adv-x="1174" 
d="M653 1262v-1262h-135v1262h-475v122h1085v-122h-475zM670 1544h-168l-229 361h110l203 -264l203 264h110z" />
    <glyph glyph-name="tcaron" unicode="&#x165;" horiz-adv-x="723" 
d="M678 2q-40 -14 -89 -23.5t-100 -9.5q-78 0 -131 19.5t-85 61.5t-46 108t-14 159v621h-158v111h158v292h129v-292h276v-111h-276v-606q0 -73 7 -122t24.5 -78t47.5 -41.5t77 -12.5q35 0 76.5 8.5t70.5 19.5zM557 1128h-92l80 361h162z" />
    <glyph glyph-name="Tbar" unicode="&#x166;" horiz-adv-x="1174" 
d="M653 1262v-482h224v-108h-224v-672h-135v672h-221v108h221v482h-475v122h1085v-122h-475z" />
    <glyph glyph-name="tbar" unicode="&#x167;" horiz-adv-x="723" 
d="M342 608v-276q0 -73 7 -122t24.5 -78t47.5 -41.5t77 -12.5q35 0 76.5 8.5t70.5 19.5l33 -104q-40 -14 -89 -23.5t-100 -9.5q-78 0 -131 19.5t-85 61.5t-46 108t-14 159v291h-172v109h172v221h-158v111h158v292h129v-292h276v-111h-276v-221h279v-109h-279z" />
    <glyph glyph-name="Utilde" unicode="&#x168;" horiz-adv-x="1378" 
d="M1184 578q0 -170 -26 -286.5t-84.5 -188t-152.5 -103t-229 -31.5q-141 0 -237 32.5t-154 105t-83 188.5t-25 283v806h135v-786q0 -144 17 -241t59 -156.5t111.5 -85t174.5 -25.5q106 0 175.5 25.5t110 85t57 156t16.5 237.5v790h135v-806zM340 1550q5 118 60 177t149 59
q37 0 68 -10.5t57 -26.5t49 -34.5t45 -34.5t44.5 -26.5t48.5 -10.5q51 0 77 32t31 101h94q-3 -115 -58.5 -174.5t-149.5 -59.5q-43 0 -74.5 11t-56.5 27t-45.5 35t-41.5 35t-44.5 27t-53.5 11q-51 0 -75 -34t-29 -104h-95z" />
    <glyph glyph-name="utilde" unicode="&#x169;" horiz-adv-x="1137" 
d="M825 0v166q-44 -42 -89.5 -78.5t-92 -62.5t-93 -41t-93.5 -15q-85 0 -139.5 25t-86.5 73.5t-44.5 119t-12.5 161.5v701h129v-654q0 -88 7.5 -146.5t27 -94t53.5 -50t86 -14.5q71 0 161 52t187 145v762h129v-1049h-129zM202 1214q5 118 60 177t149 59q37 0 68 -10.5
t57 -26.5t49 -34.5t45 -34.5t44.5 -26.5t48.5 -10.5q51 0 77 32t31 101h94q-3 -115 -58.5 -174.5t-149.5 -59.5q-43 0 -74.5 11t-56.5 27t-45.5 35t-41.5 35t-44.5 27t-53.5 11q-51 0 -75 -34t-29 -104h-95z" />
    <glyph glyph-name="Umacron" unicode="&#x16a;" horiz-adv-x="1378" 
d="M1184 578q0 -170 -26 -286.5t-84.5 -188t-152.5 -103t-229 -31.5q-141 0 -237 32.5t-154 105t-83 188.5t-25 283v806h135v-786q0 -144 17 -241t59 -156.5t111.5 -85t174.5 -25.5q106 0 175.5 25.5t110 85t57 156t16.5 237.5v790h135v-806zM399 1591v111h580v-111h-580z
" />
    <glyph glyph-name="umacron" unicode="&#x16b;" horiz-adv-x="1137" 
d="M825 0v166q-44 -42 -89.5 -78.5t-92 -62.5t-93 -41t-93.5 -15q-85 0 -139.5 25t-86.5 73.5t-44.5 119t-12.5 161.5v701h129v-654q0 -88 7.5 -146.5t27 -94t53.5 -50t86 -14.5q71 0 161 52t187 145v762h129v-1049h-129zM272 1255v111h580v-111h-580z" />
    <glyph glyph-name="Ubreve" unicode="&#x16c;" horiz-adv-x="1378" 
d="M1184 578q0 -170 -26 -286.5t-84.5 -188t-152.5 -103t-229 -31.5q-141 0 -237 32.5t-154 105t-83 188.5t-25 283v806h135v-786q0 -144 17 -241t59 -156.5t111.5 -85t174.5 -25.5q106 0 175.5 25.5t110 85t57 156t16.5 237.5v790h135v-806zM1005 1804q-1 -51 -17.5 -98
t-54 -83.5t-98 -58.5t-147.5 -22q-78 0 -135.5 22t-95 58.5t-55.5 83.5t-19 98h98q12 -69 65 -106t140 -37q54 0 93.5 8.5t65.5 25.5t41 44t21 65h98z" />
    <glyph glyph-name="ubreve" unicode="&#x16d;" horiz-adv-x="1137" 
d="M825 0v166q-44 -42 -89.5 -78.5t-92 -62.5t-93 -41t-93.5 -15q-85 0 -139.5 25t-86.5 73.5t-44.5 119t-12.5 161.5v701h129v-654q0 -88 7.5 -146.5t27 -94t53.5 -50t86 -14.5q71 0 161 52t187 145v762h129v-1049h-129zM880 1468q-1 -51 -17.5 -98t-54 -83.5t-98 -58.5
t-147.5 -22q-78 0 -135.5 22t-95 58.5t-55.5 83.5t-19 98h98q12 -69 65 -106t140 -37q54 0 93.5 8.5t65.5 25.5t41 44t21 65h98z" />
    <glyph glyph-name="Uring" unicode="&#x16e;" horiz-adv-x="1378" 
d="M1184 578q0 -170 -26 -286.5t-84.5 -188t-152.5 -103t-229 -31.5q-141 0 -237 32.5t-154 105t-83 188.5t-25 283v806h135v-786q0 -144 17 -241t59 -156.5t111.5 -85t174.5 -25.5q106 0 175.5 25.5t110 85t57 156t16.5 237.5v790h135v-806zM874 1677q0 -40 -11 -73
t-33.5 -57t-56.5 -37t-81 -13q-49 0 -83.5 14t-56 38.5t-31 57t-9.5 70.5q0 39 10.5 72.5t32.5 57.5t56 37.5t81 13.5q94 0 138 -49.5t44 -131.5zM792 1677q0 103 -100 103q-48 0 -74 -26.5t-26 -76.5q0 -46 22 -75t78 -29q54 0 77 27.5t23 76.5z" />
    <glyph glyph-name="uring" unicode="&#x16f;" horiz-adv-x="1137" 
d="M825 0v166q-44 -42 -89.5 -78.5t-92 -62.5t-93 -41t-93.5 -15q-85 0 -139.5 25t-86.5 73.5t-44.5 119t-12.5 161.5v701h129v-654q0 -88 7.5 -146.5t27 -94t53.5 -50t86 -14.5q71 0 161 52t187 145v762h129v-1049h-129zM735 1341q0 -40 -11 -73t-33.5 -57t-56.5 -37
t-81 -13q-49 0 -83.5 14t-56 38.5t-31 57t-9.5 70.5q0 39 10.5 72.5t32.5 57.5t56 37.5t81 13.5q94 0 138 -49.5t44 -131.5zM653 1341q0 103 -100 103q-48 0 -74 -26.5t-26 -76.5q0 -46 22 -75t78 -29q54 0 77 27.5t23 76.5z" />
    <glyph glyph-name="Uhungarumlaut" unicode="&#x170;" horiz-adv-x="1378" 
d="M1184 578q0 -170 -26 -286.5t-84.5 -188t-152.5 -103t-229 -31.5q-141 0 -237 32.5t-154 105t-83 188.5t-25 283v806h135v-786q0 -144 17 -241t59 -156.5t111.5 -85t174.5 -25.5q106 0 175.5 25.5t110 85t57 156t16.5 237.5v790h135v-806zM864 1544h-104l192 361h176z
M549 1544h-105l195 361h174z" />
    <glyph glyph-name="uhungarumlaut" unicode="&#x171;" horiz-adv-x="1137" 
d="M825 0v166q-44 -42 -89.5 -78.5t-92 -62.5t-93 -41t-93.5 -15q-85 0 -139.5 25t-86.5 73.5t-44.5 119t-12.5 161.5v701h129v-654q0 -88 7.5 -146.5t27 -94t53.5 -50t86 -14.5q71 0 161 52t187 145v762h129v-1049h-129zM747 1208h-104l192 361h176zM432 1208h-105l195 361
h174z" />
    <glyph glyph-name="Uogonek" unicode="&#x172;" horiz-adv-x="1378" 
d="M1184 578q0 -166 -24.5 -279t-78.5 -184q-38 -59 -64.5 -107t-42.5 -87t-23 -69.5t-7 -54.5q0 -43 20 -61.5t60 -18.5q34 0 68.5 12.5t66.5 30.5l41 -82q-45 -32 -94.5 -48.5t-95.5 -16.5q-81 0 -128.5 42t-47.5 124q0 52 19 108t50 109q-45 -14 -97 -20.5t-114 -6.5
q-141 0 -237 32.5t-154 105t-83 188.5t-25 283v806h135v-786q0 -144 17 -241t59 -156.5t111.5 -85t174.5 -25.5q106 0 175.5 25.5t110 85t57 156t16.5 237.5v790h135v-806z" />
    <glyph glyph-name="uogonek" unicode="&#x173;" horiz-adv-x="1137" 
d="M956 -322q-45 -32 -94.5 -48.5t-95.5 -16.5q-81 0 -128.5 43t-47.5 131q0 32 10.5 64.5t36.5 64t71.5 61.5t116.5 58v131q-44 -42 -89.5 -78.5t-92 -62.5t-93 -41t-93.5 -15q-85 0 -139.5 25t-86.5 73.5t-44.5 119t-12.5 161.5v701h129v-654q0 -88 7.5 -146.5t27 -94
t53.5 -50t86 -14.5q71 0 161 52t187 145v762h129v-1049q-82 -28 -132 -53.5t-77 -50.5t-36 -48.5t-9 -46.5q0 -43 21 -63.5t59 -20.5q34 0 68.5 12.5t66.5 30.5z" />
    <glyph glyph-name="Wcircumflex" unicode="&#x174;" horiz-adv-x="1718" 
d="M1313 0h-176l-281 1204l-283 -1204h-170l-323 1384h137l277 -1202l278 1202h168l287 -1212l278 1212h133zM1061 1544l-203 265l-203 -265h-110l229 361h168l229 -361h-110z" />
    <glyph glyph-name="wcircumflex" unicode="&#x175;" horiz-adv-x="1430" 
d="M1104 0h-125l-264 870l-264 -870h-125l-244 1049h133l186 -861l258 861h117l262 -861l181 861h129zM928 1208l-203 265l-203 -265h-110l229 361h168l229 -361h-110z" />
    <glyph glyph-name="Ycircumflex" unicode="&#x176;" horiz-adv-x="1126" 
d="M631 537v-537h-137v530l-443 854h150l362 -720l367 720h145zM768 1544l-203 265l-203 -265h-110l229 361h168l229 -361h-110z" />
    <glyph glyph-name="ycircumflex" unicode="&#x177;" horiz-adv-x="1018" 
d="M41 -256q25 -14 61 -21.5t70 -7.5q75 0 129 59.5t98 176.5l41 104l-383 994h140l311 -832l315 832h138l-453 -1147q-32 -81 -67.5 -138t-76.5 -92t-89 -51t-105 -16q-21 0 -44.5 2t-46 6t-42 9.5t-33.5 12.5zM714 1208l-203 265l-203 -265h-110l229 361h168l229 -361
h-110z" />
    <glyph glyph-name="Ydieresis" unicode="&#x178;" horiz-adv-x="1126" 
d="M631 537v-537h-137v530l-443 854h150l362 -720l367 720h145zM839 1636q0 -48 -19.5 -69t-70.5 -21q-53 0 -70.5 25t-17.5 65q0 45 18.5 67t69.5 22q54 0 72 -21t18 -68zM469 1636q0 -48 -19.5 -69t-70.5 -21q-27 0 -44 6.5t-27 18.5t-13.5 28.5t-3.5 36.5q0 45 18.5 67
t69.5 22q53 0 71.5 -21.5t18.5 -67.5z" />
    <glyph glyph-name="Zacute" unicode="&#x179;" horiz-adv-x="1171" 
d="M102 0v129l779 1133h-748v122h905v-122l-784 -1139h801v-123h-953zM565 1542h-104l186 361h178z" />
    <glyph glyph-name="zacute" unicode="&#x17a;" horiz-adv-x="936" 
d="M94 0v98l576 840h-564v111h719v-97l-577 -841h594v-111h-748zM466 1208h-104l186 361h178z" />
    <glyph glyph-name="Zdotaccent" unicode="&#x17b;" horiz-adv-x="1171" 
d="M102 0v129l779 1133h-748v122h905v-122l-784 -1139h801v-123h-953zM642 1639q0 -53 -21.5 -74t-74.5 -21q-29 0 -48 6.5t-29.5 19t-14.5 30t-4 39.5q0 48 21 72t75 24q56 0 76 -23.5t20 -72.5z" />
    <glyph glyph-name="zdotaccent" unicode="&#x17c;" horiz-adv-x="936" 
d="M94 0v98l576 840h-564v111h719v-97l-577 -841h594v-111h-748zM537 1305q0 -53 -21.5 -74t-74.5 -21q-29 0 -48 6.5t-29.5 19t-14.5 30t-4 39.5q0 48 21 72t75 24q56 0 76 -23.5t20 -72.5z" />
    <glyph glyph-name="Zcaron" unicode="&#x17d;" horiz-adv-x="1171" 
d="M102 0v129l779 1133h-748v122h905v-122l-784 -1139h801v-123h-953zM643 1542h-168l-229 361h110l203 -264l203 264h110z" />
    <glyph glyph-name="zcaron" unicode="&#x17e;" horiz-adv-x="936" 
d="M94 0v98l576 840h-564v111h719v-97l-577 -841h594v-111h-748zM540 1208h-168l-229 361h110l203 -264l203 264h110z" />
    <glyph glyph-name="longs" unicode="&#x17f;" horiz-adv-x="559" 
d="M643 1364q-13 8 -31 16t-38.5 14t-41.5 9.5t-40 3.5q-44 0 -73 -13t-46.5 -42t-25 -76t-7.5 -115v-1161h-129v938h-154v111h154v116q0 91 14.5 158t47.5 111t86 65t130 21q57 0 109.5 -14.5t87.5 -32.5z" />
    <glyph glyph-name="florin" unicode="&#x192;" horiz-adv-x="1092" 
d="M1012 1366q-38 15 -76 28t-78 13q-25 0 -43.5 -6t-33.5 -24t-27.5 -50.5t-24.5 -85.5l-45 -192h217l-22 -111h-220l-231 -1047q-14 -61 -33.5 -114t-50.5 -92t-77 -61.5t-113 -22.5q-54 0 -105.5 12t-91.5 31l31 100q37 -14 74.5 -22.5t80.5 -8.5q31 0 55 8.5t43.5 35.5
t37 77.5t36.5 134.5l215 969h-190l25 111h190l51 213q15 66 36.5 114.5t52 80.5t71 47.5t94.5 15.5t103.5 -14.5t85.5 -28.5z" />
    <glyph glyph-name="Ohorn" unicode="&#x1a0;" horiz-adv-x="1452" 
d="M1489 1446v-193q0 -74 -13.5 -129.5t-43.5 -92.5t-78.5 -56t-118.5 -19h-29q23 -121 23 -264q0 -167 -29 -300.5t-94 -227t-169.5 -143.5t-254.5 -50t-254 50t-169 144t-94.5 227t-29.5 300q0 166 29.5 299.5t94.5 227t169 144t254 50.5q103 0 183.5 -23.5t142 -68.5
t104 -110.5t68.5 -149.5h49q76 0 106.5 44t30.5 148v193h123zM1083 692q0 144 -21 255.5t-68 187.5t-124 115.5t-188 39.5q-112 0 -189 -39t-124.5 -115t-68.5 -187.5t-21 -256.5q0 -144 21 -255t68.5 -187.5t124.5 -116t189 -39.5q111 0 188 39.5t124 115.5t68 187.5
t21 255.5z" />
    <glyph glyph-name="ohorn" unicode="&#x1a1;" horiz-adv-x="1190" 
d="M1012 522q0 -125 -24 -226.5t-77 -174.5t-137 -112.5t-203 -39.5t-203 39.5t-137 112.5t-77.5 174.5t-24.5 226.5q0 122 24 224.5t77 176.5t137 115t204 41q82 0 148 -20t116 -58t85.5 -92t56.5 -123q70 1 99.5 46.5t29.5 146.5v151h121v-151q0 -71 -12.5 -124.5
t-39.5 -90.5t-70.5 -57.5t-105.5 -24.5q7 -37 10 -77.5t3 -82.5zM877 522q0 106 -16 189t-52 140t-94.5 86.5t-143.5 29.5q-86 0 -145 -30.5t-95.5 -88t-52.5 -140t-16 -186.5t16.5 -186t53 -139t95.5 -87t144 -30q83 0 141.5 29.5t95 86.5t53 139t16.5 187z" />
    <glyph glyph-name="Uhorn" unicode="&#x1af;" horiz-adv-x="1456" 
d="M1184 1061h49q76 0 106.5 44t30.5 148v193h123v-193q0 -74 -13.5 -129.5t-43.5 -92.5t-78.5 -56t-118.5 -19h-55v-378q0 -170 -26 -286.5t-84.5 -188t-152.5 -103t-229 -31.5q-141 0 -237 32.5t-154 105t-83 188.5t-25 283v806h135v-786q0 -144 17 -241t59 -156.5
t111.5 -85t174.5 -25.5q106 0 175.5 25.5t110 85t57 156t16.5 237.5v790h135v-323z" />
    <glyph glyph-name="uhorn" unicode="&#x1b0;" horiz-adv-x="1208" 
d="M825 0v166q-44 -42 -89.5 -78.5t-92 -62.5t-93 -41t-93.5 -15q-85 0 -139.5 25t-86.5 73.5t-44.5 119t-12.5 161.5v701h129v-654q0 -88 7.5 -146.5t27 -94t53.5 -50t86 -14.5q71 0 161 52t187 145v762h129v-263h31q76 0 107.5 44.5t31.5 148.5v151h121v-151
q0 -74 -13.5 -129.5t-43.5 -93t-78.5 -56t-118.5 -18.5h-37v-682h-129z" />
    <glyph glyph-name="Acaron" unicode="&#x1cd;" horiz-adv-x="1264" 
d="M63 0l480 1384h174l483 -1384h-147l-135 399h-578l-135 -399h-142zM381 522h493l-247 731zM717 1544h-168l-229 361h110l203 -265l203 265h110z" />
    <glyph glyph-name="acaron" unicode="&#x1ce;" horiz-adv-x="1079" 
d="M776 0v152q-45 -39 -87 -72.5t-85.5 -58t-90 -38.5t-99.5 -14q-74 0 -129 22.5t-91.5 65t-54.5 103t-18 135.5q0 82 24 143t75 103.5t130.5 67.5t190.5 36l235 23v53q0 66 -15 112.5t-47.5 76.5t-83 43.5t-120.5 13.5q-59 0 -102.5 -10.5t-75 -28t-52.5 -40.5t-36 -48
l-103 63q22 36 52.5 68t75 56t104 38t139.5 14q106 0 180.5 -20t122 -63.5t69 -113t21.5 -169.5v-713h-129zM776 561l-188 -18q-90 -9 -153.5 -25.5t-103.5 -45t-58.5 -71t-18.5 -102.5q0 -114 46 -165.5t144 -51.5q37 0 72.5 11t74.5 33.5t84 58t101 83.5v293zM615 1208
h-168l-229 361h110l203 -264l203 264h110z" />
    <glyph glyph-name="Icaron" unicode="&#x1cf;" horiz-adv-x="719" 
d="M616 0h-514v119h189v1147h-189v118h514v-118h-190v-1147h190v-119zM443 1544h-168l-229 361h110l203 -265l203 265h110z" />
    <glyph glyph-name="icaron" unicode="&#x1d0;" horiz-adv-x="494" 
d="M182 0v1049h129v-1049h-129zM331 1208h-168l-229 361h110l203 -264l203 264h110z" />
    <glyph glyph-name="Ocaron" unicode="&#x1d1;" horiz-adv-x="1364" 
d="M1229 692q0 -167 -29 -300.5t-94 -227t-169.5 -143.5t-254.5 -50t-254 50t-169 144t-94.5 227t-29.5 300q0 166 29.5 299.5t94.5 227t169 144t254 50.5t254.5 -50t169.5 -143t94 -226.5t29 -301.5zM1083 692q0 144 -21 255.5t-68 187.5t-124 115.5t-188 39.5
q-112 0 -189 -39t-124.5 -115t-68.5 -187.5t-21 -256.5q0 -144 21 -255t68.5 -187.5t124.5 -116t189 -39.5q111 0 188 39.5t124 115.5t68 187.5t21 255.5zM766 1544h-168l-229 361h110l203 -265l203 265h110z" />
    <glyph glyph-name="ocaron" unicode="&#x1d2;" horiz-adv-x="1141" 
d="M1012 522q0 -125 -24 -226.5t-77 -174.5t-137 -112.5t-203 -39.5t-203 39.5t-137 112.5t-77.5 174.5t-24.5 226.5q0 122 24 224.5t77 176.5t137 115t204 41q117 0 200.5 -39.5t137 -112.5t78.5 -175.5t25 -229.5zM877 522q0 106 -16 189t-52 140t-94.5 86.5t-143.5 29.5
q-86 0 -145 -30.5t-95.5 -88t-52.5 -140t-16 -186.5t16.5 -186t53 -139t95.5 -87t144 -30q83 0 141.5 29.5t95 86.5t53 139t16.5 187zM653 1208h-168l-229 361h110l203 -264l203 264h110z" />
    <glyph glyph-name="Ucaron" unicode="&#x1d3;" horiz-adv-x="1378" 
d="M1184 578q0 -170 -26 -286.5t-84.5 -188t-152.5 -103t-229 -31.5q-141 0 -237 32.5t-154 105t-83 188.5t-25 283v806h135v-786q0 -144 17 -241t59 -156.5t111.5 -85t174.5 -25.5q106 0 175.5 25.5t110 85t57 156t16.5 237.5v790h135v-806zM772 1544h-168l-229 361h110
l203 -265l203 265h110z" />
    <glyph glyph-name="ucaron" unicode="&#x1d4;" horiz-adv-x="1137" 
d="M825 0v166q-44 -42 -89.5 -78.5t-92 -62.5t-93 -41t-93.5 -15q-85 0 -139.5 25t-86.5 73.5t-44.5 119t-12.5 161.5v701h129v-654q0 -88 7.5 -146.5t27 -94t53.5 -50t86 -14.5q71 0 161 52t187 145v762h129v-1049h-129zM651 1208h-168l-229 361h110l203 -264l203 264h110z
" />
    <glyph glyph-name="Udieresismacron" unicode="&#x1d5;" horiz-adv-x="1378" 
d="M1184 578q0 -170 -26 -286.5t-84.5 -188t-152.5 -103t-229 -31.5q-141 0 -237 32.5t-154 105t-83 188.5t-25 283v806h135v-786q0 -144 17 -241t59 -156.5t111.5 -85t174.5 -25.5q106 0 175.5 25.5t110 85t57 156t16.5 237.5v790h135v-806zM964 1606q0 -48 -19.5 -69
t-70.5 -21q-27 0 -44 6.5t-27 18.5t-13.5 28.5t-3.5 36.5q0 45 18.5 66.5t69.5 21.5q54 0 72 -21t18 -67zM594 1606q0 -48 -20 -69t-71 -21q-53 0 -71.5 24.5t-18.5 65.5q0 45 19 66.5t71 21.5q53 0 72 -21t19 -67zM397 1794v111h579v-111h-579z" />
    <glyph glyph-name="udieresismacron" unicode="&#x1d6;" horiz-adv-x="1137" 
d="M825 0v166q-44 -42 -89.5 -78.5t-92 -62.5t-93 -41t-93.5 -15q-85 0 -139.5 25t-86.5 73.5t-44.5 119t-12.5 161.5v701h129v-654q0 -88 7.5 -146.5t27 -94t53.5 -50t86 -14.5q71 0 161 52t187 145v762h129v-1049h-129zM844 1270q0 -48 -19.5 -69t-70.5 -21q-27 0 -44 6.5
t-27 18.5t-13.5 28.5t-3.5 36.5q0 45 18.5 66.5t69.5 21.5q54 0 72 -21t18 -67zM474 1270q0 -48 -20 -69t-71 -21q-53 0 -71.5 25t-18.5 65q0 45 19 66.5t71 21.5q53 0 72 -21t19 -67zM277 1458v111h579v-111h-579z" />
    <glyph glyph-name="Udieresisacute" unicode="&#x1d7;" horiz-adv-x="1378" 
d="M1184 578q0 -170 -26 -286.5t-84.5 -188t-152.5 -103t-229 -31.5q-141 0 -237 32.5t-154 105t-83 188.5t-25 283v806h135v-786q0 -144 17 -241t59 -156.5t111.5 -85t174.5 -25.5q106 0 175.5 25.5t110 85t57 156t16.5 237.5v790h135v-806zM962 1606q0 -48 -19.5 -69
t-70.5 -21q-27 0 -44 6.5t-27 18.5t-13.5 28.5t-3.5 36.5q0 45 18.5 66.5t69.5 21.5q54 0 72 -21t18 -67zM592 1606q0 -48 -20 -69t-71 -21q-53 0 -71.5 24.5t-18.5 65.5q0 45 19 66.5t71 21.5q53 0 72 -21t19 -67zM620 1735l135 293h170l-202 -293h-103z" />
    <glyph glyph-name="udieresisacute" unicode="&#x1d8;" horiz-adv-x="1137" 
d="M825 0v166q-44 -42 -89.5 -78.5t-92 -62.5t-93 -41t-93.5 -15q-85 0 -139.5 25t-86.5 73.5t-44.5 119t-12.5 161.5v701h129v-654q0 -88 7.5 -146.5t27 -94t53.5 -50t86 -14.5q71 0 161 52t187 145v762h129v-1049h-129zM842 1270q0 -48 -19.5 -69t-70.5 -21q-27 0 -44 6.5
t-27 18.5t-13.5 28.5t-3.5 36.5q0 45 18.5 66.5t69.5 21.5q54 0 72 -21t18 -67zM472 1270q0 -48 -20 -69t-71 -21q-53 0 -71.5 25t-18.5 65q0 45 19 66.5t71 21.5q53 0 72 -21t19 -67zM500 1399l135 293h170l-202 -293h-103z" />
    <glyph glyph-name="Udieresiscaron" unicode="&#x1d9;" horiz-adv-x="1378" 
d="M1184 578q0 -170 -26 -286.5t-84.5 -188t-152.5 -103t-229 -31.5q-141 0 -237 32.5t-154 105t-83 188.5t-25 283v806h135v-786q0 -144 17 -241t59 -156.5t111.5 -85t174.5 -25.5q106 0 175.5 25.5t110 85t57 156t16.5 237.5v790h135v-806zM964 1606q0 -48 -19.5 -69
t-70.5 -21q-27 0 -44 6.5t-27 18.5t-13.5 28.5t-3.5 36.5q0 45 18.5 66.5t69.5 21.5q54 0 72 -21t18 -67zM594 1606q0 -48 -20 -69t-71 -21q-53 0 -71.5 24.5t-18.5 65.5q0 45 19 66.5t71 21.5q53 0 72 -21t19 -67zM485 2028l203 -189l202 189h111l-233 -285h-162l-232 285
h111z" />
    <glyph glyph-name="udieresiscaron" unicode="&#x1da;" horiz-adv-x="1137" 
d="M825 0v166q-44 -42 -89.5 -78.5t-92 -62.5t-93 -41t-93.5 -15q-85 0 -139.5 25t-86.5 73.5t-44.5 119t-12.5 161.5v701h129v-654q0 -88 7.5 -146.5t27 -94t53.5 -50t86 -14.5q71 0 161 52t187 145v762h129v-1049h-129zM844 1270q0 -48 -19.5 -69t-70.5 -21q-27 0 -44 6.5
t-27 18.5t-13.5 28.5t-3.5 36.5q0 45 18.5 66.5t69.5 21.5q54 0 72 -21t18 -67zM474 1270q0 -48 -20 -69t-71 -21q-53 0 -71.5 25t-18.5 65q0 45 19 66.5t71 21.5q53 0 72 -21t19 -67zM365 1692l203 -189l202 189h111l-233 -285h-162l-232 285h111z" />
    <glyph glyph-name="Udieresisgrave" unicode="&#x1db;" horiz-adv-x="1378" 
d="M1184 578q0 -170 -26 -286.5t-84.5 -188t-152.5 -103t-229 -31.5q-141 0 -237 32.5t-154 105t-83 188.5t-25 283v806h135v-786q0 -144 17 -241t59 -156.5t111.5 -85t174.5 -25.5q106 0 175.5 25.5t110 85t57 156t16.5 237.5v790h135v-806zM962 1606q0 -48 -19.5 -69
t-70.5 -21q-27 0 -44 6.5t-27 18.5t-13.5 28.5t-3.5 36.5q0 45 18.5 66.5t69.5 21.5q54 0 72 -21t18 -67zM592 1606q0 -48 -20 -69t-71 -21q-53 0 -71.5 24.5t-18.5 65.5q0 45 19 66.5t71 21.5q53 0 72 -21t19 -67zM651 1735l-203 293h170l135 -293h-102z" />
    <glyph glyph-name="udieresisgrave" unicode="&#x1dc;" horiz-adv-x="1137" 
d="M825 0v166q-44 -42 -89.5 -78.5t-92 -62.5t-93 -41t-93.5 -15q-85 0 -139.5 25t-86.5 73.5t-44.5 119t-12.5 161.5v701h129v-654q0 -88 7.5 -146.5t27 -94t53.5 -50t86 -14.5q71 0 161 52t187 145v762h129v-1049h-129zM842 1270q0 -48 -19.5 -69t-70.5 -21q-27 0 -44 6.5
t-27 18.5t-13.5 28.5t-3.5 36.5q0 45 18.5 66.5t69.5 21.5q54 0 72 -21t18 -67zM472 1270q0 -48 -20 -69t-71 -21q-53 0 -71.5 25t-18.5 65q0 45 19 66.5t71 21.5q53 0 72 -21t19 -67zM531 1399l-203 293h170l135 -293h-102z" />
    <glyph glyph-name="Aringacute" unicode="&#x1fa;" horiz-adv-x="1288" 
d="M811 1493q0 -53 -19 -92.5t-61 -61.5l469 -1339h-147l-135 399h-578l-135 -399h-142l463 1337q-42 23 -59.5 64t-17.5 92q0 39 10.5 72t32.5 57t56 37.5t81 13.5q94 0 138 -49t44 -131zM381 522h493l-247 731zM731 1497q0 53 -25.5 77.5t-76.5 24.5q-47 0 -73 -26
t-26 -76q0 -46 22.5 -75t76.5 -29t78 27.5t24 76.5zM676 1729h-105l134 276h178z" />
    <glyph glyph-name="aringacute" unicode="&#x1fb;" horiz-adv-x="1079" 
d="M776 0v152q-45 -39 -87 -72.5t-85.5 -58t-90 -38.5t-99.5 -14q-74 0 -129 22.5t-91.5 65t-54.5 103t-18 135.5q0 82 24 143t75 103.5t130.5 67.5t190.5 36l235 23v53q0 66 -15 112.5t-47.5 76.5t-83 43.5t-120.5 13.5q-59 0 -102.5 -10.5t-75 -28t-52.5 -40.5t-36 -48
l-103 63q22 36 52.5 68t75 56t104 38t139.5 14q106 0 180.5 -20t122 -63.5t69 -113t21.5 -169.5v-713h-129zM776 561l-188 -18q-90 -9 -153.5 -25.5t-103.5 -45t-58.5 -71t-18.5 -102.5q0 -114 46 -165.5t144 -51.5q37 0 72.5 11t74.5 33.5t84 58t101 83.5v293zM707 1339
q0 -40 -11 -73t-33.5 -57t-56.5 -37t-81 -13q-49 0 -83.5 14t-56 38.5t-31 57t-9.5 70.5q0 39 10.5 72.5t32.5 57.5t56 37.5t81 13.5q94 0 138 -49.5t44 -131.5zM625 1339q0 103 -100 103q-48 0 -74 -26.5t-26 -76.5q0 -46 22 -75t78 -29q54 0 77 27.5t23 76.5zM542 1599
h-104l186 361h178z" />
    <glyph glyph-name="AEacute" unicode="&#x1fc;" horiz-adv-x="1714" 
d="M819 0v393h-477l-145 -393h-140l521 1384h999v-122h-623v-467h555v-123h-555v-549h623v-123h-758zM819 1262h-157l-275 -746h432v746zM952 1544h-104l186 361h178z" />
    <glyph glyph-name="aeacute" unicode="&#x1fd;" horiz-adv-x="1694" 
d="M403 -31q-68 0 -120.5 24t-88.5 67.5t-54.5 104.5t-18.5 134q0 84 25.5 144t77.5 101t130.5 64.5t184.5 32.5l237 21v59q0 69 -18 116t-53 76t-86 41.5t-117 12.5q-101 0 -163.5 -36.5t-94.5 -92.5l-103 63q25 40 56.5 73t75 56t102 36t137.5 13q63 0 118 -9.5t100 -30.5
t79 -54.5t55 -81.5q47 81 130 128.5t198 47.5q108 0 182.5 -32.5t120.5 -93t66 -148t20 -197.5v-84h-676q0 -95 12.5 -176t46 -140.5t91.5 -93.5t149 -34q45 0 81 9.5t66 28t56 45.5t51 62l103 -67q-28 -45 -60.5 -80t-74.5 -59t-96 -37t-124 -13q-127 0 -220 48.5
t-142 142.5q-45 -37 -96 -71.5t-106.5 -61t-115 -42.5t-123.5 -16zM438 82q48 0 94 13.5t91 37t90.5 55t91.5 68.5q-16 48 -22.5 125.5t-6.5 173.5l-188 -16q-86 -7 -149 -21.5t-104 -42.5t-61 -71.5t-20 -108.5q0 -109 49.5 -161t134.5 -52zM1454 629q-3 175 -65.5 258.5
t-198.5 83.5q-62 0 -112 -20.5t-87 -62.5t-58.5 -106.5t-25.5 -152.5h547zM860 1208h-104l186 361h178z" />
    <glyph glyph-name="Oslashacute" unicode="&#x1fe;" horiz-adv-x="1364" 
d="M63 -115l195 281q-66 93 -94.5 225.5t-28.5 300.5q0 166 29.5 299.5t94.5 227t169 144t254 50.5q118 0 206.5 -31t151.5 -90l140 197h116l-190 -272q65 -94 94 -226t29 -299t-29 -300.5t-94 -227t-169.5 -143.5t-254.5 -50q-118 0 -206.5 30.5t-151.5 90.5l-144 -207
h-117zM1083 692q0 124 -16 222.5t-51 172.5l-615 -882q51 -56 118 -83.5t163 -27.5q111 0 188 39.5t124 115.5t68 187.5t21 255.5zM279 692q0 -127 16 -226.5t51 -174.5l617 887q-48 55 -117.5 83.5t-163.5 28.5q-112 0 -189 -39t-124.5 -115t-68.5 -187.5t-21 -256.5z
M690 1544h-104l186 361h178z" />
    <glyph glyph-name="oslashacute" unicode="&#x1ff;" horiz-adv-x="1141" 
d="M96 -76l137 195q-55 72 -79.5 174t-24.5 229q0 122 24 224.5t77 176.5t137 115t204 41q173 0 277 -92l96 137h113l-146 -204q51 -73 76 -173.5t25 -224.5q0 -125 -24 -226.5t-77 -174.5t-137 -112.5t-203 -39.5q-88 0 -155 21t-117 63l-92 -129h-111zM262 522
q0 -91 11.5 -164t37.5 -129l467 658q-38 42 -89.5 61t-117.5 19q-86 0 -145 -30.5t-95.5 -88t-52.5 -140t-16 -186.5zM877 522q0 87 -10.5 158t-35.5 125l-462 -653q38 -39 87.5 -55.5t114.5 -16.5q83 0 141.5 29.5t95 86.5t53 139t16.5 187zM565 1208h-104l186 361h178z
" />
    <glyph glyph-name="Scommaaccent" unicode="&#x218;" horiz-adv-x="1225" 
d="M1096 362q0 -107 -38 -181t-103 -121t-153 -68t-188 -21q-105 0 -184 21t-138.5 57.5t-103 87.5t-77.5 111l116 69q20 -40 52 -79.5t78 -71.5t107.5 -52t141.5 -20q73 0 136.5 15t110.5 47t74 81.5t27 118.5q0 64 -21 108.5t-64 77t-109 56.5t-156 47q-120 31 -207 60.5
t-144 71t-84.5 101t-27.5 150.5q0 86 28 157t84.5 121.5t141.5 78.5t199 28q86 0 156 -17.5t126 -50t100 -78.5t79 -104l-113 -76q-26 45 -59 82.5t-75 64.5t-94.5 41.5t-117.5 14.5q-79 0 -138 -18t-98 -51t-58 -80t-19 -105q0 -56 17.5 -93.5t58.5 -65t109 -50t169 -47.5
q107 -27 192 -58t144.5 -77t91 -113.5t31.5 -169.5zM546 -481q28 35 51 74t25 79q-51 0 -73.5 19t-22.5 71q0 47 22 70t76 23q51 0 75 -26.5t24 -80.5q0 -38 -8 -69.5t-22 -59t-32.5 -52t-40.5 -48.5h-74z" />
    <glyph glyph-name="scommaaccent" unicode="&#x219;" horiz-adv-x="973" 
d="M856 268q0 -74 -25.5 -130t-74 -93.5t-118 -56.5t-157.5 -19q-81 0 -142 17.5t-105.5 44.5t-73 59.5t-43.5 63.5l104 65q35 -63 98.5 -101t163.5 -38q52 0 97 8.5t78 29.5t52 56.5t19 89.5q0 42 -12 72.5t-42.5 54t-82.5 42.5t-133 40q-84 22 -144.5 47t-100 60.5
t-58.5 85t-19 120.5q0 58 21.5 111.5t66 93.5t111.5 64t158 24q69 0 123.5 -15t96.5 -40.5t72 -59.5t50 -71l-105 -62q-15 28 -36.5 53t-50 43.5t-65.5 29t-85 10.5q-107 0 -168.5 -47t-61.5 -132q0 -41 11 -70t37 -50.5t70.5 -38.5t111.5 -35q101 -27 170.5 -55t112 -65
t61 -86.5t18.5 -119.5zM421 -481q28 35 51 74t25 79q-51 0 -73.5 19t-22.5 71q0 47 22 70t76 23q51 0 75 -26.5t24 -80.5q0 -38 -8 -69.5t-22 -59t-32.5 -52t-40.5 -48.5h-74z" />
    <glyph glyph-name="uni021A" unicode="&#x21a;" horiz-adv-x="1174" 
d="M653 1262v-1262h-135v1262h-475v122h1085v-122h-475zM514 -481q28 35 51 74t25 79q-51 0 -73.5 19t-22.5 71q0 47 22 70t76 23q51 0 75 -26.5t24 -80.5q0 -38 -8 -69.5t-22 -59t-32.5 -52t-40.5 -48.5h-74z" />
    <glyph glyph-name="uni021B" unicode="&#x21b;" horiz-adv-x="723" 
d="M678 2q-40 -14 -89 -23.5t-100 -9.5q-78 0 -131 19.5t-85 61.5t-46 108t-14 159v621h-158v111h158v292h129v-292h276v-111h-276v-606q0 -73 7 -122t24.5 -78t47.5 -41.5t77 -12.5q35 0 76.5 8.5t70.5 19.5zM372 -481q28 35 51 74t25 79q-51 0 -73.5 19t-22.5 71
q0 47 22 70t76 23q51 0 75 -26.5t24 -80.5q0 -38 -8 -69.5t-22 -59t-32.5 -52t-40.5 -48.5h-74z" />
    <glyph glyph-name="dotlessj" unicode="&#x237;" horiz-adv-x="508" 
d="M322 -55q0 -86 -13.5 -149.5t-46 -106t-87.5 -63.5t-138 -21q-40 0 -86 7.5t-92 22.5l32 107q36 -14 73 -21.5t79 -7.5q43 0 72 14t46 44t24.5 76.5t7.5 111.5v1090h129v-1104z" />
    <glyph glyph-name="uni02C0" unicode="&#x2c0;" horiz-adv-x="967" 
d="M305 0v567q107 59 184 111.5t127 106t73.5 112t23.5 129.5q0 61 -19.5 110.5t-57.5 85t-93.5 55t-126.5 19.5q-59 0 -104 -12t-79.5 -31.5t-58.5 -44.5t-39 -51l-108 68q21 39 56.5 73t84 59.5t110 40.5t136.5 15q93 0 172.5 -23.5t138 -71t92 -118.5t33.5 -166
q0 -90 -29 -162t-83 -133.5t-130.5 -116.5t-171.5 -112v-510h-131z" />
    <glyph glyph-name="circumflex" unicode="&#x2c6;" horiz-adv-x="1106" 
d="M756 1208l-203 265l-203 -265h-110l229 361h168l229 -361h-110z" />
    <glyph glyph-name="caron" unicode="&#x2c7;" horiz-adv-x="1106" 
d="M637 1208h-168l-229 361h110l203 -264l203 264h110z" />
    <glyph glyph-name="uni02C9" unicode="&#x2c9;" horiz-adv-x="1106" 
d="M262 1255v111h580v-111h-580z" />
    <glyph glyph-name="breve" unicode="&#x2d8;" horiz-adv-x="1106" 
d="M864 1468q-1 -51 -17.5 -98t-54 -83.5t-98 -58.5t-147.5 -22q-78 0 -135.5 22t-95 58.5t-55.5 83.5t-19 98h98q12 -69 65 -106t140 -37q54 0 93.5 8.5t65.5 25.5t41 44t21 65h98z" />
    <glyph glyph-name="dotaccent" unicode="&#x2d9;" horiz-adv-x="1106" 
d="M649 1305q0 -53 -21.5 -74t-74.5 -21q-29 0 -48 6.5t-29.5 19t-14.5 30t-4 39.5q0 48 21 72t75 24q56 0 76 -23.5t20 -72.5z" />
    <glyph glyph-name="ring" unicode="&#x2da;" horiz-adv-x="1106" 
d="M733 1339q0 -40 -11 -73t-33.5 -57t-56.5 -37t-81 -13q-49 0 -83.5 14t-56 38.5t-31 57t-9.5 70.5q0 39 10.5 72.5t32.5 57.5t56 37.5t81 13.5q94 0 138 -49.5t44 -131.5zM651 1339q0 103 -100 103q-48 0 -74 -26.5t-26 -76.5q0 -46 22 -75t78 -29q54 0 77 27.5t23 76.5z
" />
    <glyph glyph-name="ogonek" unicode="&#x2db;" horiz-adv-x="872" 
d="M635 -322q-43 -32 -93.5 -48.5t-95.5 -16.5q-81 0 -128.5 43t-47.5 131q0 37 14 73.5t50 72t96.5 68t153.5 60.5l49 -61q-81 -28 -131 -53.5t-77.5 -50.5t-36.5 -48.5t-9 -46.5q0 -43 22 -63.5t60 -20.5q34 0 68 12.5t65 30.5z" />
    <glyph glyph-name="tilde" unicode="&#x2dc;" horiz-adv-x="1106" 
d="M190 1214q5 118 60 177t149 59q37 0 68 -10.5t57 -26.5t49 -34.5t45 -34.5t44.5 -26.5t48.5 -10.5q51 0 77 32t31 101h94q-3 -115 -58.5 -174.5t-149.5 -59.5q-43 0 -74.5 11t-56.5 27t-45.5 35t-41.5 35t-44.5 27t-53.5 11q-51 0 -75 -34t-29 -104h-95z" />
    <glyph glyph-name="hungarumlaut" unicode="&#x2dd;" horiz-adv-x="1106" 
d="M684 1208h-104l192 361h176zM369 1208h-105l195 361h174z" />
    <glyph glyph-name="gravecomb" unicode="&#x300;" horiz-adv-x="0" 
d="M16 1208l-260 361h178l187 -361h-105z" />
    <glyph glyph-name="acutecomb" unicode="&#x301;" horiz-adv-x="0" 
d="M-16 1208h-105l187 361h176z" />
    <glyph glyph-name="uni0302" unicode="&#x302;" horiz-adv-x="0" 
d="M203 1208l-203 265l-203 -265h-110l229 361h168l229 -361h-110z" />
    <glyph glyph-name="tildecomb" unicode="&#x303;" horiz-adv-x="0" 
d="M-362 1214q5 118 59.5 177t148.5 59q37 0 68 -10.5t57 -26.5t48.5 -34.5t45 -34.5t45 -26.5t48.5 -10.5q51 0 77 32t31 101h94q-3 -115 -58.5 -174.5t-149.5 -59.5q-42 0 -74 11t-57 27t-45.5 35t-41.5 35t-44.5 27t-53.5 11q-51 0 -75 -34t-29 -104h-94z" />
    <glyph glyph-name="uni0304" unicode="&#x304;" horiz-adv-x="0" 
d="M-291 1255v111h580v-111h-580z" />
    <glyph glyph-name="uni0306" unicode="&#x306;" horiz-adv-x="0" 
d="M311 1468q-1 -51 -17.5 -98t-54 -83.5t-98 -58.5t-147.5 -22q-78 0 -135.5 22t-95 58.5t-55.5 83.5t-19 98h98q12 -69 65 -106t140 -37q54 0 93.5 8.5t65.5 25.5t41 44t21 65h98z" />
    <glyph glyph-name="uni0307" unicode="&#x307;" horiz-adv-x="0" 
d="M96 1305q0 -53 -21.5 -74t-74.5 -21q-29 0 -48 6.5t-29.5 19t-14.5 30t-4 39.5q0 48 21 72t75 24q56 0 76 -23.5t20 -72.5z" />
    <glyph glyph-name="uni0308" unicode="&#x308;" horiz-adv-x="0" 
d="M274 1300q0 -48 -19.5 -69t-70.5 -21q-53 0 -70.5 25t-17.5 65q0 45 18.5 67t69.5 22q54 0 72 -21t18 -68zM-96 1300q0 -48 -19.5 -69t-70.5 -21q-54 0 -72 25t-18 65q0 45 18.5 67t71.5 22q52 0 71 -21t19 -68z" />
    <glyph glyph-name="hookabovecomb" unicode="&#x309;" horiz-adv-x="0" 
d="M-170 1432q12 9 29.5 18t39 15.5t46.5 11t51 4.5q87 0 133.5 -35.5t46.5 -97.5q0 -66 -39.5 -102t-111.5 -44v-41h-82v107h28q92 0 92 65q0 29 -18 45.5t-63 16.5q-26 0 -54.5 -8t-56.5 -25z" />
    <glyph glyph-name="uni030A" unicode="&#x30a;" horiz-adv-x="0" 
d="M176 1335q0 -78 -43 -127t-135 -49q-48 0 -81.5 13.5t-54.5 37.5t-30.5 56t-9.5 69q0 39 10 71t31.5 55.5t55 36.5t79.5 13q91 0 134.5 -47.5t43.5 -128.5zM102 1335q0 107 -104 107q-50 0 -76 -28t-26 -79q0 -48 22.5 -77t79.5 -29q56 0 80 27.5t24 78.5z" />
    <glyph glyph-name="uni030C" unicode="&#x30c;" horiz-adv-x="0" 
d="M84 1208h-168l-229 361h110l203 -264l203 264h110z" />
    <glyph glyph-name="dotbelowcomb" unicode="&#x323;" horiz-adv-x="1106" 
d="M649 -240q0 -52 -21.5 -73t-74.5 -21q-29 0 -48 7t-29.5 19.5t-14.5 29.5t-4 38q0 48 21 72.5t75 24.5q56 0 76 -23.5t20 -73.5z" />
    <glyph glyph-name="uni0374" unicode="&#x374;" horiz-adv-x="410" 
d="M182 1024h-94l80 360h164z" />
    <glyph glyph-name="uni0375" unicode="&#x375;" horiz-adv-x="410" 
d="M229 129h95l-78 -360h-164z" />
    <glyph glyph-name="uni037E" unicode="&#x37e;" horiz-adv-x="541" 
d="M369 956q0 -52 -25 -72t-76 -20q-55 0 -75.5 24.5t-20.5 67.5q0 50 22 71.5t74 21.5q54 0 77.5 -21.5t23.5 -71.5zM369 55q0 -56 -10.5 -107.5t-26 -95t-34.5 -75.5t-36 -49h-76q20 22 35.5 54t26 67t15.5 71t5 66q-55 0 -75.5 22t-20.5 70q0 46 22 69t74 23q53 0 77 -28
t24 -87z" />
    <glyph glyph-name="tonos" unicode="&#x384;" horiz-adv-x="369" 
d="M109 1208h-105l162 361h176z" />
    <glyph glyph-name="dieresistonos" unicode="&#x385;" horiz-adv-x="1106" 
d="M918 1294q0 -48 -19.5 -68t-69.5 -20q-53 0 -70.5 24t-17.5 64q0 44 18.5 65t69.5 21q53 0 71 -20.5t18 -65.5zM362 1294q0 -48 -19 -68t-69 -20q-53 0 -70.5 24t-17.5 64q0 44 18.5 65t69.5 21q52 0 70 -20.5t18 -65.5zM762 1569l-203 -361h-104l133 361h174z" />
    <glyph glyph-name="Alphatonos" unicode="&#x386;" horiz-adv-x="1264" 
d="M63 0l480 1384h174l483 -1384h-147l-135 399h-578l-135 -399h-142zM381 522h493l-247 731zM174 1024h-107l134 360h178z" />
    <glyph glyph-name="anoteleia" unicode="&#x387;" horiz-adv-x="541" 
d="M369 745q0 -52 -25 -72t-76 -20q-55 0 -75.5 24.5t-20.5 67.5q0 50 22 71.5t74 21.5q54 0 77.5 -21.5t23.5 -71.5z" />
    <glyph glyph-name="Epsilontonos" unicode="&#x388;" horiz-adv-x="1376" 
d="M420 0v1384h819v-122h-684v-467h588v-123h-588v-549h684v-123h-819zM120 1024h-107l134 360h178z" />
    <glyph glyph-name="Etatonos" unicode="&#x389;" horiz-adv-x="1563" 
d="M1229 0v655h-674v-655h-135v1384h135v-606h674v606h135v-1384h-135zM120 1024h-107l134 360h178z" />
    <glyph glyph-name="Iotatonos" unicode="&#x38a;" horiz-adv-x="989" 
d="M886 0h-514v119h189v1147h-189v118h514v-118h-190v-1147h190v-119zM120 1024h-107l134 360h178z" />
    <glyph glyph-name="Omicrontonos" unicode="&#x38c;" horiz-adv-x="1532" 
d="M1397 692q0 -167 -29 -300.5t-94 -227t-169.5 -143.5t-254.5 -50t-254 50t-169 144t-94.5 227t-29.5 300q0 166 29.5 299.5t94.5 227t169 144t254 50.5t254.5 -50t169.5 -143t94 -226.5t29 -301.5zM1251 692q0 144 -21 255.5t-68 187.5t-124 115.5t-188 39.5
q-112 0 -189 -39t-124.5 -115t-68.5 -187.5t-21 -256.5q0 -144 21 -255t68.5 -187.5t124.5 -116t189 -39.5q111 0 188 39.5t124 115.5t68 187.5t21 255.5zM120 1024h-107l134 360h178z" />
    <glyph glyph-name="Upsilontonos" unicode="&#x38e;" horiz-adv-x="1462" 
d="M967 537v-537h-137v530l-443 854h150l362 -720l367 720h145zM120 1024h-107l134 360h178z" />
    <glyph glyph-name="Omegatonos" unicode="&#x38f;" horiz-adv-x="1520" 
d="M826 1413q145 0 250.5 -37.5t174 -114.5t101.5 -193.5t33 -274.5q0 -265 -85.5 -410.5t-248.5 -185.5v-72h303v-125h-424v276q77 11 135 41.5t96.5 89.5t58 151t19.5 226q0 115 -17.5 208.5t-63 159.5t-126 102t-206.5 36q-90 0 -162.5 -26.5t-123 -86t-78 -155.5
t-27.5 -236q0 -128 15 -218.5t51 -150.5t96 -93.5t149 -47.5v-276h-424v125h303v72q-90 20 -153.5 66t-103.5 119.5t-58.5 175t-18.5 233.5q0 142 33 257t100 196t167 125t235 44zM120 1024h-107l134 360h178z" />
    <glyph glyph-name="iotadieresistonos" unicode="&#x390;" horiz-adv-x="565" 
d="M549 -8q-23 -8 -62.5 -15.5t-83.5 -7.5q-61 0 -103.5 16.5t-69 52t-38.5 92t-12 136.5v783h131v-773q0 -53 4 -91t16 -62t34 -35.5t57 -11.5q25 0 51.5 5t44.5 13zM622 1294q0 -48 -19.5 -68t-69.5 -20q-53 0 -70.5 24t-17.5 64q0 44 18.5 65t69.5 21q53 0 71 -20.5
t18 -65.5zM66 1294q0 -48 -19 -68t-69 -20q-53 0 -70.5 24t-17.5 64q0 44 18.5 65t69.5 21q52 0 70 -20.5t18 -65.5zM466 1569l-203 -361h-104l133 361h174z" />
    <glyph glyph-name="Alpha" unicode="&#x391;" horiz-adv-x="1264" 
d="M63 0l480 1384h174l483 -1384h-147l-135 399h-578l-135 -399h-142zM381 522h493l-247 731z" />
    <glyph glyph-name="Beta" unicode="&#x392;" horiz-adv-x="1257" 
d="M1130 408q0 -107 -34 -184t-99.5 -127t-162 -73.5t-220.5 -23.5h-415v1384h395q125 0 210 -19.5t137 -58.5t74.5 -97t22.5 -136q0 -67 -14 -118.5t-41.5 -90t-67 -65t-90.5 -43.5q65 -9 121 -33.5t97 -67t64 -103.5t23 -144zM897 1042q0 63 -17 105.5t-56 68.5t-103 37
t-158 11h-229v-473h221q177 0 259.5 59.5t82.5 191.5zM987 408q0 86 -28 137.5t-80 79.5t-124.5 36.5t-162.5 8.5h-258v-547h219q102 0 182.5 11t136.5 41.5t85.5 86.5t29.5 146z" />
    <glyph glyph-name="Gamma" unicode="&#x393;" horiz-adv-x="1067" 
d="M344 1264v-1264h-135v1384h817v-120h-682z" />
    <glyph glyph-name="uni0394" unicode="&#x394;" horiz-adv-x="1247" 
d="M1184 0h-1121v74q119 323 239 655t241 655h162q57 -158 116.5 -323t120.5 -331.5t122 -332t120 -323.5v-74zM1022 119l-338 940q-14 42 -31 95.5t-32 109.5h-7q-12 -56 -30 -111t-33 -98l-334 -936h805z" />
    <glyph glyph-name="Epsilon" unicode="&#x395;" horiz-adv-x="1155" 
d="M199 0v1384h819v-122h-684v-467h588v-123h-588v-549h684v-123h-819z" />
    <glyph glyph-name="Zeta" unicode="&#x396;" horiz-adv-x="1171" 
d="M102 0v129l779 1133h-748v122h905v-122l-784 -1139h801v-123h-953z" />
    <glyph glyph-name="Eta" unicode="&#x397;" horiz-adv-x="1341" 
d="M1008 0v655h-674v-655h-135v1384h135v-606h674v606h135v-1384h-135z" />
    <glyph glyph-name="Theta" unicode="&#x398;" horiz-adv-x="1430" 
d="M1294 692q0 -167 -30.5 -300.5t-98.5 -227t-179 -143.5t-271 -50q-161 0 -271.5 50t-179 144t-99 227t-30.5 300q0 166 30.5 299.5t99 227t179 144t271.5 50.5q160 0 271 -50t179 -143.5t98.5 -227t30.5 -300.5zM1149 692q0 144 -22.5 256t-73.5 188.5t-134 116
t-204 39.5q-122 0 -205 -39t-134.5 -115t-74 -188t-22.5 -258q0 -144 22.5 -256t73.5 -189t134.5 -117t205.5 -40q121 0 204 39.5t134 116t73.5 189t22.5 257.5zM457 637v129h514v-129h-514z" />
    <glyph glyph-name="Iota" unicode="&#x399;" horiz-adv-x="719" 
d="M616 0h-514v119h189v1147h-189v118h514v-118h-190v-1147h190v-119z" />
    <glyph glyph-name="Kappa" unicode="&#x39a;" horiz-adv-x="1255" 
d="M1014 0l-527 639l-153 -164v-475h-135v1384h135v-739l661 739h170l-587 -649l612 -735h-176z" />
    <glyph glyph-name="Lambda" unicode="&#x39b;" horiz-adv-x="1217" 
d="M63 0l465 1384h166l459 -1384h-141l-404 1239l-405 -1239h-140z" />
    <glyph glyph-name="Mu" unicode="&#x39c;" horiz-adv-x="1556" 
d="M1227 0v1219l-406 -828h-90l-401 828v-1219h-131v1384h190l391 -806l389 806h189v-1384h-131z" />
    <glyph glyph-name="Nu" unicode="&#x39d;" horiz-adv-x="1374" 
d="M1016 0l-686 1235v-1235h-131v1384h196l647 -1165v1165h134v-1384h-160z" />
    <glyph glyph-name="Xi" unicode="&#x39e;" horiz-adv-x="1104" 
d="M137 1260v124h830v-124h-830zM203 668v125h698v-125h-698zM127 0v125h850v-125h-850z" />
    <glyph glyph-name="Omicron" unicode="&#x39f;" horiz-adv-x="1364" 
d="M1229 692q0 -167 -29 -300.5t-94 -227t-169.5 -143.5t-254.5 -50t-254 50t-169 144t-94.5 227t-29.5 300q0 166 29.5 299.5t94.5 227t169 144t254 50.5t254.5 -50t169.5 -143t94 -226.5t29 -301.5zM1083 692q0 144 -21 255.5t-68 187.5t-124 115.5t-188 39.5
q-112 0 -189 -39t-124.5 -115t-68.5 -187.5t-21 -256.5q0 -144 21 -255t68.5 -187.5t124.5 -116t189 -39.5q111 0 188 39.5t124 115.5t68 187.5t21 255.5z" />
    <glyph glyph-name="Pi" unicode="&#x3a0;" horiz-adv-x="1282" 
d="M199 0v1384h884v-1384h-135v1262h-614v-1262h-135z" />
    <glyph glyph-name="Rho" unicode="&#x3a1;" horiz-adv-x="1153" 
d="M1044 952q0 -126 -29 -214t-88.5 -143.5t-149.5 -80.5t-212 -25h-231v-489h-135v1384h383q238 0 350 -107.5t112 -324.5zM899 948q0 90 -22.5 150.5t-65 96.5t-103.5 51.5t-139 15.5h-235v-650h209q93 0 160 15t110.5 52.5t64.5 102.5t21 166z" />
    <glyph glyph-name="Sigma" unicode="&#x3a3;" horiz-adv-x="1077" 
d="M74 0v125l542 580l-542 561v118h878v-122h-706l516 -533v-45l-529 -563h748v-121h-907z" />
    <glyph glyph-name="Tau" unicode="&#x3a4;" horiz-adv-x="1174" 
d="M653 1262v-1262h-135v1262h-475v122h1085v-122h-475z" />
    <glyph glyph-name="Upsilon" unicode="&#x3a5;" horiz-adv-x="1126" 
d="M631 537v-537h-137v530l-443 854h150l362 -720l367 720h145z" />
    <glyph glyph-name="Phi" unicode="&#x3a6;" horiz-adv-x="1493" 
d="M809 -39h-131v131q-141 8 -243.5 48t-169.5 114t-99.5 183.5t-32.5 256.5q0 283 135 433t410 165v131h131v-129q133 -8 235.5 -45.5t172.5 -110.5t106.5 -183t36.5 -261t-35 -261.5t-104.5 -183.5t-172.5 -111.5t-239 -45.5v-131zM1219 694q0 230 -97.5 349t-312.5 135
v-969q110 7 187.5 40.5t127 93.5t72.5 147.5t23 203.5zM274 694q0 -117 23.5 -205t72.5 -147.5t125.5 -92.5t182.5 -40v969q-212 -17 -308 -140.5t-96 -343.5z" />
    <glyph glyph-name="Chi" unicode="&#x3a7;" horiz-adv-x="1169" 
d="M66 0l444 694l-432 690h155l357 -585l362 585h152l-440 -686l440 -698h-156l-364 594l-371 -594h-147z" />
    <glyph glyph-name="Psi" unicode="&#x3a8;" horiz-adv-x="1516" 
d="M1360 803q0 -139 -35 -238.5t-103 -164t-168.5 -97.5t-230.5 -39v-307h-131v307q-131 6 -231 39t-167.5 97.5t-102.5 164t-35 238.5v581h135v-559q0 -115 25.5 -196t76 -133.5t125.5 -80t174 -34.5v1003h131v-1003q96 7 171 33.5t127 79t79 133t27 194.5v563h133v-581z
" />
    <glyph glyph-name="uni03A9" unicode="&#x3a9;" horiz-adv-x="1364" 
d="M670 1413q145 0 250.5 -37.5t174 -114.5t101.5 -193.5t33 -274.5q0 -265 -85.5 -410.5t-248.5 -185.5v-72h303v-125h-424v276q77 11 135 41.5t96.5 89.5t58 151t19.5 226q0 115 -17.5 208.5t-63 159.5t-126 102t-206.5 36q-90 0 -162.5 -26.5t-123 -86t-78 -155.5
t-27.5 -236q0 -128 15 -218.5t51 -150.5t96 -93.5t149 -47.5v-276h-424v125h303v72q-90 20 -153.5 66t-103.5 119.5t-58.5 175t-18.5 233.5q0 142 33 257t100 196t167 125t235 44z" />
    <glyph glyph-name="Iotadieresis" unicode="&#x3aa;" horiz-adv-x="719" 
d="M616 0h-514v119h189v1147h-189v118h514v-118h-190v-1147h190v-119zM637 1636q0 -48 -19.5 -69t-70.5 -21q-53 0 -70.5 25t-17.5 65q0 45 18.5 67t69.5 22q54 0 72 -21t18 -68zM267 1636q0 -48 -19.5 -69t-70.5 -21q-27 0 -44 6.5t-27 18.5t-13.5 28.5t-3.5 36.5
q0 45 18.5 67t69.5 22q53 0 71.5 -21.5t18.5 -67.5z" />
    <glyph glyph-name="Upsilondieresis" unicode="&#x3ab;" horiz-adv-x="1126" 
d="M631 537v-537h-137v530l-443 854h150l362 -720l367 720h145zM841 1636q0 -48 -19.5 -69t-70.5 -21q-53 0 -70.5 25t-17.5 65q0 45 18.5 67t69.5 22q54 0 72 -21t18 -68zM471 1636q0 -48 -19.5 -69t-70.5 -21q-27 0 -44 6.5t-27 18.5t-13.5 28.5t-3.5 36.5q0 45 18.5 67
t69.5 22q53 0 71.5 -21.5t18.5 -67.5z" />
    <glyph glyph-name="alphatonos" unicode="&#x3ac;" horiz-adv-x="1171" 
d="M1161 -8q-26 -9 -63 -16t-74 -7q-57 0 -94 16.5t-58.5 51.5t-31 89.5t-11.5 129.5q-20 -75 -54 -129.5t-77.5 -89.5t-95 -51.5t-106.5 -16.5q-87 0 -155 36.5t-115.5 107t-72 173.5t-24.5 236q0 134 30 237.5t83.5 174.5t127.5 108t162 37q87 0 166.5 -33t141.5 -114
q2 32 4 63t4 54h133q-12 -91 -19 -159t-11 -122.5t-5.5 -100.5t-1.5 -92v-286q0 -68 5.5 -109.5t17 -64.5t30 -31t45.5 -8q22 0 44.5 5t43.5 13zM512 86q81 0 139.5 48t97 139t58 222t24.5 296q-57 81 -124.5 128.5t-155.5 47.5q-62 0 -115 -25t-91 -79t-59.5 -140
t-21.5 -207q0 -113 18 -194t51 -133.5t78.5 -77.5t100.5 -25zM592 1208h-105l162 361h176z" />
    <glyph glyph-name="epsilontonos" unicode="&#x3ad;" horiz-adv-x="1026" 
d="M907 168q-29 -47 -62.5 -84t-77.5 -62.5t-100.5 -39t-129.5 -13.5q-90 0 -162.5 20t-123.5 59t-78.5 97.5t-27.5 135.5q0 40 12.5 78.5t36.5 71t58.5 57.5t77.5 40q-84 26 -134.5 85t-50.5 149q0 80 30.5 139.5t82 99t120.5 59t146 19.5q136 0 225 -49t146 -149l-107 -64
q-40 74 -104 114t-160 40q-53 0 -98 -13.5t-77.5 -40t-51 -66t-18.5 -91.5q0 -49 19 -81t55.5 -51t89 -26.5t120.5 -7.5h221v-109h-231q-134 0 -204 -49t-70 -151q0 -51 18.5 -89.5t52.5 -64.5t81.5 -39.5t105.5 -13.5q48 0 86.5 10t70 29t58 47.5t49.5 66.5zM560 1208h-105
l162 361h176z" />
    <glyph glyph-name="etatonos" unicode="&#x3ae;" horiz-adv-x="1137" 
d="M834 -395v1067q0 85 -10 140.5t-31 87.5t-53 45t-76 13q-78 0 -166 -50t-187 -146v-762h-129v1049h129v-168q95 92 185.5 145t185.5 53q78 0 132 -23t87 -70.5t47.5 -118.5t14.5 -167v-1095h-129zM594 1208h-105l162 361h176z" />
    <glyph glyph-name="iotatonos" unicode="&#x3af;" horiz-adv-x="565" 
d="M549 -8q-23 -8 -62.5 -15.5t-83.5 -7.5q-61 0 -103.5 16.5t-69 52t-38.5 92t-12 136.5v783h131v-773q0 -53 4 -91t16 -62t34 -35.5t57 -11.5q25 0 51.5 5t44.5 13zM252 1208h-105l162 361h176z" />
    <glyph glyph-name="upsilondieresistonos" unicode="&#x3b0;" horiz-adv-x="1116" 
d="M174 1049h131v-695q0 -74 19.5 -126.5t53.5 -85.5t81 -48.5t102 -15.5q65 0 118.5 25.5t91.5 82t58.5 145.5t20.5 216q0 90 -8.5 166.5t-21 138.5t-27.5 111.5t-27 85.5h139q10 -27 23.5 -76.5t25.5 -114.5t20.5 -141.5t8.5 -157.5q0 -171 -31.5 -285t-88 -181.5
t-135.5 -95.5t-173 -28q-79 0 -148.5 18.5t-121 62.5t-81.5 117.5t-30 184.5v697zM905 1294q0 -48 -19.5 -68t-69.5 -20q-53 0 -70.5 24t-17.5 64q0 44 18.5 65t69.5 21q53 0 71 -20.5t18 -65.5zM349 1294q0 -48 -19 -68t-69 -20q-53 0 -70.5 24t-17.5 64q0 44 18.5 65
t69.5 21q52 0 70 -20.5t18 -65.5zM749 1569l-203 -361h-104l133 361h174z" />
    <glyph glyph-name="alpha" unicode="&#x3b1;" horiz-adv-x="1171" 
d="M1161 -8q-26 -9 -63 -16t-74 -7q-57 0 -94 16.5t-58.5 51.5t-31 89.5t-11.5 129.5q-20 -75 -54 -129.5t-77.5 -89.5t-95 -51.5t-106.5 -16.5q-87 0 -155 36.5t-115.5 107t-72 173.5t-24.5 236q0 134 30 237.5t83.5 174.5t127.5 108t162 37q87 0 166.5 -33t141.5 -114
q2 32 4 63t4 54h133q-12 -91 -19 -159t-11 -122.5t-5.5 -100.5t-1.5 -92v-286q0 -68 5.5 -109.5t17 -64.5t30 -31t45.5 -8q22 0 44.5 5t43.5 13zM512 86q81 0 139.5 48t97 139t58 222t24.5 296q-57 81 -124.5 128.5t-155.5 47.5q-62 0 -115 -25t-91 -79t-59.5 -140
t-21.5 -207q0 -113 18 -194t51 -133.5t78.5 -77.5t100.5 -25z" />
    <glyph glyph-name="beta" unicode="&#x3b2;" horiz-adv-x="1155" 
d="M1028 428q0 -103 -28.5 -187.5t-81.5 -145t-129.5 -93.5t-172.5 -33q-50 0 -95.5 10t-85.5 26.5t-72.5 37t-55.5 41.5v-490h-129v1487q0 97 22.5 177.5t69 138.5t117.5 90.5t168 32.5q75 0 142 -21t117 -63.5t79 -107.5t29 -152q0 -70 -19.5 -128.5t-53.5 -103.5
t-79.5 -74t-97.5 -41q75 -9 140 -37.5t113 -78t75.5 -120.5t27.5 -165zM307 197q59 -48 134.5 -81.5t172.5 -33.5q61 0 112 21.5t88 65t58 109.5t21 154q0 91 -30.5 154t-88.5 102t-142 56.5t-192 17.5v110q69 0 132 12.5t111 45t76.5 89.5t28.5 146q0 121 -59.5 181.5
t-175.5 60.5q-67 0 -113.5 -23t-76 -65t-43 -101t-13.5 -131v-890z" />
    <glyph glyph-name="gamma" unicode="&#x3b3;" horiz-adv-x="1020" 
d="M195 1049l294 -902q34 41 71 98.5t72.5 126t67 146.5t55.5 161t38 167.5t14 167.5v35h133v-43q0 -88 -17 -181t-46.5 -185t-69 -180.5t-84.5 -168t-93.5 -146.5t-94.5 -116v-428h-129v428l-349 1020h138z" />
    <glyph glyph-name="delta" unicode="&#x3b4;" horiz-adv-x="1167" 
d="M872 1352q-61 24 -141 44.5t-170 20.5q-84 0 -118.5 -28.5t-34.5 -71.5q0 -28 8.5 -53.5t34 -54t71.5 -62.5t121 -78q78 -46 149 -102t126 -125.5t87.5 -155t32.5 -190.5q0 -125 -33 -223t-93 -165.5t-144.5 -103t-187.5 -35.5q-111 0 -195.5 35t-141.5 100t-85.5 157
t-28.5 206q0 117 32.5 208t87 157t126 109t149.5 65q-61 38 -107.5 73t-78 71t-48 75t-16.5 84q0 43 16 81.5t51.5 67.5t91 45.5t134.5 16.5q119 0 208 -20.5t143 -43.5zM903 489q0 82 -19.5 148.5t-55.5 121.5t-87.5 99.5t-115.5 83.5q-68 -14 -133 -48t-115.5 -92.5
t-81.5 -142t-31 -196.5q0 -81 17.5 -151t56.5 -122t100.5 -82t149.5 -30q65 0 122.5 26t100 78t67.5 129t25 178z" />
    <glyph glyph-name="epsilon" unicode="&#x3b5;" horiz-adv-x="1026" 
d="M907 168q-29 -47 -62.5 -84t-77.5 -62.5t-100.5 -39t-129.5 -13.5q-90 0 -162.5 20t-123.5 59t-78.5 97.5t-27.5 135.5q0 40 12.5 78.5t36.5 71t58.5 57.5t77.5 40q-84 26 -134.5 85t-50.5 149q0 80 30.5 139.5t82 99t120.5 59t146 19.5q136 0 225 -49t146 -149l-107 -64
q-40 74 -104 114t-160 40q-53 0 -98 -13.5t-77.5 -40t-51 -66t-18.5 -91.5q0 -49 19 -81t55.5 -51t89 -26.5t120.5 -7.5h221v-109h-231q-134 0 -204 -49t-70 -151q0 -51 18.5 -89.5t52.5 -64.5t81.5 -39.5t105.5 -13.5q48 0 86.5 10t70 29t58 47.5t49.5 66.5z" />
    <glyph glyph-name="zeta" unicode="&#x3b6;" horiz-adv-x="852" 
d="M172 1489h606v-94q-67 -46 -130.5 -109t-120 -138t-104 -159.5t-81.5 -173.5t-53 -180t-19 -178q0 -91 16.5 -152t49 -101.5t79.5 -63.5t109 -38q73 -18 128 -35t91.5 -45t55 -70.5t18.5 -111.5q0 -38 -11 -79.5t-24 -76.5q-15 -40 -34 -79h-134q20 36 37 74
q14 32 25.5 71.5t11.5 77.5q0 35 -11.5 59.5t-37 42.5t-67 32t-101.5 28q-71 16 -132.5 42.5t-106.5 77t-71 132t-26 207.5q0 61 11.5 134.5t35.5 154.5t61.5 166t89 168t118 161t149.5 145h-428v111z" />
    <glyph glyph-name="eta" unicode="&#x3b7;" horiz-adv-x="1137" 
d="M834 -395v1067q0 85 -10 140.5t-31 87.5t-53 45t-76 13q-78 0 -166 -50t-187 -146v-762h-129v1049h129v-168q95 92 185.5 145t185.5 53q78 0 132 -23t87 -70.5t47.5 -118.5t14.5 -167v-1095h-129z" />
    <glyph glyph-name="theta" unicode="&#x3b8;" horiz-adv-x="1137" 
d="M860 821q-2 142 -15.5 252.5t-45.5 186t-87.5 114.5t-142.5 39q-88 0 -145 -36.5t-90 -110t-45.5 -184.5t-12.5 -261h584zM569 1522q131 0 214 -52.5t130 -152.5t64.5 -243.5t17.5 -325.5q0 -181 -16.5 -325t-63 -245t-130 -155t-216.5 -54q-136 0 -219.5 52t-130 151.5
t-62.5 244.5t-16 331q0 183 17.5 327t64.5 243.5t130.5 151.5t215.5 52zM276 715q-1 -153 9.5 -271.5t42 -200t89 -123.5t150.5 -42q90 0 146.5 43.5t89 125t44.5 200t13 268.5h-584z" />
    <glyph glyph-name="iota" unicode="&#x3b9;" horiz-adv-x="565" 
d="M549 -8q-23 -8 -62.5 -15.5t-83.5 -7.5q-61 0 -103.5 16.5t-69 52t-38.5 92t-12 136.5v783h131v-773q0 -53 4 -91t16 -62t34 -35.5t57 -11.5q25 0 51.5 5t44.5 13z" />
    <glyph glyph-name="kappa" unicode="&#x3ba;" horiz-adv-x="1016" 
d="M809 0l-377 498l-121 -136v-362h-129v1049h129v-541l477 541h156l-424 -471l447 -578h-158z" />
    <glyph glyph-name="lambda" unicode="&#x3bb;" horiz-adv-x="1036" 
d="M809 262q14 -50 27.5 -82t28 -50t29.5 -25t32 -7q15 0 30.5 2.5t24.5 5.5l31 -106q-29 -8 -62.5 -11t-56.5 -3q-39 0 -70.5 11.5t-57 42t-46.5 84.5t-41 138l-158 629l-319 -891h-144l412 1053q-27 106 -48.5 175t-43.5 109.5t-46 57t-55 16.5q-34 0 -66.5 -11.5
t-53.5 -25.5l-33 107q15 7 34 14.5t40.5 13.5t43.5 9.5t42 3.5q58 0 98.5 -14.5t71 -53.5t56 -107t54.5 -176z" />
    <glyph glyph-name="uni03BC" unicode="&#x3bc;" horiz-adv-x="1141" 
d="M967 0h-121l-10 123q-28 -35 -57.5 -63t-63.5 -48.5t-72.5 -31.5t-83.5 -11q-40 0 -74.5 5t-66 16.5t-61 30t-60.5 45.5v-461h-131v1444h131v-832q51 -59 117.5 -92t146.5 -33q76 0 146 42t129 120v795h131v-1049z" />
    <glyph glyph-name="nu" unicode="&#x3bd;" horiz-adv-x="975" 
d="M197 1049l268 -914q41 60 80.5 130.5t74.5 146.5t64 155.5t50 157.5t32.5 153t11.5 142v29h135v-23q0 -86 -17 -178t-46 -185t-68.5 -184.5t-85 -176.5t-95 -162t-97.5 -140h-125l-322 1049h140z" />
    <glyph glyph-name="xi" unicode="&#x3be;" horiz-adv-x="868" 
d="M152 1384v105h602v-109h-49q-88 0 -156 -12.5t-115 -45.5t-71.5 -90.5t-24.5 -146.5q0 -69 22 -114.5t56 -72t76 -37.5t83 -11h152v-111h-160q-65 0 -119 -25.5t-92.5 -70t-60 -103t-21.5 -124.5q0 -79 20 -129.5t57 -83t90 -53t120 -39.5q58 -16 106 -35.5t81.5 -49.5
t52 -74t18.5 -108q0 -40 -9.5 -82t-20.5 -77q-13 -41 -29 -80h-129q18 35 32 73q12 32 22.5 71t10.5 75q0 37 -11 64t-34.5 47t-60.5 36t-90 31q-82 23 -148.5 52t-114 74.5t-73 113.5t-25.5 168q0 67 16.5 126.5t48.5 107.5t80 83t111 55q-91 37 -140.5 110.5t-49.5 190.5
q0 47 10 92.5t32 85.5t57 72t85 51h-237z" />
    <glyph glyph-name="omicron" unicode="&#x3bf;" horiz-adv-x="1141" 
d="M1012 522q0 -125 -24 -226.5t-77 -174.5t-137 -112.5t-203 -39.5t-203 39.5t-137 112.5t-77.5 174.5t-24.5 226.5q0 122 24 224.5t77 176.5t137 115t204 41q117 0 200.5 -39.5t137 -112.5t78.5 -175.5t25 -229.5zM877 522q0 106 -16 189t-52 140t-94.5 86.5t-143.5 29.5
q-86 0 -145 -30.5t-95.5 -88t-52.5 -140t-16 -186.5t16.5 -186t53 -139t95.5 -87t144 -30q83 0 141.5 29.5t95 86.5t53 139t16.5 187z" />
    <glyph glyph-name="pi" unicode="&#x3c0;" horiz-adv-x="1272" 
d="M1219 8q-25 -9 -67 -16.5t-87 -7.5q-70 0 -116 15.5t-73 52t-38 95.5t-11 146v649h-397v-659q0 -93 -7 -160t-26 -123h-145q22 63 34.5 134.5t12.5 156.5v651q-32 0 -67 -4.5t-69.5 -12t-66 -18t-55.5 -22.5l-41 98q53 26 130 46t179 20h916v-107h-267v-649
q0 -63 5 -102.5t18.5 -62t37.5 -30.5t62 -8q26 0 55.5 6.5t49.5 14.5z" />
    <glyph glyph-name="rho" unicode="&#x3c1;" horiz-adv-x="1147" 
d="M152 -399v934q0 277 111 410.5t323 133.5q107 0 188 -37.5t135 -107.5t81.5 -169.5t27.5 -223.5q0 -154 -34 -262.5t-91.5 -177.5t-133 -100.5t-157.5 -31.5q-55 0 -104 13.5t-90 36.5t-73.5 53.5t-53.5 64.5v-536h-129zM281 295q23 -47 55.5 -86t72.5 -67.5t86 -44
t95 -15.5q61 0 114 26.5t93 82t63 140t23 201.5q0 86 -14.5 165t-49 139.5t-90.5 96.5t-139 36q-69 0 -126 -22t-97.5 -75t-63 -141t-22.5 -221v-215z" />
    <glyph glyph-name="sigma1" unicode="&#x3c2;" horiz-adv-x="971" 
d="M815 817q-42 72 -100 112t-148 40q-155 0 -229 -114.5t-74 -332.5q0 -103 22 -171t62 -113.5t95 -74t120 -52.5q64 -24 112.5 -47t80 -52.5t47.5 -70.5t16 -101q0 -39 -10 -81.5t-21 -77.5q-13 -41 -30 -80h-133q18 35 32 73q12 32 22.5 71t10.5 75q0 34 -10 59.5
t-31.5 46t-54.5 37t-78 33.5q-80 29 -150.5 64.5t-123 93t-83 145.5t-30.5 223q0 271 109.5 414t330.5 143q126 0 212 -49.5t143 -146.5z" />
    <glyph glyph-name="sigma" unicode="&#x3c3;" horiz-adv-x="1198" 
d="M1126 1049v-111h-264q78 -71 120 -186.5t42 -255.5q0 -111 -25 -207.5t-80 -167.5t-143 -111.5t-213 -40.5q-109 0 -190.5 36.5t-135.5 105t-81 165t-27 216.5q0 140 27 244.5t85 174t148 104t215 34.5h522zM590 938q-97 0 -160 -29.5t-100 -86.5t-51.5 -141.5
t-14.5 -195.5q0 -95 19 -170t56.5 -128t93 -81t128.5 -28q92 0 155 32.5t102 88t56 130t17 158.5q0 155 -40.5 268.5t-113.5 182.5h-147z" />
    <glyph glyph-name="tau" unicode="&#x3c4;" horiz-adv-x="938" 
d="M887 940h-367v-651q0 -58 4 -96t15.5 -61t33.5 -32.5t58 -9.5q25 0 55.5 6.5t50.5 14.5l31 -105q-25 -8 -68 -15t-84 -7q-68 0 -111.5 15t-69.5 50t-36 92t-10 140v659h-98q-46 0 -83 -5t-66 -13t-50.5 -17.5t-36.5 -17.5l-41 96q50 29 117 47.5t166 18.5h590v-109z" />
    <glyph glyph-name="upsilon" unicode="&#x3c5;" horiz-adv-x="1116" 
d="M174 1049h131v-695q0 -74 19.5 -126.5t53.5 -85.5t81 -48.5t102 -15.5q65 0 118.5 25.5t91.5 82t58.5 145.5t20.5 216q0 90 -8.5 166.5t-21 138.5t-27.5 111.5t-27 85.5h139q10 -27 23.5 -76.5t25.5 -114.5t20.5 -141.5t8.5 -157.5q0 -171 -31.5 -285t-88 -181.5
t-135.5 -95.5t-173 -28q-79 0 -148.5 18.5t-121 62.5t-81.5 117.5t-30 184.5v697z" />
    <glyph glyph-name="phi" unicode="&#x3c6;" horiz-adv-x="1333" 
d="M604 -397v368q-116 6 -204.5 38.5t-148.5 97.5t-91 166.5t-31 246.5q0 141 29.5 243.5t88.5 169.5t148 101.5t209 40.5v414h127v-414q113 -6 201 -39t148.5 -99.5t92 -169t31.5 -247.5t-31.5 -247t-91.5 -167t-148 -97t-202 -38v-368h-127zM264 520q0 -108 17 -188
t57 -134t105 -84t161 -38v891q-97 -9 -162 -38.5t-104.5 -83.5t-56.5 -134t-17 -191zM1071 520q0 111 -20 192.5t-61.5 135.5t-106 83t-152.5 36v-889q90 7 154.5 34.5t105.5 80.5t60.5 133.5t19.5 193.5z" />
    <glyph glyph-name="chi" unicode="&#x3c7;" horiz-adv-x="1001" 
d="M444 356l-157 418q-21 55 -36.5 92t-30 59.5t-30.5 32t-38 9.5q-13 0 -29.5 -3.5t-24.5 -7.5l-32 101q15 6 45.5 14t58.5 8q37 0 66 -9t53 -30t44 -56t38 -87l153 -430l258 582h140l-340 -691l180 -469q22 -55 39 -89.5t32.5 -53.5t31.5 -26t36 -7q14 0 28.5 3.5
t26.5 7.5l31 -103q-20 -8 -50 -14t-65 -6q-30 0 -57.5 8t-52.5 29.5t-48.5 59.5t-45.5 99l-166 449l-281 -629h-139z" />
    <glyph glyph-name="psi" unicode="&#x3c8;" horiz-adv-x="1307" 
d="M723 1489v-1411q72 9 130 42t98.5 91t62.5 141.5t22 194.5q0 87 -6.5 160.5t-17 136t-23 113.5t-24.5 92h139q9 -30 20.5 -81.5t22 -116.5t17.5 -140t7 -152q0 -157 -34 -265t-94 -177t-142 -102.5t-178 -41.5v-368h-127v366q-101 5 -179.5 30t-132.5 74.5t-82 125.5
t-28 182v666h129v-664q0 -66 16 -120.5t51.5 -94.5t91 -64.5t134.5 -29.5v1413h127z" />
    <glyph glyph-name="omega" unicode="&#x3c9;" horiz-adv-x="1595" 
d="M1270 1049q40 -53 75.5 -128t62.5 -161t42.5 -177t15.5 -177q0 -108 -24.5 -190t-70 -137t-110 -82.5t-143.5 -27.5q-127 0 -208.5 70.5t-112.5 204.5q-14 -65 -43 -116.5t-70 -86.5t-93.5 -53.5t-113.5 -18.5q-81 0 -145.5 26t-109.5 79.5t-69 134.5t-24 192
q0 82 16.5 173.5t44 178.5t64 164t76.5 132h149q-45 -59 -84 -134.5t-68 -159.5t-46 -171t-17 -168q0 -171 54.5 -253.5t168.5 -82.5q52 0 96.5 24t77.5 77t51.5 136.5t18.5 202.5v277h133v-277q0 -116 18.5 -199t51.5 -136.5t77.5 -79t96.5 -25.5q51 0 92 19.5t70 60.5
t45 104.5t16 151.5q0 72 -15.5 157t-43 170.5t-66.5 165t-86 140.5h150z" />
    <glyph glyph-name="iotadieresis" unicode="&#x3ca;" horiz-adv-x="565" 
d="M549 -8q-23 -8 -62.5 -15.5t-83.5 -7.5q-61 0 -103.5 16.5t-69 52t-38.5 92t-12 136.5v783h131v-773q0 -53 4 -91t16 -62t34 -35.5t57 -11.5q25 0 51.5 5t44.5 13zM521 1300q0 -48 -19.5 -69t-70.5 -21q-53 0 -70.5 25t-17.5 65q0 45 18.5 67t69.5 22q54 0 72 -21t18 -68
zM151 1300q0 -48 -19.5 -69t-70.5 -21q-27 0 -44 6.5t-27 18.5t-13.5 28.5t-3.5 36.5q0 45 18.5 67t69.5 22q53 0 71.5 -21.5t18.5 -67.5z" />
    <glyph glyph-name="upsilondieresis" unicode="&#x3cb;" horiz-adv-x="1116" 
d="M174 1049h131v-695q0 -74 19.5 -126.5t53.5 -85.5t81 -48.5t102 -15.5q65 0 118.5 25.5t91.5 82t58.5 145.5t20.5 216q0 90 -8.5 166.5t-21 138.5t-27.5 111.5t-27 85.5h139q10 -27 23.5 -76.5t25.5 -114.5t20.5 -141.5t8.5 -157.5q0 -171 -31.5 -285t-88 -181.5
t-135.5 -95.5t-173 -28q-79 0 -148.5 18.5t-121 62.5t-81.5 117.5t-30 184.5v697zM812 1300q0 -48 -19.5 -69t-70.5 -21q-53 0 -70.5 25t-17.5 65q0 45 18.5 67t69.5 22q54 0 72 -21t18 -68zM442 1300q0 -48 -19.5 -69t-70.5 -21q-27 0 -44 6.5t-27 18.5t-13.5 28.5
t-3.5 36.5q0 45 18.5 67t69.5 22q53 0 71.5 -21.5t18.5 -67.5z" />
    <glyph glyph-name="omicrontonos" unicode="&#x3cc;" horiz-adv-x="1141" 
d="M1012 522q0 -125 -24 -226.5t-77 -174.5t-137 -112.5t-203 -39.5t-203 39.5t-137 112.5t-77.5 174.5t-24.5 226.5q0 122 24 224.5t77 176.5t137 115t204 41q117 0 200.5 -39.5t137 -112.5t78.5 -175.5t25 -229.5zM877 522q0 106 -16 189t-52 140t-94.5 86.5t-143.5 29.5
q-86 0 -145 -30.5t-95.5 -88t-52.5 -140t-16 -186.5t16.5 -186t53 -139t95.5 -87t144 -30q83 0 141.5 29.5t95 86.5t53 139t16.5 187zM590 1208h-105l162 361h176z" />
    <glyph glyph-name="upsilontonos" unicode="&#x3cd;" horiz-adv-x="1116" 
d="M174 1049h131v-695q0 -74 19.5 -126.5t53.5 -85.5t81 -48.5t102 -15.5q65 0 118.5 25.5t91.5 82t58.5 145.5t20.5 216q0 90 -8.5 166.5t-21 138.5t-27.5 111.5t-27 85.5h139q10 -27 23.5 -76.5t25.5 -114.5t20.5 -141.5t8.5 -157.5q0 -171 -31.5 -285t-88 -181.5
t-135.5 -95.5t-173 -28q-79 0 -148.5 18.5t-121 62.5t-81.5 117.5t-30 184.5v697zM562 1208h-105l162 361h176z" />
    <glyph glyph-name="omegatonos" unicode="&#x3ce;" horiz-adv-x="1595" 
d="M1270 1049q40 -53 75.5 -128t62.5 -161t42.5 -177t15.5 -177q0 -108 -24.5 -190t-70 -137t-110 -82.5t-143.5 -27.5q-127 0 -208.5 70.5t-112.5 204.5q-14 -65 -43 -116.5t-70 -86.5t-93.5 -53.5t-113.5 -18.5q-81 0 -145.5 26t-109.5 79.5t-69 134.5t-24 192
q0 82 16.5 173.5t44 178.5t64 164t76.5 132h149q-45 -59 -84 -134.5t-68 -159.5t-46 -171t-17 -168q0 -171 54.5 -253.5t168.5 -82.5q52 0 96.5 24t77.5 77t51.5 136.5t18.5 202.5v277h133v-277q0 -116 18.5 -199t51.5 -136.5t77.5 -79t96.5 -25.5q51 0 92 19.5t70 60.5
t45 104.5t16 151.5q0 72 -15.5 157t-43 170.5t-66.5 165t-86 140.5h150zM828 1208h-105l162 361h176z" />
    <glyph glyph-name="uni0400" unicode="&#x400;" horiz-adv-x="1155" 
d="M199 0v1384h819v-122h-684v-467h588v-123h-588v-549h684v-123h-819zM615 1544l-258 361h176l186 -361h-104z" />
    <glyph glyph-name="uni0401" unicode="&#x401;" horiz-adv-x="1155" 
d="M199 0v1384h819v-122h-684v-467h588v-123h-588v-549h684v-123h-819zM878 1636q0 -48 -19.5 -69t-70.5 -21q-53 0 -70.5 25t-17.5 65q0 45 18.5 67t69.5 22q54 0 72 -21t18 -68zM508 1636q0 -48 -19.5 -69t-70.5 -21q-27 0 -44 6.5t-27 18.5t-13.5 28.5t-3.5 36.5
q0 45 18.5 67t69.5 22q53 0 71.5 -21.5t18.5 -67.5z" />
    <glyph glyph-name="uni0402" unicode="&#x402;" horiz-adv-x="1372" 
d="M858 1268h-346v-480h229q138 0 238 -22t164.5 -69.5t95.5 -121.5t31 -178q0 -106 -35 -181t-105 -123t-175.5 -70.5t-247.5 -22.5v115q119 0 199 15.5t128.5 49.5t69 88t20.5 131q0 69 -19 119.5t-62 84.5t-111.5 50.5t-167.5 16.5h-252v-670h-135v1268h-357v116h838
v-116z" />
    <glyph glyph-name="uni0403" unicode="&#x403;" horiz-adv-x="1067" 
d="M344 1264v-1264h-135v1384h817v-120h-682zM594 1544h-104l186 361h178z" />
    <glyph glyph-name="uni0404" unicode="&#x404;" horiz-adv-x="1321" 
d="M1219 246q-33 -59 -75 -109t-100 -87t-135 -58t-182 -21q-301 0 -444.5 181t-143.5 540q0 174 34 308.5t105.5 226t181 139t261.5 47.5q97 0 172 -19t132.5 -54t100 -84t74.5 -109l-115 -74q-25 48 -57 87.5t-75.5 68.5t-101 45t-132.5 16q-111 0 -190.5 -35t-132 -102.5
t-79.5 -167t-32 -227.5h723v-125h-723q4 -129 31 -229.5t80 -169t134 -104.5t195 -36q84 0 145 20t105.5 52t75 71.5t53.5 79.5z" />
    <glyph glyph-name="uni0405" unicode="&#x405;" horiz-adv-x="1225" 
d="M1096 362q0 -107 -38 -181t-103 -121t-153 -68t-188 -21q-105 0 -184 21t-138.5 57.5t-103 87.5t-77.5 111l116 69q20 -40 52 -79.5t78 -71.5t107.5 -52t141.5 -20q73 0 136.5 15t110.5 47t74 81.5t27 118.5q0 64 -21 108.5t-64 77t-109 56.5t-156 47q-120 31 -207 60.5
t-144 71t-84.5 101t-27.5 150.5q0 86 28 157t84.5 121.5t141.5 78.5t199 28q86 0 156 -17.5t126 -50t100 -78.5t79 -104l-113 -76q-26 45 -59 82.5t-75 64.5t-94.5 41.5t-117.5 14.5q-79 0 -138 -18t-98 -51t-58 -80t-19 -105q0 -56 17.5 -93.5t58.5 -65t109 -50t169 -47.5
q107 -27 192 -58t144.5 -77t91 -113.5t31.5 -169.5z" />
    <glyph glyph-name="uni0406" unicode="&#x406;" horiz-adv-x="719" 
d="M616 0h-514v119h189v1147h-189v118h514v-118h-190v-1147h190v-119z" />
    <glyph glyph-name="uni0407" unicode="&#x407;" horiz-adv-x="719" 
d="M616 0h-514v119h189v1147h-189v118h514v-118h-190v-1147h190v-119zM640 1636q0 -48 -19.5 -69t-70.5 -21q-53 0 -70.5 25t-17.5 65q0 45 18.5 67t69.5 22q54 0 72 -21t18 -68zM270 1636q0 -48 -19.5 -69t-70.5 -21q-27 0 -44 6.5t-27 18.5t-13.5 28.5t-3.5 36.5
q0 45 18.5 67t69.5 22q53 0 71.5 -21.5t18.5 -67.5z" />
    <glyph glyph-name="uni0408" unicode="&#x408;" horiz-adv-x="864" 
d="M666 395q0 -104 -18 -183.5t-59.5 -133.5t-110 -81.5t-169.5 -27.5q-31 0 -64.5 4t-65.5 10.5t-61.5 15.5t-51.5 19l51 119q17 -9 40.5 -17t49.5 -14.5t52.5 -10t49.5 -3.5q70 0 113.5 21.5t67.5 66t32 112.5t8 161v931h136v-989z" />
    <glyph glyph-name="uni0409" unicode="&#x409;" horiz-adv-x="1913" 
d="M547 1264v-74q0 -171 -11.5 -327.5t-35.5 -290.5t-61 -242.5t-87.5 -185.5t-115.5 -118.5t-144 -41.5q-31 0 -56 4t-48 12l20 111q13 -5 28.5 -7t26.5 -2q87 0 152.5 74t109 217.5t65.5 353.5t22 482v155h678v-550h210q136 0 234 -24.5t161 -76t92.5 -132t29.5 -191.5
q0 -110 -34 -187.5t-99 -127t-158.5 -72.5t-212.5 -23h-359v1264h-407zM1090 715v-596h210q190 0 281.5 69t91.5 224q0 87 -21.5 145.5t-68.5 93.5t-122 49.5t-183 14.5h-188z" />
    <glyph glyph-name="uni040A" unicode="&#x40a;" horiz-adv-x="1956" 
d="M997 0v684h-663v-684h-135v1384h135v-581h663v581h138v-581h206q136 0 234.5 -21t162 -69t94 -125t30.5 -189q0 -105 -33.5 -180.5t-98.5 -124t-159.5 -71.5t-216.5 -23h-357zM1135 684v-565h211q192 0 282 69t90 213q0 90 -25 145.5t-75 86t-124 41t-171 10.5h-188z" />
    <glyph glyph-name="uni040B" unicode="&#x40b;" horiz-adv-x="1423" 
d="M866 1268h-358v-471q88 34 181.5 53.5t182.5 19.5q102 0 177 -23.5t124 -76.5t73 -138t24 -208v-424h-135v379q0 111 -14 183.5t-47.5 115t-90.5 59.5t-143 17q-66 0 -152.5 -17t-177.5 -49v-688h-137v1268h-353v116h846v-116z" />
    <glyph glyph-name="uni040C" unicode="&#x40c;" horiz-adv-x="1233" 
d="M334 1384v-620h225q48 0 88 11t75.5 38t66 72.5t59.5 114.5t56.5 163.5t56.5 220.5h141q-29 -130 -58 -227t-58.5 -168t-60 -119t-62 -79.5t-64.5 -50.5t-68 -31q55 -17 98 -41.5t78.5 -61.5t65 -89t57.5 -125t55.5 -169.5t59.5 -222.5h-141q-32 120 -59.5 214t-56 165.5
t-59.5 121.5t-69.5 81.5t-87 46t-111.5 14.5h-227v-643h-135v1384h135zM641 1544h-104l186 361h178z" />
    <glyph glyph-name="uni040D" unicode="&#x40d;" horiz-adv-x="1376" 
d="M199 0v1384h131v-1191l653 1191h195v-1384h-131v1239l-685 -1239h-163zM686 1544l-258 361h176l186 -361h-104z" />
    <glyph glyph-name="uni040E" unicode="&#x40e;" horiz-adv-x="1182" 
d="M602 459l402 925h141l-514 -1169q-31 -71 -66 -117.5t-78.5 -75t-97.5 -40t-123 -11.5q-24 0 -49.5 3t-48.5 7t-42.5 9t-31.5 10l43 115q28 -11 65 -19t72 -8q83 0 139 34.5t91 117.5l22 57l-463 1087h146zM913 1769q-1 -48 -17.5 -92.5t-54 -79t-98 -55t-147.5 -20.5
q-78 0 -135.5 20.5t-95 55t-55.5 79t-19 92.5h133q9 -78 48.5 -120.5t121.5 -42.5q50 0 83 9.5t54 30t31.5 51t15.5 72.5h135z" />
    <glyph glyph-name="uni040F" unicode="&#x40f;" horiz-adv-x="1358" 
d="M1159 0h-411v-262h-138v262h-411v1384h137v-1261h686v1261h137v-1384z" />
    <glyph glyph-name="uni0410" unicode="&#x410;" horiz-adv-x="1264" 
d="M63 0l480 1384h174l483 -1384h-147l-135 399h-578l-135 -399h-142zM381 522h493l-247 731z" />
    <glyph glyph-name="uni0411" unicode="&#x411;" horiz-adv-x="1225" 
d="M334 786h284q137 0 232 -23.5t154.5 -71t86.5 -120t27 -170.5q0 -199 -126 -300t-374 -101h-419v1384h835v-118h-700v-480zM975 399q0 78 -22.5 129.5t-68 82.5t-116 44t-166.5 13h-268v-549h235q96 0 171.5 13t127.5 45t79.5 86t27.5 136z" />
    <glyph glyph-name="uni0412" unicode="&#x412;" horiz-adv-x="1257" 
d="M1130 408q0 -107 -34 -184t-99.5 -127t-162 -73.5t-220.5 -23.5h-415v1384h395q125 0 210 -19.5t137 -58.5t74.5 -97t22.5 -136q0 -67 -14 -118.5t-41.5 -90t-67 -65t-90.5 -43.5q65 -9 121 -33.5t97 -67t64 -103.5t23 -144zM897 1042q0 63 -17 105.5t-56 68.5t-103 37
t-158 11h-229v-473h221q177 0 259.5 59.5t82.5 191.5zM987 408q0 86 -28 137.5t-80 79.5t-124.5 36.5t-162.5 8.5h-258v-547h219q102 0 182.5 11t136.5 41.5t85.5 86.5t29.5 146z" />
    <glyph glyph-name="uni0413" unicode="&#x413;" horiz-adv-x="1067" 
d="M344 1264v-1264h-135v1384h817v-120h-682z" />
    <glyph glyph-name="uni0414" unicode="&#x414;" horiz-adv-x="1309" 
d="M29 -262v381h112q54 96 103.5 230.5t88 297.5t61.5 350t24 387h676v-1265h172v-381h-133v262h-971v-262h-133zM958 1264h-407q-6 -172 -31.5 -340.5t-63.5 -318.5t-84.5 -275t-95.5 -211h682v1145z" />
    <glyph glyph-name="uni0415" unicode="&#x415;" horiz-adv-x="1155" 
d="M199 0v1384h819v-122h-684v-467h588v-123h-588v-549h684v-123h-819z" />
    <glyph glyph-name="uni0416" unicode="&#x416;" horiz-adv-x="1790" 
d="M963 764h159q48 0 88 11t75 38t65.5 72.5t59 114.5t56 163.5t56.5 220.5h141q-29 -130 -57.5 -227t-58 -168t-59.5 -119t-61.5 -79.5t-65 -50.5t-69.5 -31q55 -17 98 -41.5t79 -61.5t65.5 -89t57.5 -125t56 -169.5t60 -222.5h-143q-48 183 -88.5 306t-87.5 198
t-109.5 107t-155.5 32h-161v-643h-136v643h-161q-59 0 -106 -12.5t-85.5 -41.5t-70.5 -77t-61.5 -119.5t-58.5 -168.5t-61 -224h-141q32 126 59.5 222.5t55.5 169.5t57.5 125t65 89t78.5 61t98 42q-35 12 -68.5 31t-65 50.5t-62 79.5t-60 119t-58 168t-57.5 227h143
q28 -126 56 -220.5t56.5 -163.5t59.5 -114.5t66 -72.5t75 -38t87 -11h159v620h136v-620z" />
    <glyph glyph-name="uni0417" unicode="&#x417;" horiz-adv-x="1157" 
d="M162 258q29 -33 66 -63.5t81.5 -54.5t97 -38t113.5 -14q184 0 275.5 81.5t91.5 227.5q0 128 -75.5 198.5t-233.5 70.5h-244v118h217q157 0 236 60.5t79 195.5q0 124 -83 190t-236 66q-119 0 -209 -32.5t-164 -104.5l-86 103q38 34 83.5 62t102 48t125.5 30.5t154 10.5
q120 0 206 -29t142 -79.5t82.5 -118.5t26.5 -146q0 -117 -53.5 -197.5t-168.5 -117.5q58 -16 102.5 -47.5t75 -75.5t46.5 -98.5t16 -116.5q0 -80 -28 -155t-89.5 -133t-158 -93t-234.5 -35q-135 0 -254.5 47.5t-204.5 153.5z" />
    <glyph glyph-name="uni0418" unicode="&#x418;" horiz-adv-x="1376" 
d="M199 0v1384h131v-1191l653 1191h195v-1384h-131v1239l-685 -1239h-163z" />
    <glyph glyph-name="uni0419" unicode="&#x419;" horiz-adv-x="1376" 
d="M199 0v1384h131v-1191l653 1191h195v-1384h-131v1239l-685 -1239h-163zM997 1769q-1 -48 -17.5 -92.5t-54 -79t-98 -55t-147.5 -20.5q-78 0 -135.5 20.5t-95 55t-55.5 79t-19 92.5h133q9 -78 48.5 -120.5t121.5 -42.5q50 0 83 9.5t54 30t31.5 51t15.5 72.5h135z" />
    <glyph glyph-name="uni041A" unicode="&#x41a;" horiz-adv-x="1233" 
d="M334 1384v-620h225q48 0 88 11t75.5 38t66 72.5t59.5 114.5t56.5 163.5t56.5 220.5h141q-29 -130 -58 -227t-58.5 -168t-60 -119t-62 -79.5t-64.5 -50.5t-68 -31q55 -17 98 -41.5t78.5 -61.5t65 -89t57.5 -125t55.5 -169.5t59.5 -222.5h-141q-32 120 -59.5 214t-56 165.5
t-59.5 121.5t-69.5 81.5t-87 46t-111.5 14.5h-227v-643h-135v1384h135z" />
    <glyph glyph-name="uni041B" unicode="&#x41b;" horiz-adv-x="1303" 
d="M547 1264v-74q0 -285 -30 -509t-88 -379t-144 -236.5t-197 -81.5q-25 0 -52 4t-48 12l20 111q13 -5 27 -7t26 -2q79 0 144 65t111 203t71 352.5t25 514.5v147h692v-1384h-135v1264h-422z" />
    <glyph glyph-name="uni041C" unicode="&#x41c;" horiz-adv-x="1556" 
d="M1227 0v1219l-406 -828h-90l-401 828v-1219h-131v1384h190l391 -806l389 806h189v-1384h-131z" />
    <glyph glyph-name="uni041D" unicode="&#x41d;" horiz-adv-x="1341" 
d="M1008 0v655h-674v-655h-135v1384h135v-606h674v606h135v-1384h-135z" />
    <glyph glyph-name="uni041E" unicode="&#x41e;" horiz-adv-x="1364" 
d="M1229 692q0 -167 -29 -300.5t-94 -227t-169.5 -143.5t-254.5 -50t-254 50t-169 144t-94.5 227t-29.5 300q0 166 29.5 299.5t94.5 227t169 144t254 50.5t254.5 -50t169.5 -143t94 -226.5t29 -301.5zM1083 692q0 144 -21 255.5t-68 187.5t-124 115.5t-188 39.5
q-112 0 -189 -39t-124.5 -115t-68.5 -187.5t-21 -256.5q0 -144 21 -255t68.5 -187.5t124.5 -116t189 -39.5q111 0 188 39.5t124 115.5t68 187.5t21 255.5z" />
    <glyph glyph-name="uni041F" unicode="&#x41f;" horiz-adv-x="1282" 
d="M199 0v1384h884v-1384h-135v1262h-614v-1262h-135z" />
    <glyph glyph-name="uni0420" unicode="&#x420;" horiz-adv-x="1153" 
d="M1044 952q0 -126 -29 -214t-88.5 -143.5t-149.5 -80.5t-212 -25h-231v-489h-135v1384h383q238 0 350 -107.5t112 -324.5zM899 948q0 90 -22.5 150.5t-65 96.5t-103.5 51.5t-139 15.5h-235v-650h209q93 0 160 15t110.5 52.5t64.5 102.5t21 166z" />
    <glyph glyph-name="uni0421" unicode="&#x421;" horiz-adv-x="1315" 
d="M1225 246q-33 -59 -75 -109t-100 -87t-135.5 -58t-181.5 -21q-302 0 -445 181t-143 540q0 174 34 308.5t105 226t180.5 139t260.5 47.5q97 0 173 -19t133.5 -54t100 -84t74.5 -109l-116 -74q-26 48 -58 87.5t-75.5 68.5t-100 45t-131.5 16q-118 0 -201 -39.5t-135 -116
t-76 -187.5t-24 -255t24 -255t77 -187.5t137 -116t204 -39.5q84 0 145.5 20t105.5 52t74.5 71.5t53.5 79.5z" />
    <glyph glyph-name="uni0422" unicode="&#x422;" horiz-adv-x="1174" 
d="M653 1262v-1262h-135v1262h-475v122h1085v-122h-475z" />
    <glyph glyph-name="uni0423" unicode="&#x423;" horiz-adv-x="1182" 
d="M602 459l402 925h141l-514 -1169q-31 -71 -66 -117.5t-78.5 -75t-97.5 -40t-123 -11.5q-24 0 -49.5 3t-48.5 7t-42.5 9t-31.5 10l43 115q28 -11 65 -19t72 -8q83 0 139 34.5t91 117.5l22 57l-463 1087h146z" />
    <glyph glyph-name="uni0424" unicode="&#x424;" horiz-adv-x="1530" 
d="M705 -39v191q-155 4 -268.5 38.5t-187.5 101t-110.5 166.5t-36.5 234q0 141 38.5 242.5t114.5 168t188.5 100t261.5 38.5v182h122v-182q153 -5 266 -39t187 -101t110.5 -168.5t36.5 -240.5q0 -144 -39.5 -245t-116 -165.5t-188.5 -95t-256 -34.5v-191h-122zM242 692
q0 -100 23 -177t77 -130t142.5 -82.5t220.5 -34.5v856q-135 -5 -224.5 -34.5t-142.5 -84t-74.5 -133t-21.5 -180.5zM1288 692q0 102 -23 180.5t-77 133t-142.5 85t-218.5 35.5v-858q130 5 218.5 34.5t142.5 82.5t77 130t23 177z" />
    <glyph glyph-name="uni0425" unicode="&#x425;" horiz-adv-x="1169" 
d="M66 0l444 694l-432 690h155l357 -585l362 585h152l-440 -686l440 -698h-156l-364 594l-371 -594h-147z" />
    <glyph glyph-name="uni0426" unicode="&#x426;" horiz-adv-x="1331" 
d="M199 0v1384h135v-1261h647v1261h135v-1265h170v-381h-133v262h-954z" />
    <glyph glyph-name="uni0427" unicode="&#x427;" horiz-adv-x="1272" 
d="M133 1384h135v-378q0 -108 13.5 -180.5t47 -116t91.5 -62t147 -18.5q84 0 181 18t188 49v688h137v-1384h-135v586q-105 -34 -204.5 -54t-190.5 -20q-109 0 -187 25t-127.5 79t-72.5 138.5t-23 203.5v426z" />
    <glyph glyph-name="uni0428" unicode="&#x428;" horiz-adv-x="1890" 
d="M1556 121v1263h136v-1384h-1493v1384h135v-1263h545v1263h133v-1263h544z" />
    <glyph glyph-name="uni0429" unicode="&#x429;" horiz-adv-x="1907" 
d="M199 0v1384h135v-1265h545v1265h133v-1265h544v1265h136v-1265h172v-381h-133v262h-1532z" />
    <glyph glyph-name="uni042A" unicode="&#x42a;" horiz-adv-x="1370" 
d="M29 1264v120h518v-550h221q139 0 235.5 -26t156.5 -78t87 -130.5t27 -183.5q0 -214 -128 -315t-374 -101h-360v1264h-383zM547 715v-596h217q91 0 160 16t114.5 52t68.5 93t23 138q0 86 -21 143t-66.5 91.5t-117.5 48.5t-175 14h-203z" />
    <glyph glyph-name="uni042B" unicode="&#x42b;" horiz-adv-x="1659" 
d="M1325 1384h135v-1384h-135v1384zM199 0v1384h135v-550h227q138 0 234.5 -26t157 -78t87.5 -130.5t27 -183.5q0 -215 -128 -315.5t-374 -100.5h-366zM922 418q0 86 -21 143t-66.5 91.5t-117.5 48.5t-174 14h-209v-596h223q91 0 159.5 16t114.5 52t68.5 93t22.5 138z" />
    <glyph glyph-name="uni042C" unicode="&#x42c;" horiz-adv-x="1161" 
d="M199 0v1384h135v-550h227q138 0 234.5 -26t157 -78t87.5 -130.5t27 -183.5q0 -215 -128 -315.5t-374 -100.5h-366zM922 418q0 86 -21 143t-66.5 91.5t-117.5 48.5t-174 14h-209v-596h223q91 0 159.5 16t114.5 52t68.5 93t22.5 138z" />
    <glyph glyph-name="uni042D" unicode="&#x42d;" horiz-adv-x="1321" 
d="M145 1147q31 60 74 109t101 84t133.5 54t173.5 19q151 0 260.5 -47.5t180 -139t104.5 -226t34 -308.5q0 -359 -142.5 -540t-445.5 -181q-104 0 -181 21t-135 58t-100 87t-75 109l115 71q23 -40 53 -79.5t74.5 -71.5t105.5 -52t146 -20q114 0 196 36t135 104.5t79 169
t30 229.5h-723v125h723q-5 128 -31.5 227.5t-79 167t-132.5 102.5t-191 35q-75 0 -131.5 -16t-100 -45t-76 -68.5t-57.5 -87.5z" />
    <glyph glyph-name="uni042E" unicode="&#x42e;" horiz-adv-x="1866" 
d="M334 0h-135v1384h135v-622h301q6 150 39 270.5t98.5 205t166.5 130t243 45.5q152 0 256.5 -50t169.5 -143.5t94 -227t29 -300.5t-29.5 -300t-94.5 -227t-170 -144t-255 -50q-145 0 -247.5 47t-167.5 134t-96.5 211.5t-35.5 279.5h-301v-643zM1587 692q0 144 -20.5 255.5
t-68 188t-125 116.5t-191.5 40q-113 0 -190 -39.5t-124.5 -115.5t-68.5 -188t-21 -257q0 -143 21 -255t68.5 -189t124.5 -117.5t190 -40.5q114 0 191.5 40t125 116.5t68 189t20.5 256.5z" />
    <glyph glyph-name="uni042F" unicode="&#x42f;" horiz-adv-x="1237" 
d="M72 0l377 606q-70 15 -124.5 43.5t-92 75.5t-57 114.5t-19.5 159.5q0 107 30 180.5t88.5 119t145.5 65.5t201 20h393v-1384h-135v586h-291l-355 -586h-161zM299 993q0 -78 16.5 -132.5t55 -88.5t101.5 -49.5t157 -15.5h250v557h-256q-90 0 -152 -15t-100 -47.5t-55 -84
t-17 -124.5z" />
    <glyph glyph-name="uni0430" unicode="&#x430;" horiz-adv-x="1079" 
d="M776 0v152q-45 -39 -87 -72.5t-85.5 -58t-90 -38.5t-99.5 -14q-74 0 -129 22.5t-91.5 65t-54.5 103t-18 135.5q0 82 24 143t75 103.5t130.5 67.5t190.5 36l235 23v53q0 66 -15 112.5t-47.5 76.5t-83 43.5t-120.5 13.5q-59 0 -102.5 -10.5t-75 -28t-52.5 -40.5t-36 -48
l-103 63q22 36 52.5 68t75 56t104 38t139.5 14q106 0 180.5 -20t122 -63.5t69 -113t21.5 -169.5v-713h-129zM776 561l-188 -18q-90 -9 -153.5 -25.5t-103.5 -45t-58.5 -71t-18.5 -102.5q0 -114 46 -165.5t144 -51.5q37 0 72.5 11t74.5 33.5t84 58t101 83.5v293z" />
    <glyph glyph-name="uni0431" unicode="&#x431;" horiz-adv-x="1122" 
d="M1012 518q0 -122 -27.5 -223t-81 -173.5t-133 -112.5t-182.5 -40q-120 0 -207.5 45.5t-144 132t-84 210.5t-27.5 282q0 184 17 317t55.5 226.5t100.5 152.5t151.5 96t209 56.5t273.5 34.5v-127q-114 -8 -207.5 -18.5t-167 -32t-127.5 -58t-90.5 -96t-55.5 -146
t-22 -208.5q33 34 74.5 63t88.5 50t97.5 32.5t102.5 11.5q187 0 287 -117.5t100 -357.5zM879 510q0 193 -69 284t-220 91q-58 0 -107.5 -18t-90.5 -44.5t-73.5 -57t-56.5 -56.5q-2 -26 -2 -49v-48q0 -128 21 -228t62 -168.5t103 -104t144 -35.5q63 0 116 28.5t91.5 83.5
t60 136t21.5 186z" />
    <glyph glyph-name="uni0432" unicode="&#x432;" horiz-adv-x="1069" 
d="M954 307q0 -84 -28 -142t-81.5 -95t-131 -53.5t-176.5 -16.5h-355v1049h357q106 0 178.5 -14.5t116 -44.5t62.5 -77.5t19 -113.5q0 -88 -40.5 -152t-131.5 -96q47 -9 86 -27t66.5 -47.5t43 -71t15.5 -98.5zM786 780q0 52 -16 84t-49 50t-82 24t-115 6h-217v-356h199
q142 0 211 52.5t69 139.5zM823 305q0 46 -13 79.5t-45 55.5t-86.5 32.5t-137.5 10.5h-234v-379h182q92 0 156 10.5t103.5 34t57 62t17.5 94.5z" />
    <glyph glyph-name="uni0433" unicode="&#x433;" horiz-adv-x="868" 
d="M182 1049h670v-109h-541v-940h-129v1049z" />
    <glyph glyph-name="uni0434" unicode="&#x434;" horiz-adv-x="1055" 
d="M20 -262v371h99q40 73 77.5 169.5t65.5 215t45 257.5t17 298h530v-940h166v-371h-123v262h-754v-262h-123zM729 942h-283q-5 -141 -22 -261t-43 -222.5t-60 -189.5t-73 -160h481v833z" />
    <glyph glyph-name="uni0435" unicode="&#x435;" horiz-adv-x="1051" 
d="M262 524q0 -115 14.5 -199t49 -138.5t91.5 -80.5t142 -26q42 0 77 7.5t65.5 25t58.5 45t55 67.5l103 -67q-28 -45 -61.5 -80t-77 -59t-99 -37t-127.5 -13q-104 0 -183 30t-132.5 95.5t-81 169.5t-27.5 252q0 133 23 237.5t73.5 177t131 110.5t196.5 38q102 0 175 -32
t119.5 -92.5t68.5 -148t22 -198.5v-84h-676zM811 629q-3 177 -66 259.5t-196 82.5q-69 0 -119.5 -20t-85 -62t-54 -106.5t-26.5 -153.5h547z" />
    <glyph glyph-name="uni0436" unicode="&#x436;" horiz-adv-x="1438" 
d="M782 1049v-465h127q44 0 81 18.5t70 69.5t63.5 142t60.5 235h131q-32 -153 -63 -248.5t-63 -151t-65 -80t-67 -34.5q60 -15 102.5 -50.5t76 -98.5t62.5 -158t62 -228h-131q-25 95 -47.5 167t-44.5 125t-45.5 87.5t-51.5 55.5t-62 29.5t-77 8.5h-119v-473h-127v473h-120
q-64 0 -108.5 -20t-80.5 -73t-68 -144.5t-69 -235.5h-131q33 133 62 227.5t62.5 157.5t76 98.5t102.5 51.5q-35 10 -68 34t-65 79.5t-63.5 151.5t-63.5 249h133q30 -144 60.5 -235t63.5 -142t70 -69.5t80 -18.5h127v465h127z" />
    <glyph glyph-name="uni0437" unicode="&#x437;" horiz-adv-x="985" 
d="M268 598h189q65 0 115 8.5t84 29t51.5 55t17.5 85.5q0 48 -18.5 83.5t-52 59.5t-80 36t-101.5 12q-101 0 -161 -40t-101 -112l-102 66q55 100 143 149t219 49q89 0 160 -21.5t120 -60.5t75 -94.5t26 -124.5q0 -51 -13.5 -91.5t-38 -70.5t-59 -50t-75.5 -31q42 -12 76 -37
t58 -59.5t37 -76t13 -86.5q0 -146 -96 -226.5t-291 -80.5q-73 0 -129 13.5t-99.5 39t-77.5 62.5t-63 84l109 63q47 -77 107 -114t155 -37q121 0 189.5 53t68.5 152t-64.5 151.5t-191.5 52.5h-199v109z" />
    <glyph glyph-name="uni0438" unicode="&#x438;" horiz-adv-x="1157" 
d="M319 0h-137v1049h123v-875l535 875h135v-1049h-125v864z" />
    <glyph glyph-name="uni0439" unicode="&#x439;" horiz-adv-x="1157" 
d="M319 0h-137v1049h123v-875l535 875h135v-1049h-125v864zM893 1444q-1 -47 -17.5 -91.5t-54 -79.5t-98 -56t-147.5 -21q-78 0 -135.5 21t-95 56t-55.5 79.5t-19 91.5h131q9 -79 49.5 -121.5t122.5 -42.5q50 0 83.5 9.5t55 30t32 51.5t15.5 73h133z" />
    <glyph glyph-name="uni043A" unicode="&#x43a;" horiz-adv-x="979" 
d="M309 1049v-465h158q43 0 79.5 18.5t69.5 69.5t63 142t60 235h133q-32 -153 -63.5 -248.5t-63 -151t-64.5 -80t-69 -34.5q61 -15 103.5 -50.5t76.5 -98.5t62.5 -158t60.5 -228h-131q-25 96 -47 168t-44 124.5t-45.5 87.5t-51 55.5t-61.5 29t-76 8.5h-150v-473h-127v1049
h127z" />
    <glyph glyph-name="uni043B" unicode="&#x43b;" horiz-adv-x="1040" 
d="M444 940v-51q0 -232 -23.5 -402.5t-66.5 -282t-105 -166t-138 -54.5q-11 0 -24.5 1.5t-27 3.5t-26 5t-21.5 6l27 113q15 -5 33.5 -7t33.5 -2q45 0 83.5 43t67.5 139.5t45.5 251.5t16.5 380v131h539v-1049h-127v940h-287z" />
    <glyph glyph-name="uni043C" unicode="&#x43c;" horiz-adv-x="1276" 
d="M1094 0h-125v834l-299 -551h-68l-297 551v-834h-123v1049h127l328 -592l330 592h127v-1049z" />
    <glyph glyph-name="uni043D" unicode="&#x43d;" horiz-adv-x="1163" 
d="M981 0h-127v487h-545v-487h-127v1049h127v-455h545v455h127v-1049z" />
    <glyph glyph-name="uni043E" unicode="&#x43e;" horiz-adv-x="1141" 
d="M1012 522q0 -125 -24 -226.5t-77 -174.5t-137 -112.5t-203 -39.5t-203 39.5t-137 112.5t-77.5 174.5t-24.5 226.5q0 122 24 224.5t77 176.5t137 115t204 41q117 0 200.5 -39.5t137 -112.5t78.5 -175.5t25 -229.5zM877 522q0 106 -16 189t-52 140t-94.5 86.5t-143.5 29.5
q-86 0 -145 -30.5t-95.5 -88t-52.5 -140t-16 -186.5t16.5 -186t53 -139t95.5 -87t144 -30q83 0 141.5 29.5t95 86.5t53 139t16.5 187z" />
    <glyph glyph-name="uni043F" unicode="&#x43f;" horiz-adv-x="1139" 
d="M827 0v938h-516v-938h-129v1049h774v-1049h-129z" />
    <glyph glyph-name="uni0440" unicode="&#x440;" horiz-adv-x="1151" 
d="M1022 532q0 -123 -25 -226.5t-76 -178.5t-128.5 -116.5t-182.5 -41.5q-77 0 -153.5 34.5t-145.5 100.5v-499h-129v1444h129v-115q31 31 67.5 58t77 46t84.5 30t89 11q106 0 180.5 -42.5t121.5 -116.5t69 -173.5t22 -214.5zM889 528q0 101 -16.5 182t-51 137.5t-87.5 87
t-126 30.5q-80 0 -154.5 -42.5t-142.5 -111.5v-586q69 -65 143.5 -104t145.5 -39q62 0 115 26t91.5 80.5t60.5 138.5t22 201z" />
    <glyph glyph-name="uni0441" unicode="&#x441;" horiz-adv-x="1016" 
d="M926 168q-25 -47 -58 -84t-77 -62.5t-99.5 -39t-124.5 -13.5q-123 0 -206.5 42t-135 115.5t-74 174.5t-22.5 219q0 128 24.5 231.5t77 176t135 112t199.5 39.5q124 0 207.5 -49t140.5 -151l-106 -64q-21 39 -45 67.5t-53.5 47t-65.5 28t-82 9.5q-157 0 -228 -114
t-71 -337q0 -98 15.5 -178t51 -137.5t94 -89t144.5 -31.5q49 0 86.5 10.5t67.5 30.5t54 48.5t46 63.5z" />
    <glyph glyph-name="uni0442" unicode="&#x442;" horiz-adv-x="807" 
d="M791 942h-326v-942h-127v942h-322v107h775v-107z" />
    <glyph glyph-name="uni0443" unicode="&#x443;" horiz-adv-x="1018" 
d="M41 -256q25 -14 61 -21.5t70 -7.5q75 0 129 59.5t98 176.5l41 104l-383 994h140l311 -832l315 832h138l-453 -1147q-32 -81 -67.5 -138t-76.5 -92t-89 -51t-105 -16q-21 0 -44.5 2t-46 6t-42 9.5t-33.5 12.5z" />
    <glyph glyph-name="uni0444" unicode="&#x444;" horiz-adv-x="1343" 
d="M614 -395v366q-118 5 -208.5 36t-152 96t-93 167.5t-31.5 249.5q0 149 31 253.5t92.5 170.5t152 97.5t209.5 35.5v412h121v-412q122 -5 212 -38t149.5 -100.5t88.5 -171t29 -247.5q0 -148 -30.5 -249.5t-90.5 -166t-150 -95.5t-208 -38v-366h-121zM260 520
q0 -105 17.5 -185t59 -135t109 -85.5t168.5 -36.5v891q-98 -6 -165.5 -34.5t-109.5 -82.5t-60.5 -136t-18.5 -196zM1081 520q0 108 -17 190t-57.5 137.5t-107 85.5t-164.5 36v-889q97 6 163.5 34t107 81.5t58 133.5t17.5 191z" />
    <glyph glyph-name="uni0445" unicode="&#x445;" horiz-adv-x="965" 
d="M748 0l-269 432l-276 -432h-144l351 522l-344 527h151l270 -431l273 431h143l-344 -519l344 -530h-155z" />
    <glyph glyph-name="uni0446" unicode="&#x446;" horiz-adv-x="1180" 
d="M182 0v1049h129v-940h541v940h129v-943h164v-368h-121v262h-842z" />
    <glyph glyph-name="uni0447" unicode="&#x447;" horiz-adv-x="1049" 
d="M98 1049h127v-289q0 -95 9.5 -155t30.5 -95t54.5 -48t81.5 -13q39 0 83 6t88.5 16.5t87.5 25.5t79 33v519h127v-1049h-127v420q-41 -17 -85.5 -33t-90 -29t-91.5 -20.5t-89 -7.5q-77 0 -131 23t-88.5 71.5t-50 122.5t-15.5 176v326z" />
    <glyph glyph-name="uni0448" unicode="&#x448;" horiz-adv-x="1628" 
d="M1333 104v945h127v-1049h-1278v1049h127v-945h449v945h127v-945h448z" />
    <glyph glyph-name="uni0449" unicode="&#x449;" horiz-adv-x="1663" 
d="M182 0v1049h127v-943h449v943h127v-943h448v943h127v-943h166v-368h-123v262h-1321z" />
    <glyph glyph-name="uni044A" unicode="&#x44a;" horiz-adv-x="1032" 
d="M16 942v107h375v-412h166q102 0 176 -18t121.5 -57.5t70.5 -102.5t23 -152q0 -85 -25 -143.5t-73.5 -95t-121.5 -52.5t-169 -16h-295v942h-248zM815 309q0 64 -14.5 107t-47.5 69t-85.5 36.5t-128.5 10.5h-148v-428h160q74 0 124.5 11.5t81.5 36.5t44.5 64t13.5 93z" />
    <glyph glyph-name="uni044B" unicode="&#x44b;" horiz-adv-x="1425" 
d="M309 637h166q102 0 176 -18t122 -57.5t70.5 -102.5t22.5 -152q0 -81 -22.5 -139.5t-69.5 -95.5t-121 -54.5t-176 -17.5h-295v1049h127v-412zM733 309q0 61 -13 104t-44.5 69t-84.5 38t-134 12h-148v-428h162q75 0 125 12t80.5 37t43.5 63.5t13 92.5zM1114 0v1049h129
v-1049h-129z" />
    <glyph glyph-name="uni044C" unicode="&#x44c;" horiz-adv-x="952" 
d="M309 637h166q102 0 176 -18t122 -57.5t70.5 -102.5t22.5 -152q0 -81 -22.5 -139.5t-69.5 -95.5t-121 -54.5t-176 -17.5h-295v1049h127v-412zM733 309q0 61 -13 104t-44.5 69t-84.5 38t-134 12h-148v-428h162q75 0 125 12t80.5 37t43.5 63.5t13 92.5z" />
    <glyph glyph-name="uni044D" unicode="&#x44d;" horiz-adv-x="1016" 
d="M102 879q56 102 140.5 151t208.5 49q116 0 198.5 -39.5t135.5 -112t77.5 -176t24.5 -231.5q0 -118 -23 -219t-74.5 -174.5t-136 -115.5t-207.5 -42q-69 0 -124 13.5t-98.5 39t-77 62.5t-58.5 84l107 65q21 -35 45 -63.5t54 -48.5t67.5 -30.5t87.5 -10.5q80 0 136 27.5
t92 78.5t54 123.5t21 161.5h-529v107h529q-11 193 -82.5 291t-216.5 98q-45 0 -81.5 -9.5t-65.5 -28t-52.5 -47t-44.5 -67.5z" />
    <glyph glyph-name="uni044E" unicode="&#x44e;" horiz-adv-x="1544" 
d="M307 0h-125v1049h125v-463h230q5 110 32.5 200.5t80.5 155.5t133.5 101t191.5 36q117 0 200 -39t136.5 -111.5t78.5 -175.5t25 -231q0 -125 -24.5 -227t-77.5 -174.5t-136.5 -112t-201.5 -39.5q-114 0 -195.5 36.5t-134.5 103t-79.5 161t-30.5 211.5h-228v-481zM1284 522
q0 106 -17 190t-54 142t-95.5 88.5t-142.5 30.5t-143.5 -31.5t-97 -90t-55 -142t-17.5 -187.5t18 -187t56 -140.5t97 -88t142 -30.5q81 0 139.5 30.5t96 87.5t55.5 140t18 188z" />
    <glyph glyph-name="uni044F" unicode="&#x44f;" horiz-adv-x="1032" 
d="M504 442h-43l-252 -442h-141l270 459q-111 29 -161 102.5t-50 198.5q0 79 23 134t70 89.5t118.5 50t169.5 15.5h342v-1049h-127v442h-219zM258 754q0 -57 12 -96.5t42 -64t81 -35.5t129 -11h201v397h-203q-77 0 -127.5 -10t-80.5 -32.5t-42 -58.5t-12 -89z" />
    <glyph glyph-name="uni0450" unicode="&#x450;" horiz-adv-x="1051" 
d="M262 524q0 -115 14.5 -199t49 -138.5t91.5 -80.5t142 -26q42 0 77 7.5t65.5 25t58.5 45t55 67.5l103 -67q-28 -45 -61.5 -80t-77 -59t-99 -37t-127.5 -13q-104 0 -183 30t-132.5 95.5t-81 169.5t-27.5 252q0 133 23 237.5t73.5 177t131 110.5t196.5 38q102 0 175 -32
t119.5 -92.5t68.5 -148t22 -198.5v-84h-676zM811 629q-3 177 -66 259.5t-196 82.5q-69 0 -119.5 -20t-85 -62t-54 -106.5t-26.5 -153.5h547zM571 1208l-258 361h176l186 -361h-104z" />
    <glyph glyph-name="uni0451" unicode="&#x451;" horiz-adv-x="1051" 
d="M262 524q0 -115 14.5 -199t49 -138.5t91.5 -80.5t142 -26q42 0 77 7.5t65.5 25t58.5 45t55 67.5l103 -67q-28 -45 -61.5 -80t-77 -59t-99 -37t-127.5 -13q-104 0 -183 30t-132.5 95.5t-81 169.5t-27.5 252q0 133 23 237.5t73.5 177t131 110.5t196.5 38q102 0 175 -32
t119.5 -92.5t68.5 -148t22 -198.5v-84h-676zM811 629q-3 177 -66 259.5t-196 82.5q-69 0 -119.5 -20t-85 -62t-54 -106.5t-26.5 -153.5h547zM820 1300q0 -48 -19.5 -69t-70.5 -21q-53 0 -70.5 25t-17.5 65q0 45 18.5 67t69.5 22q54 0 72 -21t18 -68zM450 1300
q0 -48 -19.5 -69t-70.5 -21q-27 0 -44 6.5t-27 18.5t-13.5 28.5t-3.5 36.5q0 45 18.5 67t69.5 22q53 0 71.5 -21.5t18.5 -67.5z" />
    <glyph glyph-name="uni0452" unicode="&#x452;" horiz-adv-x="1090" 
d="M590 1217h-295v-324q47 52 92 87.5t88 57.5t82.5 31.5t75.5 9.5q86 0 150 -33.5t106 -104t63 -180t21 -261.5q0 -181 -19.5 -333t-69 -266.5t-135.5 -188t-219 -97.5l-20 111q81 14 143 59.5t103.5 133.5t62.5 225t21 335q0 138 -15 230t-43.5 147t-71.5 77.5t-98 22.5
q-27 0 -60.5 -8t-73 -28.5t-85.5 -56.5t-98 -91v-772h-129v1217h-141v106h141v166h129v-166h295v-106z" />
    <glyph glyph-name="uni0453" unicode="&#x453;" horiz-adv-x="868" 
d="M182 1049h670v-109h-541v-940h-129v1049zM505 1208h-104l186 361h178z" />
    <glyph glyph-name="uni0454" unicode="&#x454;" horiz-adv-x="1016" 
d="M926 168q-25 -47 -58 -84t-77 -62.5t-99.5 -39t-124.5 -13.5q-123 0 -206.5 42t-135 115.5t-74 174.5t-22.5 219q0 128 24.5 231.5t77 176t135 112t199.5 39.5q124 0 207.5 -49t140.5 -151l-106 -64q-21 39 -45 67.5t-53.5 47t-65.5 28t-82 9.5q-145 0 -216.5 -97
t-80.5 -292h527v-107h-527q3 -89 20.5 -161.5t53.5 -123.5t92 -78.5t137 -27.5q49 0 86.5 10.5t67.5 30.5t54 48.5t46 63.5z" />
    <glyph glyph-name="uni0455" unicode="&#x455;" horiz-adv-x="973" 
d="M856 268q0 -74 -25.5 -130t-74 -93.5t-118 -56.5t-157.5 -19q-81 0 -142 17.5t-105.5 44.5t-73 59.5t-43.5 63.5l104 65q35 -63 98.5 -101t163.5 -38q52 0 97 8.5t78 29.5t52 56.5t19 89.5q0 42 -12 72.5t-42.5 54t-82.5 42.5t-133 40q-84 22 -144.5 47t-100 60.5
t-58.5 85t-19 120.5q0 58 21.5 111.5t66 93.5t111.5 64t158 24q69 0 123.5 -15t96.5 -40.5t72 -59.5t50 -71l-105 -62q-15 28 -36.5 53t-50 43.5t-65.5 29t-85 10.5q-107 0 -168.5 -47t-61.5 -132q0 -41 11 -70t37 -50.5t70.5 -38.5t111.5 -35q101 -27 170.5 -55t112 -65
t61 -86.5t18.5 -119.5z" />
    <glyph glyph-name="uni0456" unicode="&#x456;" horiz-adv-x="494" 
d="M338 1305q0 -51 -21.5 -69.5t-70.5 -18.5q-51 0 -70.5 23t-19.5 65q0 45 20 65.5t70 20.5q51 0 71.5 -20t20.5 -66zM182 0v1049h129v-1049h-129z" />
    <glyph glyph-name="uni0457" unicode="&#x457;" horiz-adv-x="494" 
d="M182 0v1049h129v-1049h-129zM513 1300q0 -48 -19.5 -69t-70.5 -21q-53 0 -70.5 25t-17.5 65q0 45 18.5 67t69.5 22q54 0 72 -21t18 -68zM143 1300q0 -48 -19.5 -69t-70.5 -21q-27 0 -44 6.5t-27 18.5t-13.5 28.5t-3.5 36.5q0 45 18.5 67t69.5 22q53 0 71.5 -21.5
t18.5 -67.5z" />
    <glyph glyph-name="uni0458" unicode="&#x458;" horiz-adv-x="508" 
d="M350 1305q0 -51 -22 -69.5t-70 -18.5q-53 0 -72.5 23t-19.5 65q0 45 21.5 65.5t70.5 20.5q51 0 71.5 -20t20.5 -66zM322 -55q0 -86 -13.5 -149.5t-46 -106t-87.5 -63.5t-138 -21q-40 0 -86 7.5t-92 22.5l32 107q36 -14 73 -21.5t79 -7.5q43 0 72 14t46 44t24.5 76.5
t7.5 111.5v1090h129v-1104z" />
    <glyph glyph-name="uni0459" unicode="&#x459;" horiz-adv-x="1497" 
d="M319 1049h537v-412h164q103 0 177 -18t122 -57.5t71 -102.5t23 -152q0 -85 -25 -143.5t-74 -95t-122 -52.5t-170 -16h-293v940h-285v-51q0 -232 -23.5 -402.5t-66.5 -282t-105 -166t-138 -54.5q-11 0 -24.5 1.5t-27 3.5t-26 5t-21.5 6l27 113q15 -5 33.5 -7t33.5 -2
q45 0 83.5 43t67.5 139.5t45.5 251.5t16.5 380v131zM1280 309q0 64 -14.5 107t-47.5 69t-85.5 36.5t-128.5 10.5h-148v-428h160q70 0 120 10.5t82 34.5t47 63.5t15 96.5z" />
    <glyph glyph-name="uni045A" unicode="&#x45a;" horiz-adv-x="1587" 
d="M817 0v508h-508v-508h-127v1049h127v-435h508v435h127v-435h166q103 0 177 -17t122 -54.5t71 -96.5t23 -143t-25 -142t-74 -94t-122 -51.5t-170 -15.5h-295zM1370 305q0 56 -12.5 95t-44 63t-85.5 34.5t-136 10.5h-148v-404h162q74 0 124.5 11.5t81.5 35.5t44.5 62
t13.5 92z" />
    <glyph glyph-name="uni045B" unicode="&#x45b;" horiz-adv-x="1137" 
d="M834 0v651q0 89 -8 148t-28 94t-54.5 49t-86.5 14q-69 0 -160 -51.5t-186 -142.5v-762h-129v1206h-168v109h168v174h129v-174h283v-109h-283v-323q44 41 89 77t91.5 62.5t93.5 41.5t95 15q84 0 139 -25t87 -73.5t44.5 -119t12.5 -161.5v-700h-129z" />
    <glyph glyph-name="uni045C" unicode="&#x45c;" horiz-adv-x="979" 
d="M309 1049v-465h158q43 0 79.5 18.5t69.5 69.5t63 142t60 235h133q-32 -153 -63.5 -248.5t-63 -151t-64.5 -80t-69 -34.5q61 -15 103.5 -50.5t76.5 -98.5t62.5 -158t60.5 -228h-131q-25 96 -47 168t-44 124.5t-45.5 87.5t-51 55.5t-61.5 29t-76 8.5h-150v-473h-127v1049
h127zM521 1208h-104l186 361h178z" />
    <glyph glyph-name="uni045D" unicode="&#x45d;" horiz-adv-x="1157" 
d="M319 0h-137v1049h123v-875l535 875h135v-1049h-125v864zM575 1208l-258 361h176l186 -361h-104z" />
    <glyph glyph-name="uni045E" unicode="&#x45e;" horiz-adv-x="1018" 
d="M41 -256q25 -14 61 -21.5t70 -7.5q75 0 129 59.5t98 176.5l41 104l-383 994h140l311 -832l315 832h138l-453 -1147q-32 -81 -67.5 -138t-76.5 -92t-89 -51t-105 -16q-21 0 -44.5 2t-46 6t-42 9.5t-33.5 12.5zM820 1444q-1 -47 -17.5 -91.5t-54 -79.5t-98 -56t-147.5 -21
q-78 0 -135.5 21t-95 56t-55.5 79.5t-19 91.5h131q9 -79 49.5 -121.5t122.5 -42.5q50 0 83.5 9.5t55 30t32 51.5t15.5 73h133z" />
    <glyph glyph-name="uni045F" unicode="&#x45f;" horiz-adv-x="1135" 
d="M967 0h-336v-262h-129v262h-336v1049h131v-940h541v940h129v-1049z" />
    <glyph glyph-name="uni0490" unicode="&#x490;" horiz-adv-x="1065" 
d="M895 1634h133v-372h-692v-1262h-137v1384h696v250z" />
    <glyph glyph-name="uni0491" unicode="&#x491;" horiz-adv-x="829" 
d="M166 0v1049h514v307h125v-416h-508v-940h-131z" />
    <glyph glyph-name="Wgrave" unicode="&#x1e80;" horiz-adv-x="1718" 
d="M1313 0h-176l-281 1204l-283 -1204h-170l-323 1384h137l277 -1202l278 1202h168l287 -1212l278 1212h133zM858 1544l-258 361h176l186 -361h-104z" />
    <glyph glyph-name="wgrave" unicode="&#x1e81;" horiz-adv-x="1430" 
d="M1104 0h-125l-264 870l-264 -870h-125l-244 1049h133l186 -861l258 861h117l262 -861l181 861h129zM701 1208l-258 361h176l186 -361h-104z" />
    <glyph glyph-name="Wacute" unicode="&#x1e82;" horiz-adv-x="1718" 
d="M1313 0h-176l-281 1204l-283 -1204h-170l-323 1384h137l277 -1202l278 1202h168l287 -1212l278 1212h133zM883 1544h-104l186 361h178z" />
    </font>
</defs>
</svg>
